<svg id="Layer_1" data-name="Layer 1" xmlns="http://www.w3.org/2000/svg" xmlns:xlink="http://www.w3.org/1999/xlink" viewBox="0 0 66.57 22.45"><defs><style>.cls-1{fill:#fff;}.cls-1,.cls-2{fill-rule:evenodd;}.cls-2{fill:#231f20;}.cls-3{mask:url(#mask);}</style><mask id="mask" x="0" y="0" width="66.57" height="22.45" maskUnits="userSpaceOnUse"><g transform="translate(0 0)"><g id="mask-2"><polygon id="path-1" class="cls-1" points="0 22.45 66.57 22.45 66.57 0 0 0 0 22.45"/></g></g></mask></defs><g id="Interactive-Styleguide"><g id="TCUV-Interactive_Styleguide" data-name="TCUV-Interactive Styleguide"><g id="Group-54"><path id="Fill-1" class="cls-2" d="M2.52,6.17v.3c0,.65.18,1.15.88,1.15s.92-.53.92-1c0-1.86-3.71-.82-3.71-4C.61,1.16,1.35,0,3.44,0S6.2,1,6.2,2.36v.2h-2a1.86,1.86,0,0,0-.17-.9.67.67,0,0,0-.62-.31c-.51,0-.81.31-.81.94,0,1.8,3.71.89,3.71,3.94C6.35,8.19,5.27,9,3.4,9,1.93,9,.56,8.53.56,6.72V6.17Z" transform="translate(0 0)"/><polygon id="Fill-3" class="cls-2" points="7.33 0.17 9.37 0.17 9.37 3.4 10.99 3.4 10.99 0.17 13.02 0.17 13.02 8.8 10.99 8.8 10.99 5.12 9.37 5.12 9.37 8.8 7.33 8.8 7.33 0.17"/><path id="Fill-5" class="cls-2" d="M17.11,7.62c.82,0,.94-.76.94-3.13s-.12-3.14-.94-3.14-.92.77-.92,3.14.12,3.13.92,3.13m0,1.35c-2.67,0-3-1.74-3-4.48S14.45,0,17.12,0c2.88,0,3,2.09,3,4.49S20,9,17.12,9" transform="translate(0 0)"/><polygon id="Fill-7" class="cls-2" points="20.52 0.17 22.55 0.17 23.3 6.31 23.32 6.31 24.22 0.17 26.1 0.17 27.07 6.31 27.1 6.31 27.82 0.17 29.78 0.17 28.28 8.8 26.03 8.8 25.15 2.67 25.12 2.67 24.29 8.8 22.04 8.8 20.52 0.17"/><polygon id="Fill-9" class="cls-2" points="38.9 0.82 38.88 0.82 36.4 8.8 35.89 8.8 33.41 0.82 33.39 0.82 33.39 8.8 32.88 8.8 32.88 0.17 33.7 0.17 36.16 7.93 36.18 7.93 38.58 0.17 39.41 0.17 39.41 8.8 38.9 8.8 38.9 0.82"/><path id="Fill-11" class="cls-2" d="M39,8.72h.33V.26h-.68L36.25,8h-.16L33.64.26H33V8.72h.33v-8h.18l2.48,8h.38l2.48-8H39Zm.51.17h-.68V1.32L36.46,8.89h-.63l0-.06L33.48,1.32V8.89h-.69V.08h1l2.4,7.6L38.51.08h1Z" transform="translate(0 0)"/><polygon id="Fill-13" class="cls-2" points="40.8 0.17 44.93 0.17 44.93 0.63 41.31 0.63 41.31 4.08 44.69 4.08 44.69 4.54 41.31 4.54 41.31 8.35 45.04 8.35 45.04 8.8 40.8 8.8 40.8 0.17"/><path id="Fill-15" class="cls-2" d="M40.89,8.72H45V8.43H41.22v-4H44.6V4.16H41.22V.54h3.62V.26h-4Zm4.23.17H40.71V.08H45V.72H41.4V4h3.37v.63H41.4V8.26h3.72Z" transform="translate(0 0)"/><polygon id="Fill-17" class="cls-2" points="49.82 0.63 47.52 0.63 47.52 0.17 52.62 0.17 52.62 0.63 50.33 0.63 50.33 8.8 49.82 8.8 49.82 0.63"/><path id="Fill-19" class="cls-2" d="M49.91,8.72h.33V.54h2.3V.26H47.61V.54h2.3Zm.5.17h-.68V.72h-2.3V.08h5.28V.72h-2.3Z" transform="translate(0 0)"/><polygon id="Fill-21" class="cls-2" points="53.39 0.17 53.89 0.17 53.89 3.96 57.68 3.96 57.68 0.17 58.19 0.17 58.19 8.8 57.68 8.8 57.68 4.41 53.89 4.41 53.89 8.8 53.39 8.8 53.39 0.17"/><path id="Fill-23" class="cls-2" d="M53.47,8.72h.34V4.33h4V8.72h.33V.26h-.33V4h-4V.26h-.34Zm.51.17H53.3V.08H54V3.87h3.61V.08h.69V8.89h-.69V4.5H54Z" transform="translate(0 0)"/><polygon id="Fill-25" class="cls-2" points="59.18 0.17 63.3 0.17 63.3 0.63 59.69 0.63 59.69 4.08 63.06 4.08 63.06 4.54 59.69 4.54 59.69 8.35 63.41 8.35 63.41 8.8 59.18 8.8 59.18 0.17"/><path id="Fill-27" class="cls-2" d="M59.27,8.72h4V8.43H59.6v-4H63V4.16H59.6V.54h3.62V.26H59.27Zm4.23.17H59.09V.08h4.3V.72H59.78V4h3.37v.63H59.78V8.26H63.5Z" transform="translate(0 0)"/><path id="Fill-29" class="cls-1" d="M64,21.22a1,1,0,0,1-1,1H1.25a1,1,0,0,1-1-1v-10a1,1,0,0,1,1-1h61.8a1,1,0,0,1,1,1Z" transform="translate(0 0)"/><path id="Fill-31" class="cls-2" d="M1.24,10.5a.68.68,0,0,0-.49.2.72.72,0,0,0-.22.49v10a.72.72,0,0,0,.72.69H63.06a.7.7,0,0,0,.49-.2.69.69,0,0,0,.21-.49v-10a.7.7,0,0,0-.71-.69H1.24Zm0,12A1.24,1.24,0,0,1,0,21.22v-10a1.23,1.23,0,0,1,.37-.87A1.27,1.27,0,0,1,1.25,10h61.8a1.23,1.23,0,0,1,.87.36,1.24,1.24,0,0,1,.38.87v10a1.24,1.24,0,0,1-.38.87,1.19,1.19,0,0,1-.88.36H1.23Z" transform="translate(0 0)"/><g class="cls-3"><polygon id="Fill-33" class="cls-1" points="53.41 21.27 63.12 21.27 63.12 11.12 53.41 11.12 53.41 21.27"/></g><g class="cls-3"><path id="Fill-35" class="cls-2" d="M53.55,21.13H63V11.25H53.55Zm-.27.27h10V11h-10Z" transform="translate(0 0)"/></g><g class="cls-3"><polygon id="Fill-36" class="cls-2" points="11.67 21.28 21.37 21.28 21.37 11.13 11.67 11.13 11.67 21.28"/></g><g class="cls-3"><path id="Fill-37" class="cls-2" d="M11.8,21.15h9.44V11.27H11.8Zm-.26.26h10V11h-10Z" transform="translate(0 0)"/></g><g class="cls-3"><polygon id="Fill-38" class="cls-2" points="22.07 21.28 31.77 21.28 31.77 11.13 22.07 11.13 22.07 21.28"/></g><g class="cls-3"><path id="Fill-39" class="cls-2" d="M22.21,21.15h9.43V11.27H22.21Zm-.27.26h10V11h-10Z" transform="translate(0 0)"/></g><g class="cls-3"><polygon id="Fill-40" class="cls-2" points="32.54 21.28 42.24 21.28 42.24 11.13 32.54 11.13 32.54 21.28"/></g><g class="cls-3"><path id="Fill-41" class="cls-2" d="M32.68,21.15h9.43V11.27H32.68Zm-.27.26h10V11h-10Z" transform="translate(0 0)"/></g><g class="cls-3"><polygon id="Fill-42" class="cls-2" points="43.01 21.28 52.72 21.28 52.72 11.13 43.01 11.13 43.01 21.28"/></g><g class="cls-3"><path id="Fill-43" class="cls-2" d="M43.15,21.15h9.43V11.27H43.15Zm-.27.26h10V11h-10Z" transform="translate(0 0)"/></g><g class="cls-3"><polygon id="Fill-44" class="cls-2" points="1.2 21.28 10.9 21.28 10.9 11.13 1.2 11.13 1.2 21.28"/></g><g class="cls-3"><path id="Fill-45" class="cls-2" d="M1.33,21.15h9.44V11.27H1.33Zm-.26.26H11V11h-10Z" transform="translate(0 0)"/></g><g class="cls-3"><path id="Fill-46" class="cls-1" d="M6.28,19.86c-2.07,0-3.17-1.53-3.17-3.59,0-2.24,1.31-3.59,3.18-3.59a2.63,2.63,0,0,1,2.86,2.05l-1.75.69c-.25-.65-.48-1.06-1.12-1.06-.81,0-1.15.81-1.15,1.91s.33,1.91,1.17,1.91c.61,0,.86-.32,1.24-1l1.63.87a3,3,0,0,1-2.89,1.79" transform="translate(0 0)"/></g><g class="cls-3"><path id="Fill-47" class="cls-1" d="M20.06,19.67l-2.53-7h-2l-2.52,7h2.06l.38-1.23h2.09L18,19.67Zm-2.94-2.75H16l.13-.46c.25-.88.36-1.27.45-1.74.09.47.2.85.44,1.74Z" transform="translate(0 0)"/></g><g class="cls-3"><path id="Fill-48" class="cls-1" d="M30,19.71l-1.4-2.66a2.06,2.06,0,0,0,1.26-2c0-1.66-1.09-2.27-2.72-2.27H24v7h1.9V17.36h.77l1.14,2.35ZM27.9,15.07c0,.49-.25.77-.88.77H25.89V14.32h1.16c.61,0,.85.31.85.75Z" transform="translate(0 0)"/></g><g class="cls-3"><polygon id="Fill-49" class="cls-1" points="36.55 14.39 36.55 15.36 38.73 15.36 38.73 16.99 36.55 16.99 36.55 19.71 34.63 19.71 34.63 12.75 40.14 12.75 40.14 14.39 36.55 14.39"/></g><g class="cls-3"><path id="Fill-50" class="cls-1" d="M51.3,19.73l-2.52-7h-2l-2.53,7h2.07l.38-1.23h2.09l.38,1.23ZM48.37,17H47.22l.13-.45c.25-.89.35-1.28.44-1.74.09.46.2.84.45,1.74Z" transform="translate(0 0)"/></g><g class="cls-3"><path id="Fill-51" class="cls-2" d="M59.24,21.36l-.31-.47c-.27-.44-.54-.9-.73-1.28a10.89,10.89,0,0,1-.74,1.28l-.34.47H54.76l2.29-3.17-2.41-3.42h2.45l.43.67a13.27,13.27,0,0,1,.73,1.26A13.38,13.38,0,0,1,59,15.44l.42-.67H61.8l-2.4,3.38,2.26,3.21Z" transform="translate(0 0)"/></g><g class="cls-3"><path id="Fill-52" class="cls-2" d="M66,10.7c0-.11-.08-.17-.25-.17h-.32v.36h.33c.16,0,.24-.07.24-.19m.17,0a.28.28,0,0,1-.1.24.38.38,0,0,1-.25.09l.33.45h-.2L65.6,11h-.19v.44h-.17v-1.1h.54a.37.37,0,0,1,.28.09.28.28,0,0,1,.09.23m.26.24a.79.79,0,0,0-.23-.56.7.7,0,0,0-.53-.24.79.79,0,0,0-.55.24.82.82,0,0,0-.22.56.78.78,0,0,0,.22.56.71.71,0,0,0,.55.23.7.7,0,0,0,.53-.23.79.79,0,0,0,.23-.56m.14,0a.92.92,0,0,1-.9.93A.91.91,0,0,1,65,11.6a1,1,0,0,1-.27-.66.91.91,0,0,1,.27-.66.91.91,0,0,1,1.29,0,.89.89,0,0,1,.26.66" transform="translate(0 0)"/></g><g class="cls-3"><path id="Fill-53" class="cls-2" d="M65.42,10.87h.32c.15,0,.23-.06.23-.17s-.08-.15-.24-.15h-.31Zm.32,0h-.35v-.39h.34c.18,0,.27.07.27.19s-.09.2-.26.2Zm.2.56h.16L65.77,11h0a.36.36,0,0,0,.24-.09.33.33,0,0,0,.1-.23h0a.29.29,0,0,0-.09-.22.36.36,0,0,0-.24-.09h-.55v1.07h.13V11h.22Zm.23,0h-.26l-.32-.44h-.17v.44h-.19V10.36h.58a.39.39,0,0,1,.26.1.31.31,0,0,1,.1.24.33.33,0,0,1-.11.25.43.43,0,0,1-.23.1Zm-.53-1.33a.68.68,0,0,0-.52.23.78.78,0,0,0-.23.55.75.75,0,0,0,.23.55.72.72,0,0,0,.52.23h0a.72.72,0,0,0,.52-.23.82.82,0,0,0,.22-.55h0a.82.82,0,0,0-.22-.55.68.68,0,0,0-.52-.23Zm0,1.59a.76.76,0,0,1-.55-.24.82.82,0,0,1,0-1.14.76.76,0,0,1,.55-.24h0a.72.72,0,0,1,.54.24.82.82,0,0,1,0,1.14.72.72,0,0,1-.54.24Zm0,.1h0a.86.86,0,0,0,.62-.27.89.89,0,0,0,.25-.64h0a.87.87,0,0,0-.25-.65.86.86,0,0,0-.62-.27h0a.86.86,0,0,0-.62.27.93.93,0,0,0,0,1.29.86.86,0,0,0,.62.27Zm0,0h0a.91.91,0,0,1-.64-.27,1,1,0,0,1,0-1.34.88.88,0,0,1,.64-.28h0a.88.88,0,0,1,.64.28,1,1,0,0,1,0,1.34.91.91,0,0,1-.64.27Z" transform="translate(0 0)"/></g></g></g></g></svg>