<svg version="1.1" id="Layer_1" xmlns="http://www.w3.org/2000/svg" xmlns:xlink="http://www.w3.org/1999/xlink" x="0px" y="0px"
	 viewBox="0 0 80 80" style="enable-background:new 0 0 80 80;" xml:space="preserve">
<style type="text/css">
	.st0{fill:none;}
	.st1{fill:#EB0A1E;}
</style>
<rect class="st0" width="80" height="80"/>
<path class="st1" d="M72,59.4l-5.9-13.7c-1-2-2.8-3.5-4.9-4.1l-8.3-1.9c-0.3-0.1-0.6-0.1-1-0.1c2-3.8,3.4-7.6,3.4-10.4
	c0-8.4-6.8-15.2-15.2-15.2s-15.2,6.8-15.2,15.2c0,2.8,1.5,6.6,3.5,10.4c-0.2,0-0.4,0.1-0.6,0.1l-8.3,1.9c-2.1,0.6-3.9,2.1-4.9,4.1
	L8.7,59.4c-0.7,1.1-0.4,2.5,0.7,3.2c0.6,0.4,1.4,0.5,2.1,0.2l10.6-2.1c1.9-0.3,3.8-0.1,5.6,0.5l9,3.6l2.9,1.2
	c0.2,0.1,0.4,0.1,0.6,0.1h0.5c0.2,0,0.3,0,0.5-0.1l2.9-1.2l9-3.6c1.8-0.6,3.7-0.8,5.6-0.5l10.6,2.1c1.2,0.4,2.5-0.2,2.9-1.4
	C72.5,60.8,72.4,60,72,59.4z M52.5,41.3l4.2,1l-5.1,2.6l-0.9-3l0.4-0.8C51.6,41.1,52.1,41.1,52.5,41.3z M36.5,52.7l-6.3,3.2L27,54.6
	l3.5-11.2C32.7,47.1,35,50.5,36.5,52.7L36.5,52.7z M50.2,42.8l0.9,2.5L47.7,47C48.5,45.6,49.4,44.2,50.2,42.8L50.2,42.8z M40.2,23.7
	c3.6,0,6.6,3,6.6,6.6c0,3.6-3,6.6-6.6,6.6c-3.6,0-6.6-3-6.6-6.6c0,0,0,0,0,0C33.6,26.7,36.5,23.7,40.2,23.7
	C40.2,23.7,40.2,23.7,40.2,23.7L40.2,23.7z M16.1,46.3c0.8-1.5,2.1-2.7,3.8-3.2l8.3-1.9c0.3-0.1,0.7-0.1,1-0.1
	c0.2,0.4,0.5,0.8,0.7,1.2l-3.7,11.9l-11.5-4.8L16.1,46.3z M21.8,59.1l-10.6,2.1c-0.4,0.2-0.8,0.1-1.1-0.2c-0.2-0.3-0.2-0.7,0.1-1
	l4.2-9.9L26,55l-1.2,4C23.7,58.9,22.8,59,21.8,59.1L21.8,59.1z M40.5,64.4l-0.3-0.1h-0.1c-1-0.3-1.9-0.6-2.8-1.1l-9-3.6
	c-0.9-0.3-1.8-0.5-2.8-0.6l1.4-3.8l13.5,5.5V64.4L40.5,64.4z M31.4,56.2l5.6-2.9c0.8,1.1,1.4,1.7,1.4,1.7c0.5,0.7,1.3,1.1,2.1,1v3.8
	L31.4,56.2z M43.6,63.3c-1.1,0.5-1.4,0.9-2.2,1v-3.2l3.7,1.6L43.6,63.3z M52.4,59.7l-6.4,2.6l-4.7-2.1v-4.3c0.3-0.3,0.6-0.6,0.9-0.9
	c0,0,2.1-2.8,4.7-6.8l4.4-2.3l3.9,13.1C54.3,59.2,53.3,59.4,52.4,59.7L52.4,59.7z M59,59.1C58,59,57,58.9,56.1,59l-4.2-13.4l6.1-3.1
	l2.9,0.7c1.6,0.5,3,1.6,3.8,3.2l0.9,2l-4,11.3L59,59.1z M70.6,61.1c-0.3,0.2-0.7,0.3-1.1,0.1l-7.3-1.5L66,49.4L70.6,60
	C70.8,60.4,70.8,60.8,70.6,61.1L70.6,61.1z"/>
</svg>
