<?xml version="1.0" encoding="utf-8"?><svg xmlns="http://www.w3.org/2000/svg" xmlns:xlink="http://www.w3.org/1999/xlink"><symbol viewBox="0 0 67 65" id="acura" xmlns="http://www.w3.org/2000/svg"><path d="M41.747.394h-6.744L34.856 0v.394h-2.922l-.002-.341-.122.341h-6.582C13.478 1.982 2.688 9.63 0 25.439l.207 14.125C.825 51.76 8.873 58.458 17.43 61.877l-.016.152.06-.135c5.893 2.347 12.023 3.14 16.13 3.105 6.803-.136 12.359-1.181 16.862-3.064l.265.561-.087-.634C60.567 57.639 65.324 49.3 67 37.582v-9.12C66.368 16.21 59.445 4.472 41.747.394zm-6.89 2.502v23.377h-2.716l-.186-23.377h2.902zM3.724 38.286V25.439C6.785 11.62 15.604 5.529 25.877 2.896h5.05L20.652 31.96 17.67 59.663c-6.282-3.076-11.72-9.149-13.946-21.376zm29.674 24.628c-4.741-.216-10.136-.703-15.07-2.94l13.186-29.7h3.97l13.733 29.017c-4.06 2.034-9.229 3.314-15.819 3.623zm29.855-25.696c-1.49 9.13-4.853 16.98-13.039 21.54l-3.868-27.852-10.412-28.01h5.192C56.502 7.049 62.571 17.536 63.253 28.8v8.418z"/></symbol><symbol viewBox="0 0 10 5" id="arrow-down" xmlns="http://www.w3.org/2000/svg"><path d="M0 0l5 5 5-5H0z"/></symbol><symbol viewBox="0 0 9 9" id="arrow-first-page" xmlns="http://www.w3.org/2000/svg"><path d="M4 9L0 4.5 4 0v9zm5 0L4 4.5 9 0v9z"/></symbol><symbol viewBox="0 0 9 9" id="arrow-last-page" xmlns="http://www.w3.org/2000/svg"><path d="M5 9l4-4.5L5 0v9zM0 9l5-4.5L0 0v9z"/></symbol><symbol viewBox="0 0 16 16" id="arrow-left" xmlns="http://www.w3.org/2000/svg"><path d="M15 8H1m7-7L1 8l7 7"/></symbol><symbol viewBox="0 0 4 9" id="arrow-next-page" xmlns="http://www.w3.org/2000/svg"><path d="M0 9l4-4.5L0 0v9z"/></symbol><symbol viewBox="0 0 4 9" id="arrow-prev-page" xmlns="http://www.w3.org/2000/svg"><path d="M4 9L0 4.5 4 0v9z"/></symbol><symbol viewBox="0 0 16 16" id="arrow-right" xmlns="http://www.w3.org/2000/svg"><path d="M1 8h14M8 1l7 7-7 7"/></symbol><symbol viewBox="0 0 67 67" id="bmw" xmlns="http://www.w3.org/2000/svg"><path d="M33.5 0C14.982 0 0 14.982 0 33.5S14.982 67 33.5 67 67 52.018 67 33.5 52.018 0 33.5 0zm31.326 33.5c0 17.3-14.026 31.326-31.326 31.326S2.174 50.8 2.174 33.5 16.2 2.174 33.5 2.174 64.826 16.2 64.826 33.5zM33.5 13.644v1.099c10.346 0 18.781 8.41 18.781 18.78h1.1c-.025-10.99-8.913-19.88-19.881-19.88zm0 38.637c-10.346 0-18.781-8.41-18.781-18.781h-1.1c0 10.968 8.89 19.856 19.857 19.856l.024-1.075zm16.057-32.926c.454.477 1.1 1.266 1.481 1.744l6.787-4.277a54.82 54.82 0 00-1.29-1.577l-4.302 2.82-.286.238.215-.31 1.887-3.752-1.338-1.338-3.775 1.888-.31.215.262-.287 2.843-4.253a37.17 37.17 0 00-1.6-1.29l-4.301 6.738c.55.406 1.266 1.027 1.72 1.433l4.062-2.079.263-.19-.191.262-2.127 4.015zm-15.388-8.53l1.864-4.11.12-.36-.025.383.191 5.496c.646.072 1.315.143 1.984.263l-.335-8.148a54.081 54.081 0 00-2.772-.215L33.38 8.626l-.071.334-.072-.334-1.816-4.492c-.932.048-1.84.12-2.772.215l-.31 8.148c.669-.12 1.338-.191 1.983-.263l.191-5.496-.024-.382.12.358 1.863 4.11h1.697zm-14.982 6.498c1.075-1.123 1.673-2.413.598-3.655-.574-.67-1.553-.813-2.366-.478l-.072.024.024-.072c.12-.31.191-1.338-.669-2.031a1.994 1.994 0 00-1.505-.406c-1.004.095-1.768.788-3.895 3.106-.645.693-1.553 1.816-2.127 2.533l5.783 5.448c1.935-2.103 2.7-2.868 4.23-4.469zm-7.55-1.314c1.17-1.41 2.413-2.7 2.963-3.202a1.43 1.43 0 01.597-.382c.382-.096.764.167.86.55.096.382-.167.764-.43 1.075-.621.693-2.867 3.034-2.867 3.034l-1.123-1.075zm2.27 2.127s2.198-2.318 2.915-3.059c.286-.286.478-.477.669-.573.263-.12.525-.143.788.024.24.167.359.43.287.717-.072.334-.334.645-.573.884-.311.31-2.916 3.106-2.916 3.106l-1.17-1.1z"/><path d="M34 14v20H14c0-11.047 8.953-20 20-20zm20 20c0 11.047-8.953 20-20 20V34h20z"/></symbol><symbol viewBox="0 0 65 61" id="cadillac" xmlns="http://www.w3.org/2000/svg"><path d="M22.131.378c-4.315.89-9.143 3.169-12.434 5.853C4.843 10.195 1.323 16.965.23 24.422c-.283 1.956-.31 6.285-.053 8.106.903 6.432 4.261 12.798 9.4 17.814 3.708 3.601 7.457 5.974 11.18 7.053 2.157.634 11.408 3.075 11.664 3.075.472.013 11.908-3.074 13.297-3.6 2.94-1.106 6.42-3.494 9.548-6.528 4.355-4.248 7.376-9.332 8.725-14.659 1.066-4.248 1.079-9.386.027-14.079-.93-4.167-2.873-8.442-5.3-11.665C54.97 4.963 48.55 1.27 41.767.162L40.797 0l-.756.58c-.418.31-.702.607-.647.66.054.055.445.216.85.338 1.307.431 3.87 1.631 5.569 2.63 6.473 3.775 10.896 9.25 12.77 15.764 1.754 6.068 1.268 11.921-1.415 17.275-4.02 8.011-12.65 14.12-21.645 15.32-4.841.648-9.75-.242-14.632-2.642C12.665 45.879 6.906 38.69 5.517 30.707c-1.079-6.244.715-13.31 4.801-18.813 1.038-1.402 3.332-3.776 4.774-4.949 2.55-2.063 6.136-4.113 9.036-5.178.674-.243 1.267-.486 1.321-.526.122-.108-1.308-1.214-1.55-1.2-.095 0-.89.148-1.768.337z"/><path d="M21.524 14.929c-5.798.687-10.6 1.281-10.653 1.308-.067.027.634 1.416 1.551 3.101l1.672 3.062.594 6.244c.324 3.439.66 6.58.755 6.985.377 1.834 1.577 3.614 2.845 4.262 1.43.728 6.446 2.414 11.975 4.019.93.283 1.82.566 1.996.647.216.108.378.108.607 0 .162-.08 1.753-.58 3.534-1.106 4.18-1.24 8.078-2.549 9.655-3.222 2.01-.863 3.008-2.118 3.56-4.478.123-.472.486-3.668.81-7.107l.593-6.244 1.672-3.061c.918-1.685 1.66-3.075 1.646-3.088-.04-.055-21.726-2.603-22.01-2.59-.134.013-4.989.58-10.802 1.268zm28.928 2.994c-.04.067-.553.97-1.16 2.036L48.2 21.888v6.783c0 7.646 0 7.592-.985 8.617-.31.31-.795.675-1.065.81-.283.134-3.452.944-7.053 1.793l-6.54 1.552-6.636-1.579c-7.161-1.686-7.471-1.794-8.267-2.819-.741-.984-.741-1.024-.741-8.388v-6.796l-1.093-1.915c-.607-1.052-1.132-1.955-1.16-2.023-.027-.054 8.024-.094 17.896-.094 9.872 0 17.922.04 17.896.094z"/></symbol><symbol viewBox="0 0 16 9" id="caret-down" xmlns="http://www.w3.org/2000/svg"><path d="M1 1l7 7 7-7"/></symbol><symbol viewBox="0 0 67 27" id="chevrolet" xmlns="http://www.w3.org/2000/svg"><path d="M21.603 2.755v2.756l-7.206.027-7.205.04-3.589 7.798L0 21.172l10.808.04 10.795.027v4.84h24.466V20.7l4.947-.013c2.715-.014 5.86-.054 6.99-.108l2.057-.08 3.468-7.394L67 5.713l-10.405-.04-10.391-.027V0H21.603v2.755z"/></symbol><symbol viewBox="0 0 64 60" id="chrysler" xmlns="http://www.w3.org/2000/svg"><path fill-rule="evenodd" clip-rule="evenodd" d="M28.696 28.95L30.936.053.403 21.062l28.293 7.887zm33.836-6.532L32.983 0l1.134 29.157 28.415-6.74zM35.596 34.459l15.176 24.938 12.267-35.12L35.596 34.46zm-4.591 2.969L12.337 60h36.629L31.005 37.428zm-4.519-3.081L0 22.794l10.934 36.004 15.553-24.45z"/></symbol><symbol viewBox="0 0 512 512" id="close" xmlns="http://www.w3.org/2000/svg"><path d="M437.5 386.6L306.9 256l130.6-130.6c14.1-14.1 14.1-36.8 0-50.9-14.1-14.1-36.8-14.1-50.9 0L256 205.1 125.4 74.5c-14.1-14.1-36.8-14.1-50.9 0-14.1 14.1-14.1 36.8 0 50.9L205.1 256 74.5 386.6c-14.1 14.1-14.1 36.8 0 50.9 14.1 14.1 36.8 14.1 50.9 0L256 306.9l130.6 130.6c14.1 14.1 36.8 14.1 50.9 0 14-14.1 14-36.9 0-50.9z"/></symbol><symbol viewBox="0 0 64 52" id="dodge" xmlns="http://www.w3.org/2000/svg"><path d="M33.084 8.24c.416-1.416 3.554-3.458 4.043-3.024-.018-.522 2.265-2.586 3.107-2.226-.203-.626 2.927-2.559 3.66-2.016.181-.785 4.717-1.378 5.616-.63.518-.573 4.54.389 4.638 1.386.742-.639 4.845 3.642 4.852 5.796 0 .842-3.86-2.555-6.297-1.807-4.018 1.208-9.142 5.436-13.575 11.803-1.24 1.73-4.411 2.363-5.107-.461 0 .001-1.369-7.398-.937-8.821z"/><path d="M32.408 48.741c-.65-1.071-.449-2.355.085-2.852.755-.722 2.92-.14 3.088-.81.427-1.532-.67-2.073-.47-4.214.054-.742 1.479-6.158 1.843-6.642.301-.397 2.123-1.028 2.616-1.233.3-.338.512-.747.515-1.448-2.365-.737-3.004 1.461-3.345 1.364-.342-.07.175-2.393.471-2.64.299-.26 3.09-.875 3.389-1.363.347-.516 1.635-5.458 0-5.534.146.02-.068-.334.042-.299 3.362.77 5.624-15.125 13.853-15.07 8.19.072 7.763 11.834 7.29 12.261-.938.826-2.294.525-2.358 1.277-.407 7.193-6.882 14.891-8.834 14.22-1.18-.41-.176-4.065.386-4.13-.52-.233-.008-3.995.6-4.087-.481-.332-.056-3.8.557-3.832-.306-.272-.274-2.647-.9-3.831-.458-.905-2.486-1.393-2.615.809 1.242-.584 1.326 3.394.815 4.087-.51.66-3.79 2.183-4.804 3.022.075 1.697-1.543 8.21-2.744 10.092-1.185 1.841-2.377 2.941-3.045 4.64-.696 1.684-.26 4.568-1.801 5.875-.69.572-4.354.827-4.634.338z"/><path d="M60.692 21.67c.393-.648 1.951-.906 2.509-.596.665.374 1.154 5.551.467 5.711.601.31-.148 4.238-.894 4.262.591.235-.633 4.088-1.36 3.963.43.591-1.554 3.723-2.083 3.54-.188 3.232-9.867 4.77-9.65 2.045.106-1.307 1.554.618 8.078-9.547 2.862-4.512 2.379-8.406 2.933-9.378zM30.763 8.33c-.668-1.495-3.443-3.484-3.911-3.026 0-.547-2.28-2.641-3.104-2.26C23.933 2.392 20.804.43 20.05 1c-.158-.813-4.69-1.414-5.57-.64-.535-.598-4.554.379-4.633 1.406C9.087 1.1 4.988 5.444 5 7.648c-.018.837 3.838-2.611 6.25-1.876 4.037 1.25 9.156 5.541 13.603 11.977 1.22 1.783 4.32 2.423 5.017-.47.002 0 1.577-7.48.893-8.95z"/><path d="M30.59 48.72c.635-1.131.52-2.375-.042-2.897-.733-.696-2.863-.072-3.057-.723-.405-1.552.699-2.093.517-4.217-.073-.76-1.504-6.178-1.85-6.645-.324-.416-2.151-1.047-2.628-1.236-.32-.355-.53-.765-.56-1.49 2.401-.714 3.043 1.487 3.403 1.406.323-.089-.194-2.413-.473-2.684-.32-.237-3.08-.893-3.445-1.32-.376-.499-1.618-5.478 0-5.579-.122.046.092-.311-.042-.3C19.06 23.833 16.79 7.927 8.503 8c-8.2.054-7.77 11.822-7.277 12.267.922.81 2.285.509 2.326 1.278.43 7.18 6.934 14.882 8.914 14.184 1.165-.386.158-4.04-.388-4.132.504-.205-.009-3.97-.602-4.045.464-.35.035-3.82-.562-3.877.288-.247.257-2.625.861-3.791.483-.924 2.521-1.412 2.627.81-1.222-.601-1.308 3.377-.774 4.045.493.684 3.787 2.207 4.82 3.066-.093 1.68 1.532 8.196 2.714 10.052 1.213 1.868 2.41 2.97 3.1 4.645.686 1.724 1.005 5.102 1.85 5.877.76.684 4.196.864 4.478.34zm.95 3.28c-2.576.046-4.828-1.763-4.393-2.26.9-.921 2.436.445 4.263-.34 1.81.743 3.308-.578 4.478.299.672.478-1.791 2.265-4.348 2.3z"/><path d="M3.212 21.613c-.36-.67-1.88-.755-2.448-.428-.626.355-1.103 5.381-.455 5.559-.564.294.167 4.235.912 4.235-.593.26.602 4.126 1.287 4.02-.397.574 1.538 3.718 2.074 3.55.167 3.228 9.608 4.769 9.415 2.054-.121-1.33-1.534.601-7.88-9.622-2.813-4.503-2.34-8.409-2.905-9.368z"/></symbol><symbol viewBox="0 0 67 24" id="ford" xmlns="http://www.w3.org/2000/svg"><path d="M0 11.659c0 6.44 14.999 11.66 33.501 11.66 18.502 0 33.499-5.22 33.499-11.66S52.003-.001 33.501-.001C15 0 0 5.22 0 11.66zm1.178 0c0-5.883 14.47-10.65 32.323-10.65 17.852 0 32.322 4.767 32.322 10.65 0 5.882-14.47 10.652-32.322 10.652-17.852 0-32.322-4.77-32.323-10.652z"/><path d="M52.46 7.705c-.133 0-.2.016-.263.139-.207.395-2.714 4.152-3.18 4.881-.078.111-.175.096-.186-.03-.047-.434-.421-.931-1.01-1.17a2.58 2.58 0 00-1.346-.156c-.825.11-1.56.546-2.205 1.037-.974.74-1.813 1.7-2.898 2.408-.591.385-1.403.723-1.944.22-.49-.454-.435-1.465.315-2.246.079-.083.175-.015.16.059-.071.354.016.705.284.952.328.293.797.326 1.198.13.474-.234.752-.687.833-1.202.126-.798-.489-1.501-1.257-1.558-.624-.043-1.223.173-1.806.655a3.442 3.442 0 00-.71.782c-.063.088-.157.097-.154-.033.03-1.022-.393-1.596-1.238-1.616-.654-.016-1.356.341-1.902.775-.598.481-1.122 1.117-1.681 1.716-.07.074-.132.07-.151-.071-.017-.678-.188-1.333-.5-1.799a.417.417 0 00-.54-.132c-.091.048-.406.194-.636.379-.113.094-.158.23-.107.403a4.72 4.72 0 01-.175 3.13c-.376.89-1.108 1.692-1.969 1.963-.567.18-1.156.092-1.52-.41-.5-.693-.298-1.9.448-2.9.66-.882 1.611-1.442 2.562-1.803.112-.043.135-.115.103-.21-.052-.156-.134-.369-.167-.466-.087-.232-.332-.27-.63-.237-.69.08-1.313.317-1.93.646-1.61.863-2.418 2.534-2.772 3.426-.17.43-.316.698-.505.936-.253.32-.573.61-1.156 1.122a.206.206 0 00-.047.235c.06.122.363.552.449.59.094.046.205-.019.25-.05.407-.276.895-.715 1.135-1.012.082-.102.169-.06.214.095a2.507 2.507 0 001.614 1.716c1.477.498 3.009-.223 4.167-1.479.735-.798 1-1.311 1.283-1.66.477-.591 1.419-1.916 2.54-2.764.412-.316.9-.553 1.144-.395.196.127.261.423-.055.997-1.144 2.09-2.827 4.543-3.136 5.139-.057.102-.009.184.1.184.6-.004 1.192-.002 1.736-.002.09-.004.13-.045.177-.11.877-1.374 1.704-2.682 2.589-4.034.05-.079.094-.017.097.017.019.315.096.744.283 1.026.334.52.808.744 1.335.748.418.005.63-.059 1.08-.227.369-.137.664-.315.89-.478.131-.091.155.062.152.086-.204 1.09.048 2.383 1.132 2.919 1.298.64 2.723-.26 3.544-1.07.08-.08.165-.07.174.097a1.5 1.5 0 00.414.936c.686.69 2.075.416 3.466-.66.893-.69 1.828-1.665 2.672-2.698.032-.04.056-.105-.008-.17-.129-.133-.315-.287-.442-.406-.058-.05-.143-.036-.193.002-.865.823-1.645 1.762-2.771 2.539-.38.265-.986.479-1.258.11-.105-.143-.093-.34.012-.6.328-.819 5.527-8.735 5.797-9.202.047-.081 0-.14-.105-.14H52.46zm-8.243 9.728c-.267-.139-.384-.513-.377-.815.014-.853.39-1.727 1.09-2.588.854-1.049 1.797-1.596 2.416-1.296.64.305.435 1.046.15 1.629a.164.164 0 00-.012.12c.01.06.089.119.166.146.027.011.043.03.012.094-.221.474-.425.748-.701 1.159-.255.38-.542.677-.89.962-.405.334-.931.693-1.426.693a.893.893 0 01-.428-.104z"/><path d="M24.822 2.904c-.496 0-.994.02-1.496.06-3.196.27-6.236 2.068-6.243 4.798 0 1.386.982 2.508 2.508 2.459 1.793-.062 3.264-1.497 4.035-3.308.293-.687-.25-.972-.507-.576a4.567 4.567 0 01-1.81 1.609c-.844.413-1.745.302-2.018-.384-.384-.966.415-2.411 2.238-3.092 2.634-.975 5.389-.33 8.038.169.039 0 .18.078.054.143-.474.258-.94.47-1.669 1.096-.522.447-1.206 1.042-1.735 1.69-.524.64-.896 1.21-1.388 1.841-.069.093-.153.088-.152.088-1.199.203-2.374.338-3.449 1.085-.223.154-.319.426-.184.635.122.185.398.204.59.064a3.605 3.605 0 012.145-.756c.035.002.05.008.06.028.009.012 0 .037-.011.056-1.183 1.639-1.478 2.01-2.366 3.025a17.44 17.44 0 01-1.402 1.422c-2.017 1.874-4.188 1.843-4.967.667-.464-.706-.403-1.445-.098-2.06.375-.753 1.133-1.304 1.764-1.626.234-.12.301-.42.067-.691-.149-.179-.511-.21-.78-.161-.826.153-1.803.777-2.38 1.53a4.19 4.19 0 00-.866 3.017c.196 2.075 1.904 3.273 3.842 3.26 1.544-.014 2.998-.481 4.745-2.256 1.63-1.656 3.116-4.129 4.507-6.422.043-.074.074-.114.286-.14a52.83 52.83 0 012.984-.28c.185-.011.222-.009.295.083.215.27.539.501.796.64.126.07.186.103.286.106a.36.36 0 00.278-.133c.088-.097.112-.222.066-.303-.05-.084-.625-.404-.643-.532-.013-.081.075-.1.075-.1.424-.133.864-.406 1.131-.917.262-.503.305-1.175-.176-1.548-.42-.327-1.056-.275-1.563.18-.495.442-.661 1.085-.593 1.649.012.097.009.131-.126.142-.764.06-1.498.082-2.316.125-.054.004-.071-.032-.04-.07.941-1.637 2.347-2.801 3.902-3.948.102-.077.071-.224.067-.346 2.807.61 5.52 1.744 8.433 1.721 1.203-.01 2.356-.193 3.457-.798.97-.53 1.364-1.018 1.392-1.526.023-.351-.22-.572-.569-.498-2.943.677-5.749.67-8.678.315-3.32-.403-6.508-1.23-9.812-1.23h-.008l.004-.002zm5.071 5.895a1.18 1.18 0 01.391-1.022c.167-.148.392-.182.532-.063.154.133.081.463-.075.693-.17.252-.462.47-.726.523l-.022.003c-.045-.001-.08-.032-.1-.134z"/></symbol><symbol viewBox="0 0 63 13" id="gmc" xmlns="http://www.w3.org/2000/svg"><path fill-rule="evenodd" clip-rule="evenodd" d="M19.799.024l.016 3.031H4.03c-.342.032-.466.346-.56.597-.03 1.88-.064 6.118.118 5.964l.32.208 12.013.004c.81-.25.578-1.676.623-1.912l-.187-.157-6.288-.031v-2.79L10 4.923h9.892v5.365c-.076 1.203-1.168 2.016-2.288 2.361l-1.9.22-13.084-.004C1.6 12.711.763 12.022.296 10.99-.216 8.223.078 5.282.141 2.553A3.317 3.317 0 011.604.516C2.32.14 3.254.077 4.094.014l15.705.01zm7.447.053a377.629 377.629 0 005.106 9.093l.499-.627L37.613.108h5.292l-.062 12.794c-.308.059-2.273.03-3.394.03V3.526l-.062-.063-5.354 9.376-.187.093-3.163.005-5.026-9.289-.208-.373c.046.186-.022 9.71-.022 9.71-2.584-.024-2.489.085-3.392-.07V.023L27.224 0l.022.077zM62.96.18c.1 1.122-.016 2.377-.016 3.19l-13.804.04c-.343 0-.686.22-.748.563-.062 1.85-.217 3.732.124 5.426 0 0-.144.45.962.38l13.452-.004c.062 1.004-.031 2.043-.031 3.14l-14.873.024c-1.214-.157-2.623-.969-2.902-2.223l-.187-1.505.095-6.365c.217-.91.715-1.944 1.68-2.289.996-.565 1.32-.276 2.536-.37L62.959.18z"/></symbol><symbol viewBox="0 0 67 56" id="honda" xmlns="http://www.w3.org/2000/svg"><path d="M20.362.13C11.21.834 5.51 3.944 2.605 9.823.913 13.235.17 17.144.018 23.38c-.083 3.386.137 11.191.385 13.93.66 7.35 4.116 12.622 10.269 15.665 2.367 1.17 5.534 2.037 8.424 2.34 1.914.193 26.883.193 28.797 0 4.033-.413 8.135-1.845 11.094-3.882 2.89-1.968 5.286-5.203 6.497-8.727.922-2.712 1.156-4.557 1.404-11.343.276-7.433.042-12.609-.715-16.284C64.217 5.623 58.078.984 46.433.117 44.19-.048 22.537-.034 20.363.13zm21.873 3.29c2.477.138 4.804.358 4.9.454.028.028-.784 3.607-1.789 7.957-2.05 8.81-2.45 10.062-4.35 13.958-1.376 2.807-2.243 4.129-3.633 5.506-1.487 1.472-2.381 1.927-3.8 1.927-.894-.014-1.142-.069-1.871-.44-2.616-1.35-5.011-5.01-7.365-11.205-.565-1.487-1.06-3.387-2.547-9.746-1.005-4.35-1.817-7.929-1.789-7.957.44-.44 16.545-.77 22.244-.454zM13.52 5.857c.04.29.482 5.974.977 12.636 2.079 28.246 2.409 32.747 2.409 32.87 0 .331-3.427-.563-4.887-1.279-4.859-2.367-7.39-7.42-8.052-15.981-.18-2.368-.18-8.314 0-12.03.4-8.178 1.528-11.508 4.804-14.138.564-.454 1.28-.991 1.597-1.183.496-.317 2.753-1.376 2.987-1.39.041-.014.124.22.165.495zm41.53-.096c1.348.564 2.036.977 3.385 2.023 3.056 2.368 4.295 5.341 4.86 11.673.247 2.657.33 11.934.15 14.385-.674 8.823-3.166 13.847-8.066 16.242-1.418.688-4.887 1.61-4.887 1.294 0-.096 1.487-20.29 2.754-37.565.509-6.868.646-8.465.756-8.465.015 0 .482.192 1.047.413zM35.338 40.104c3.042.73 4.969 3.029 6.25 7.502.398 1.377.839 3.841.715 3.979-.124.11-16.821.096-16.931-.014-.138-.124.275-2.505.702-4.102.193-.716.688-2.01 1.101-2.863.62-1.266.923-1.721 1.68-2.478 1.871-1.872 4.115-2.575 6.483-2.023z"/></symbol><symbol viewBox="0 0 66 37" id="hyundai" xmlns="http://www.w3.org/2000/svg"><path d="M28.763.075C15.476 1.056 4.788 6.268 1.128 13.562c-.226.45-.57 1.352-.756 1.989-.305.994-.358 1.419-.372 2.89-.013 2.03.253 3.13 1.18 5.04 3.276 6.75 13.222 11.908 25.594 13.274 2.904.318 9.017.331 11.801.013 8.58-.981 15.581-3.487 20.581-7.373 2.944-2.294 4.946-5 5.822-7.903.49-1.645.53-4.111.079-5.703-.703-2.453-2.188-4.786-4.31-6.762C55.774 4.385 48.069 1.336 38.641.275c-2.173-.253-7.69-.359-9.878-.2zm9.88 4.177c1.79.212 4.548.703 6.033 1.074 1.684.41 4.31 1.3 4.27 1.432-.08.252-2.599 2.161-4.8 3.647-9.455 6.365-16.894 7.997-18.314 4.032-.252-.73-.225-2.228.066-3.368.292-1.14 1.579-4.655 2.202-6.047.371-.796.503-.955.822-1.008.863-.16 7.984.026 9.72.238zm-17.04 1.552c-1.273 1.75-2.811 4.416-4.562 7.93-3.142 6.311-4.495 9.507-5.927 14.03-.08.251-1.432-.73-2.772-1.99-4.098-3.872-4.628-8.553-1.459-12.703 1.99-2.586 5.928-5.145 10.21-6.631 1.314-.464 4.629-1.405 5.013-1.446.067-.012-.159.359-.503.81zM57.035 11.4c1.326 1.246 2.413 2.837 2.984 4.349.397 1.021.424 1.22.424 2.758 0 1.525-.027 1.737-.411 2.745-1.233 3.249-4.084 5.914-8.726 8.142a35.425 35.425 0 01-6.79 2.374l-.423.106.848-1.234c2.904-4.163 5.357-9.322 8.646-18.167.53-1.459 1.008-2.732 1.034-2.824.093-.239 1.008.438 2.414 1.75zM37.237 21.637c.875.305 1.698 1.14 1.99 2.016.384 1.127.304 2.732-.24 4.813-.464 1.804-1.299 4.31-1.511 4.522-.225.226-3.568.398-6.392.332-3.262-.093-5.61-.332-8.354-.889-2.917-.583-6.75-1.737-6.803-2.055-.04-.185 2.56-1.976 4.947-3.408 4.734-2.85 9.414-4.88 12.398-5.397.438-.08.942-.172 1.127-.199.61-.107 2.175.04 2.838.265z"/></symbol><symbol viewBox="0 0 67 40" id="infinity" xmlns="http://www.w3.org/2000/svg"><path d="M29.41.135C14.894 1.218 3.335 7.746.606 16.388c-1.03 3.238-.75 6.368.843 9.62.936 1.899 1.766 3.036 3.411 4.681 4.134 4.16 10.515 7.224 18.02 8.695 1.15.228 1.659.281 1.726.174.053-.08 1.953-4.87 4.227-10.621 2.26-5.766 4.16-10.488 4.214-10.488.04 0 1.685 4.856 3.652 10.782L40.272 40l.348-.067c.2-.04.936-.174 1.632-.28 7.785-1.298 15.544-5.031 19.518-9.379 6.782-7.397 5.658-16.12-2.917-22.715C51.963 2.262 40.3-.68 29.41.135zm9.163 2.782c6.568 1.004 11.558 3.171 15.09 6.555 2.569 2.475 3.84 5.11 3.84 8 0 1.017-.375 2.716-.816 3.719-.856 1.967-2.823 4.227-5.097 5.86-2.22 1.605-7.143 3.825-7.544 3.41-.094-.093-2.609-3.88-5.606-8.4-2.983-4.522-5.485-8.228-5.551-8.228-.067 0-2.502 3.706-5.432 8.228-2.916 4.521-5.378 8.307-5.458 8.4-.214.228-1.953-.374-4.227-1.458-5.834-2.795-9.218-7.076-9.232-11.625 0-7.037 8.508-13.297 19.8-14.568.695-.08 1.484-.174 1.738-.2 1.297-.148 6.836.04 8.495.307z"/></symbol><symbol viewBox="0 0 67 27" id="jeep" xmlns="http://www.w3.org/2000/svg"><path d="M11.541 0H17v14.356C17 16.83 15.944 22 8.38 22 .82 22 0 17.18 0 14.466v-2.645h5.277v2.593c0 1.586 1.04 3.06 3.046 3.06 1.994 0 3.218-1.12 3.218-3.008V0zm13.555 6C29.299 6 33 7.62 33 15.057h-9.978c0 2.373.982 3.353 2.71 3.353 1.722 0 2.303-1.38 2.303-1.38h4.904c0 2.134-2.939 5.015-7.383 4.97C20.486 22 18 18.238 18 14.377 18 10.51 20.203 6 25.096 6zm3.002 6.062c0-1.443-.806-2.831-2.653-2.831-1.793 0-2.423 1.279-2.423 2.83h5.076zM41.571 6C46.06 6 50 7.62 50 15.057H39.36c0 2.373 1.045 3.353 2.89 3.353 1.85 0 2.457-1.38 2.457-1.38h5.225c0 2.134-3.128 5.015-7.865 4.97C36.651 22 34 18.238 34 14.377 34 10.51 36.339 6 41.571 6zm3.203 6.062c0-1.443-.865-2.831-2.83-2.831-1.911 0-2.583 1.279-2.583 2.83h5.413zM51 27V6.42h5.043v2.338c.176-.389.307-.66.697-1.148.338-.417 1.287-1.61 3.813-1.61C63.073 6 67 7.789 67 14.117c0 4.89-2.34 8.469-6.388 8.469-2.233 0-3.229-.79-3.814-1.248a3.145 3.145 0 01-.696-.724V27H51zm4.98-12.705c-.058 3.043.587 4.644 3.05 4.644 2.459 0 2.82-2.735 2.82-4.822 0-2.09-.477-4.114-3.056-4.114-1.577 0-2.75 1.247-2.815 4.292z"/></symbol><symbol viewBox="0 0 67 33" id="kia" xmlns="http://www.w3.org/2000/svg"><path d="M31.652 32.976a67.539 67.539 0 01-6.84-.536c-9.235-1.22-16.973-4.33-21.28-8.551C1.705 22.099.547 20.13.157 18.154.03 17.51 0 17.194 0 16.5s.03-1.01.157-1.654c.257-1.3.866-2.64 1.766-3.881 2.033-2.81 5.602-5.31 10.284-7.207C20.01.596 30.229-.657 40.179.33c11.68 1.158 21.29 5.343 25.102 10.936 1.743 2.556 2.17 5.333 1.237 8.046-.538 1.568-1.585 3.134-3.058 4.578-4.08 4-11.264 7.017-19.885 8.35-3.856.598-7.831.843-11.923.737zm5.094-2.11c4.676-.285 8.624-.96 12.47-2.133 3.053-.93 5.899-2.218 8.083-3.658 1.101-.726 1.865-1.338 2.728-2.189 1.026-1.01 1.688-1.895 2.227-2.98.603-1.212.836-2.163.836-3.406 0-1.25-.248-2.252-.86-3.46-.527-1.046-1.2-1.94-2.203-2.926-1.47-1.448-3.219-2.643-5.529-3.778-4.324-2.126-9.734-3.517-15.761-4.052a61.9 61.9 0 00-10.48 0c-8.475.749-15.749 3.22-20.25 6.876-.57.464-1.588 1.473-2.015 1.998-1.525 1.878-2.245 3.904-2.081 5.856.179 2.127 1.154 4.002 3.054 5.872 1.439 1.417 3.15 2.595 5.376 3.7 5.067 2.516 11.294 3.958 18.617 4.312.827.04 4.982.017 5.788-.032zM12.992 24.84a.51.51 0 01-.146-.11c-.073-.078-.073-.136-.083-7.757l-.01-7.677-.096-.1c-.091-.093-.117-.1-.465-.109l-.369-.01v-.968l2.654-.01 2.654-.009.112.093.113.094v2.768c0 3.04-.009 2.927.214 2.927.138 0 .186-.057.956-1.13 2.04-2.842 3.161-4.388 3.262-4.496.25-.264.136-.253 2.718-.254l2.31-.001.09.086c.108.107.148.252.099.356-.031.066-1.031 1.524-4.523 6.596-.382.554-.488.734-.488.825.002.094.25.46 1.308 1.927 4.68 6.485 4.695 6.506 4.709 6.637.011.099-.007.154-.077.234l-.091.104-2.415.01c-2.38.01-2.416.009-2.59-.065a.94.94 0 01-.27-.171 270.96 270.96 0 01-2.445-3.342c-1.295-1.785-2.38-3.267-2.413-3.293-.09-.073-.254-.038-.308.065-.035.07-.046.801-.046 3.343v3.252l-.089.1-.088.101-2.057.007c-1.131.004-2.09-.006-2.13-.023zm18.33-.016a.346.346 0 01-.155-.144c-.035-.075-.045-1.781-.045-7.736v-7.64l-.106-.104c-.103-.102-.119-.105-.457-.105h-.35V8.091h5.403l.12.104.119.105v16.357l-.101.1-.101.099-2.108.008c-1.688.006-2.13-.002-2.219-.04zm7.852.006c-.113-.063-.161-.143-.162-.268-.001-.064.517-1.637 1.151-3.496l2.242-6.573a1869.8 1869.8 0 011.403-4.104c.173-.501.315-.955.315-1.009a.336.336 0 00-.07-.182c-.062-.076-.107-.087-.429-.103l-.36-.018-.01-.493-.01-.493h3.242c2.128 0 3.289.014 3.378.038.075.02.155.07.177.111.046.084.41 1.14 2.123 6.163 2.787 8.172 3.425 10.058 3.425 10.136 0 .126-.073.252-.17.295-.062.028-.71.04-2.123.04-1.865 0-2.045-.005-2.16-.063a.646.646 0 01-.192-.153c-.037-.05-.32-.864-.63-1.81-2.947-9.022-2.866-8.776-2.932-8.849-.073-.08-.129-.08-.204.003-.06.065-.174.408-1.777 5.367a3062.93 3062.93 0 01-1.535 4.743c-.165.514-.238.636-.423.712-.161.066-4.152.072-4.269.006z"/></symbol><symbol viewBox="0 0 41 41" id="lighting" xmlns="http://www.w3.org/2000/svg"><path d="M36 12h5v2h-5v-2zM0 12h5v2H0v-2zm39 10.144L37.656 24 33 21.856 34.344 20 39 22.144zM6.656 6L2 3.856 3.344 2 8 4.144 6.656 6zM33 4.144L37.656 2 39 3.856 34.344 6 33 4.144zM3.344 24L2 22.144 6.656 20 8 21.856 3.344 24zM17.603.295C12.305 1.377 8.127 5.632 7.205 10.88c-1.06 6.043 2.095 11.55 7.159 14.09v4.019h-2.455v2.402h2.455v2.403h-2.455v2.402h4.91V41h7.363v-4.805h4.909v-2.402h-2.455V31.39h2.455v-2.402h-2.455v-4.019C31.136 22.72 34 18.19 34 13.212 34 4.884 26.212-1.465 17.603.295zm4.124 38.303h-2.454v-2.403h2.454v2.403zm2.455-4.805h-7.364V31.39h7.364v2.403zm.735-10.684l-.735.315v5.564h-7.364v-5.564l-.735-.314c-4.673-2.002-7.33-6.864-6.459-11.823.752-4.285 4.16-7.758 8.481-8.64 7.066-1.445 13.44 3.746 13.44 10.565 0 4.288-2.601 8.172-6.628 9.897z"/><path d="M23.567 7.555L21.844 6 16 14.245h4.411l-2.978 4.2L19.156 20 25 11.755h-4.411l2.978-4.2z"/></symbol><symbol viewBox="0 0 36 34" id="manuals" xmlns="http://www.w3.org/2000/svg"><path d="M18 3.953V33l10.18-2.929 5.256-.066L35 27.76V2.67L31.75 1 18 3.953z"/><path d="M32.655.003c-4.474-.067-9.265.91-14.649 2.969C12.604.914 7.806-.045 3.357.003a3.378 3.378 0 00-2.37.982A3.342 3.342 0 000 3.342v24.285c.005.884.36 1.73.989 2.356.628.625 1.48.978 2.368.983 4.334-.06 9.015.917 14.301 2.975a.982.982 0 00.672 0c5.28-2.058 9.949-3.036 14.313-2.975a3.39 3.39 0 002.367-.985c.628-.625.984-1.47.99-2.354V3.342a3.336 3.336 0 00-.98-2.355 3.372 3.372 0 00-2.365-.984zM3.357 29.145a1.536 1.536 0 01-1.077-.447 1.52 1.52 0 01-.449-1.071V3.342a1.52 1.52 0 01.449-1.071 1.536 1.536 0 011.077-.446c4.15-.055 8.65.85 13.721 2.762v27.199a39.014 39.014 0 00-13.33-2.641h-.39zm30.824-1.518a1.526 1.526 0 01-.45 1.07 1.542 1.542 0 01-1.076.448c-4.236-.061-8.747.82-13.745 2.64V4.588c5.078-1.906 9.576-2.811 13.745-2.762a1.517 1.517 0 011.526 1.517v24.285z"/></symbol><symbol viewBox="0 0 68 56" id="mazda" xmlns="http://www.w3.org/2000/svg"><path d="M29.244.085C23.307.47 17.616 1.43 14.777 2.5 7.618 5.2 2.325 12.085.529 21.039c-1.002 5.033-.563 11.3 1.165 16.635.631 1.934 2.427 5.54 3.539 7.09 1.782 2.482 4.21 4.785 6.349 6.047 3.51 2.085 9.338 3.717 15.88 4.471 2.304.261 9.9.22 12.547-.068 8.064-.892 13.645-2.634 17.348-5.404 5.979-4.484 9.352-11.56 9.97-20.913.561-8.406-2.29-16.565-7.597-21.776-4.032-3.977-8.256-5.637-16.663-6.569C38.885.085 32.508-.134 29.244.085zM38.61 4.31c6.487.672 12.63 2.579 15.689 4.855.52.384 1.206 1.07 1.549 1.536.864 1.18 1.275 2.66.85 3.167-.083.11-1.029.562-2.084 1.002-6.02 2.51-11.862 5.636-14.948 8.008-2.097 1.605-5.019 5.294-5.705 7.2-.096.274-.219.494-.26.494-.055 0-.178-.261-.288-.577-.44-1.357-3.223-5.032-4.882-6.459-2.84-2.454-8.736-5.704-15.606-8.612-2.51-1.056-2.565-1.11-2.277-2.373.357-1.577 1.742-3.085 4.046-4.388 3.222-1.824 9.229-3.442 14.59-3.908 2.154-.191 7.187-.164 9.326.055zM8.674 22.411c1.303 1.275 3.497 2.153 9.407 3.771 3.415.933 4.471 1.33 5.924 2.235 2.825 1.77 4.54 3.895 6.912 8.544.617 1.193 1.316 2.386 1.55 2.62.397.41.52.452 1.234.452.713 0 .836-.041 1.22-.439.234-.233.933-1.426 1.55-2.633 2.482-4.813 4.114-6.802 7.103-8.64 1.385-.85 2.592-1.302 5.829-2.139 5.416-1.399 7.816-2.345 9.188-3.592.658-.59.918-.988 1.645-2.496.48-.988.878-1.673.878-1.522.014.453-.26 3.99-.48 6.24-.713 7.253-1.783 11.888-3.565 15.372-3.086 6.034-8.694 9.311-17.951 10.49-2.633.343-8.694.343-11.245 0-6.815-.891-11.45-2.853-14.714-6.24-3.237-3.332-4.993-8.145-6.048-16.606-.302-2.414-.63-5.91-.755-8.16l-.082-1.371.837 1.7c.644 1.317 1.001 1.879 1.563 2.414z"/></symbol><symbol viewBox="0 0 67 68" id="mercedes-benz" xmlns="http://www.w3.org/2000/svg"><path d="M31.16.035c-.26.028-1.073.124-1.789.207-12.69 1.445-23.686 10.46-27.733 22.765C.468 26.557 0 29.57 0 33.535c0 2.96.137 4.377.688 7.033 2.67 12.827 12.951 23.11 25.78 25.779 2.655.55 4.073.688 7.032.688 2.959 0 4.377-.137 7.033-.688 12.827-2.67 23.109-12.952 25.778-25.779.552-2.656.689-4.074.689-7.033 0-3.84-.427-6.771-1.514-10.198C61.591 11.047 51.076 2.183 38.111.284c-1.335-.194-5.987-.359-6.95-.249zm7.542 3.359c11.837 2.023 21.457 10.86 24.389 22.42.73 2.863.88 4.17.88 7.652 0 4.088-.302 5.974-1.582 9.772-.51 1.5-2.01 4.776-2.203 4.804-.041.013-4.9-4.13-10.79-9.208-5.89-5.079-10.762-9.263-10.831-9.304-.097-.055-4.515-25.944-4.515-26.467 0-.179 2.78.014 4.652.33zM32.95 3.16c0 .165-4.267 26.99-4.295 27.003-.027.014-4.858 4.13-10.763 9.167-5.89 5.023-10.763 9.152-10.817 9.18-.124.04-1.184-2.106-1.762-3.565-1.61-4.06-2.34-8.162-2.189-12.373.18-4.734 1.156-8.602 3.235-12.731C10.749 11.1 19.24 4.907 28.82 3.476c2.023-.303 4.129-.454 4.129-.316zM45.667 43.5c6.743 2.381 12.676 4.473 13.199 4.638.509.18.922.386.922.44 0 .07-.344.66-.77 1.308-3.51 5.395-8.589 9.552-14.494 11.85-5.918 2.312-12.525 2.698-18.69 1.102-6.277-1.61-12.113-5.423-16.131-10.502-.95-1.197-2.189-2.986-2.243-3.248-.028-.096 4.886-2.023 12.827-5.023 7.074-2.67 12.924-4.86 12.993-4.873.068-.014 5.643 1.927 12.387 4.308z"/></symbol><symbol viewBox="0 0 35 35" id="modify" xmlns="http://www.w3.org/2000/svg"><path d="M23.397 22.43a.684.684 0 00-.966 0 6.937 6.937 0 01-7.706 1.469.684.684 0 00-.543 1.254 8.315 8.315 0 004.815.552 8.293 8.293 0 004.4-2.308.684.684 0 000-.967zm-10.804.025a.684.684 0 10-1.014.918.684.684 0 001.014-.918z"/><path d="M17.5 6.219c-6.22 0-11.281 5.06-11.281 11.281 0 6.22 5.06 11.281 11.281 11.281 6.22 0 11.281-5.06 11.281-11.281 0-6.22-5.06-11.281-11.281-11.281zm0 21.195c-5.467 0-9.914-4.448-9.914-9.914 0-5.466 4.447-9.914 9.914-9.914a9.87 9.87 0 016.286 2.253l-3.642 1.782a.683.683 0 00-.183.131l-4.104 4.105-.029.03a2.315 2.315 0 00-.652 1.613 2.327 2.327 0 002.324 2.324c.626 0 1.194-.249 1.612-.652.01-.01.022-.018.032-.029l4.104-4.104a.685.685 0 00.13-.183l1.783-3.642a9.868 9.868 0 012.253 6.286c0 5.467-4.447 9.914-9.914 9.914zm.82-12.088l2.527-2.527 2.65-1.297-1.296 2.65-2.527 2.527a2.336 2.336 0 00-1.353-1.353zm.137 2.174a.958.958 0 01-1.914 0 .958.958 0 011.914 0z"/><path d="M34.316 13.809H32.13a14.94 14.94 0 00-1.675-4.042L32 8.219a.684.684 0 000-.967L27.748 3a.684.684 0 00-.967 0l-1.548 1.547a14.938 14.938 0 00-4.042-1.675V.684A.684.684 0 0020.508 0h-6.016a.684.684 0 00-.683.684V2.87a14.95 14.95 0 00-4.042 1.675L8.219 3a.684.684 0 00-.967 0L3 7.252a.684.684 0 000 .967l1.547 1.548a14.945 14.945 0 00-1.675 4.042H.684a.684.684 0 00-.684.683v6.016c0 .377.306.683.684.683H2.87a14.92 14.92 0 001.676 4.042l-1.548 1.548a.684.684 0 000 .966l4.254 4.254a.684.684 0 00.966 0l1.548-1.547a14.938 14.938 0 004.042 1.675v2.187c0 .378.306.684.683.684h6.016a.684.684 0 00.684-.684V32.13a14.956 14.956 0 004.041-1.675L26.781 32a.684.684 0 00.967 0L32 27.748a.684.684 0 000-.967l-1.547-1.548a14.935 14.935 0 001.675-4.042h2.187a.684.684 0 00.684-.683v-6.016a.684.684 0 00-.684-.683zm-.683 6.015h-2.048a.684.684 0 00-.668.542 13.591 13.591 0 01-1.904 4.594.684.684 0 00.09.856l1.448 1.448-3.287 3.287-1.448-1.448a.684.684 0 00-.856-.09 13.596 13.596 0 01-4.594 1.904.684.684 0 00-.542.668v2.048h-4.648v-2.048a.684.684 0 00-.542-.668 13.591 13.591 0 01-4.594-1.904.684.684 0 00-.856.09L7.736 30.55l-3.287-3.287 1.449-1.448a.684.684 0 00.09-.856 13.594 13.594 0 01-1.905-4.594.684.684 0 00-.668-.542H1.367v-4.648h2.047a.684.684 0 00.67-.542 13.585 13.585 0 011.903-4.594.684.684 0 00-.09-.856L4.45 7.736l3.287-3.287 1.448 1.449a.683.683 0 00.856.09 13.593 13.593 0 014.594-1.905.684.684 0 00.542-.668V1.367h4.648v2.047c0 .323.226.602.542.67 1.639.348 3.185.988 4.594 1.903.27.176.627.139.856-.09l1.448-1.448 3.287 3.287-1.448 1.448a.684.684 0 00-.09.856 13.594 13.594 0 011.904 4.594.683.683 0 00.668.542h2.048v4.648z"/><path d="M9.913 16.816h-.548a.684.684 0 000 1.368h.548a.684.684 0 000-1.368zm2.719-5.151l-.4-.4a.684.684 0 00-.968.966l.401.401a.681.681 0 00.967 0 .684.684 0 000-.967zM17.5 8.682a.684.684 0 00-.684.683v.392a.684.684 0 001.368 0v-.392a.684.684 0 00-.684-.683zm8.135 8.134h-.392a.684.684 0 100 1.368h.392a.684.684 0 000-1.368z"/></symbol><symbol viewBox="0 0 67 47" id="nissan" xmlns="http://www.w3.org/2000/svg"><path fill-rule="evenodd" clip-rule="evenodd" d="M2.084 14.124a1.88 1.88 0 00-1.368.56A2.102 2.102 0 000 16.197v13.848c.002.515.206 1.007.57 1.372a2.02 2.02 0 001.514.684h62.974a1.866 1.866 0 001.368-.684c.358-.2.573-.688.573-1.372V16.18a2.149 2.149 0 00-.573-1.515 1.92 1.92 0 00-1.368-.54H2.084zm14.267 3.854h2.865v10.27h-2.865v-10.27zm-12.64 0h4.68l3.137 7.807v-7.807h2.883v10.27H9.873l-3.28-8.075v8.075H3.728v-10.27H3.71zm19.925 0h5.908v2.31h-5.776v1.654h2.997c2.482 0 3.71 1.028 3.71 3.17a3.438 3.438 0 01-.827 2.31 3.191 3.191 0 01-2.055.826H21v-2.31h6.446v-1.654h-3.134c-1.17 0-2.055-.286-2.625-.827-.57-.54-.802-1.433-.802-2.597 0-1.163.2-1.854.66-2.198.482-.484 1.166-.684 2.08-.684h.01zm16.322 0v2.31h-5.773v1.654h2.994c2.482 0 3.71 1.028 3.71 3.17a3.14 3.14 0 01-.942 2.31 2.697 2.697 0 01-2.055.826h-6.306v-2.31h6.306v-1.654h-3.155c-1.286 0-2.256-.358-2.865-1.114a3.546 3.546 0 01-.716-2.31c0-1.027.286-1.79.827-2.198.484-.484 1.171-.684 2.056-.684h5.92zm4.251 0h4.25l3.71 10.27h-3.022l-.544-1.912h-4.405l-.54 1.912h-3.026l3.58-10.27h-.003zm8.505 0h4.82l2.987 7.807v-7.807h3.026v10.27H59.04l-3.456-8.075v8.075h-2.865v-10.27h-.004z"/><path fill-rule="evenodd" clip-rule="evenodd" d="M45.026 24.14h2.74l-1.369-3.852-1.371 3.853zM21.4 3.582a22.99 22.99 0 00-8.361 9.174h41.036A22.525 22.525 0 0033.641 0a22.321 22.321 0 00-12.24 3.582zM13.039 33.47a22.805 22.805 0 008.362 9.189 22.562 22.562 0 0012.24 3.452 22.461 22.461 0 0012.212-3.452c3.767-2.453 6.507-5.537 8.236-9.19H13.04z"/></symbol><symbol viewBox="0 0 13 15" id="play" xmlns="http://www.w3.org/2000/svg"><path d="M12 5.768c1.333.77 1.333 2.694 0 3.464l-8.25 4.763c-1.333.77-3-.192-3-1.732V2.737c0-1.54 1.667-2.502 3-1.732L12 5.768z"/></symbol><symbol viewBox="0 0 68 17" id="ram" xmlns="http://www.w3.org/2000/svg"><path d="M.45 17a.474.474 0 01-.318-.122.398.398 0 01-.132-.293v-9.17C0 7.187.202 7 .45 7h4.1c.248 0 .45.187.45.415v9.17c0 .228-.202.415-.45.415H.45z"/><path d="M.546.019h13.781c6.702.873 6.906 10.162.855 11.943l4.101 4.086c.29.244.394.68-.136.715h-6.002L5.572 8.818l-.004-.629h6.842c2.222-.07 2.77-4.435-.136-4.47H.546C.17 3.718 0 3.631 0 3.194V.576C-.002.21.101.02.546.02zm45.478 16.832h3.788c.239 0 .426-.095.417-.47l.004-5.808c.005-.34.33-.402.494-.079l3.146 5.937c.13.306.359.418.726.418h3.924c.496 0 .47-.122.667-.444l3.214-5.982c.206-.35.496-.244.496.036l.002 6.113c-.002.366.136.428.443.428h4.233c.332.009.444-.122.418-.507V.498c.01-.28-.077-.507-.41-.498h-4.103c-.239 0-.478.036-.752.49l-5.71 10.528c-.341.523-.786.35-.992-.036L50.49.462c-.17-.313-.274-.454-.854-.454h-3.591c-.41 0-.513.105-.513.563v15.676c-.004.36.08.604.492.604zm-25.879-.591L29.486.447c.129-.238.19-.448.566-.448h3.975c.291.01.378.106.533.448l9.35 16.057c.153.255.12.493-.162.493h-4.542c-.206 0-.41 0-.514-.245l-.925-1.724a.634.634 0 00-.212-.271.61.61 0 00-.32-.116H26.54c-.24 0-.377.113-.488.325l-.908 1.625c-.153.229-.159.408-.466.408l-4.267-.006c-.53-.022-.463-.42-.266-.735z"/></symbol><symbol viewBox="0 0 26 27" id="search" xmlns="http://www.w3.org/2000/svg"><path d="M10 19a9 9 0 100-18 9 9 0 000 18z"/><path d="M14.2 18.5l5.7 5.7c1.2 1.2 3.1 1.2 4.2 0 1.2-1.2 1.2-3.1 0-4.2l-4.2-4.2"/></symbol><symbol viewBox="0 0 43 43" id="specs" xmlns="http://www.w3.org/2000/svg"><path d="M21.5 1.265A20.235 20.235 0 1041.735 21.5 20.257 20.257 0 0021.5 1.265zm0 36.501A16.266 16.266 0 1137.766 21.5 16.284 16.284 0 0121.5 37.766z"/><path d="M21.844 12.593c.188.022.374.05.558.085l1.482-2.783v-.002l-.088-.017a4.043 4.043 0 00-.15-.029 3.11 3.11 0 00-.165-.028 2.492 2.492 0 00-.127-.022 2.05 2.05 0 00-.11-.016l-.176-.025a5.725 5.725 0 00-.41-.046 3.156 3.156 0 00-.17-.015 9.848 9.848 0 00-.35-.024l-.035-.003a9.656 9.656 0 00-.603-.015 11.843 11.843 0 00-7.77 20.784v-.001l.736-.846a11.524 11.524 0 01-1.136-1.34 10.678 10.678 0 01-.89-1.487 9.912 9.912 0 01-.628-1.595 9.484 9.484 0 01-.351-1.654c-.015-.14-.041-.277-.046-.418l-.029-.419c-.006-.14-.003-.28-.006-.418 0-.07-.003-.14-.002-.209l.01-.209c.008-.14.008-.278.023-.416l.04-.414c.04-.274.076-.547.136-.814a9.65 9.65 0 011.166-3.018 9.53 9.53 0 014.68-4.014 9.134 9.134 0 014.411-.572z"/><path d="M26.456 10.829a1.016 1.016 0 00-1.014.084 1.048 1.048 0 00-.32.352l-4.12 7.128-.18.039a3.103 3.103 0 00-2.187 1.754 3.153 3.153 0 105.639-.16l-.087-.161 2.81-7.737a1.054 1.054 0 00-.541-1.3zm4.676 6.628c.124-.061.237-.144.332-.245a1.437 1.437 0 10-1.223.412c.307.043.62-.016.89-.167zm2.094 4.489a1.234 1.234 0 00-2.423.472 1.224 1.224 0 001.092.989l.014.002c.113.015.229.01.34-.015a1.236 1.236 0 00.977-1.448zm-2.944 5.336a1.007 1.007 0 00-.403-.083 1.036 1.036 0 00-.95.627 1.02 1.02 0 00.29 1.192l.02.02a1.029 1.029 0 001.594-1.19 1.03 1.03 0 00-.551-.566z"/></symbol><symbol viewBox="0 0 67 44" id="toyota" xmlns="http://www.w3.org/2000/svg"><path d="M33.5 0C14.992 0 0 9.842 0 22s14.992 22 33.5 22S67 34.158 67 22 52.008 0 33.5 0zm0 2.605c10.832 0 19.584 3.184 19.584 7.092 0 2.895-4.878 5.428-11.837 6.514-1.147-7.6-4.16-13.1-7.747-13.1-3.587 0-6.6 5.5-7.747 13.1-6.959-1.086-11.837-3.619-11.837-6.514 0-3.908 8.752-7.092 19.584-7.092zm4.591 14.04a48.001 48.001 0 01-4.663.217c-1.65 0-3.156-.072-4.662-.217.717-4.921 2.51-8.323 4.662-8.323s3.946 3.402 4.663 8.323zm-6.815 25.112c-14.992-.724-26.828-9.698-26.828-20.553 0-3.69 1.362-7.165 3.73-10.132V11c.215 4.993 7.245 9.263 17 10.783v1.013c.072 9.119 2.655 16.79 6.098 18.96zm2.224-6.803c-2.654 0-4.878-5.645-5.021-12.737 1.65.145 3.3.217 5.021.217 1.722 0 3.371-.072 5.021-.217-.143 7.092-2.367 12.737-5.021 12.737zm2.152 6.803c3.443-2.244 6.026-9.842 6.026-18.96v-1.014c9.756-1.52 16.857-5.79 17-10.783v.072c2.368 2.968 3.731 6.441 3.731 10.132.072 10.855-11.764 19.829-26.757 20.553z"/></symbol><symbol viewBox="0 0 67 68" id="volkswagen" xmlns="http://www.w3.org/2000/svg"><path d="M33.5 0C15.067 0 0 15.068 0 33.532c0 18.434 15.068 33.47 33.5 33.47 18.433 0 33.5-15.037 33.5-33.47C67 15.069 51.933.002 33.5 0zm0 4.75c2.517 0 5.001.315 7.36.944l-7.265 20.101-7.298-20.133a28.648 28.648 0 017.202-.912zM4.716 33.532c0-3.365.567-6.575 1.637-9.562l13.338 34.758C10.757 53.852 4.717 44.353 4.717 33.532zm28.782 28.75c-2.674 0-5.253-.344-7.706-1.038l.03-.598 7.425-19.25 7.425 19.25.093.723a29.145 29.145 0 01-7.267.912zm5.537-26.988H27.49L23.089 46.68 11.072 15.507a29.157 29.157 0 018.114-6.952l8.462 23.31H39.54L47.968 8.65a28.89 28.89 0 017.612 6.48L43.439 46.68l-4.402-11.386zm7.706 23.748l13.684-35.701c1.195 3.176 1.824 6.605 1.824 10.192 0 11.07-6.321 20.698-15.508 25.51z"/></symbol><symbol viewBox="0 0 62 61" id="volvo" xmlns="http://www.w3.org/2000/svg"><path d="M46.718.12c.066.065.897.659 1.833 1.332.95.673 1.914 1.359 2.15 1.543l.423.317-1.478 1.675c-.817.924-1.49 1.69-1.503 1.715-.014.026-.66-.382-1.452-.897-3.984-2.599-8.482-4.143-13.482-4.63-1.622-.158-4.09-.027-6.82.356-11.213 1.57-20.724 9.59-24.194 20.421C1.165 25.144.81 27.546.81 31.134c0 2.783.184 4.498.712 6.793 2.375 10.184 10.04 18.509 19.973 21.688C24.687 60.644 27.088 61 30.676 61c4.934 0 8.839-.897 13.166-3.021 8.97-4.406 14.934-12.598 16.464-22.625.29-1.86.33-6.226.078-7.98-.673-4.657-2.308-9.063-4.696-12.639l-.87-1.306 1.583-1.833 1.57-1.847 1.478 2.216c.804 1.214 1.517 2.269 1.583 2.348.065.066.118-2.98.118-7.097V0h-7.282c-4.195 0-7.23.054-7.15.12zM33.051 11.622c5.21.646 10.105 3.482 13.205 7.664.739 1.003 1.69 2.573 2.058 3.43l.158.37H12.88l.158-.37c.37-.857 1.32-2.427 2.058-3.43 3.06-4.115 8.008-7.018 13.074-7.664 1.266-.158 3.6-.171 4.88 0zm15.276 27.65c-.37.844-1.49 2.678-2.19 3.589-7.163 9.366-20.804 10.276-29.194 1.979-1.543-1.53-3.153-3.826-3.905-5.554l-.158-.37h35.606l-.16.356z"/></symbol><symbol viewBox="0 0 44 44" id="wheel" xmlns="http://www.w3.org/2000/svg"><path d="M43.437 26.996c.335-1.443.528-2.94.563-4.477h-.922v-1.246h.917a22.022 22.022 0 00-.603-4.465l-.87.234-.323-1.204.869-.232a21.892 21.892 0 00-1.74-4.15l-.762.439-.623-1.079.754-.435a22.142 22.142 0 00-2.751-3.551l-.6.6-.882-.88.598-.598A22.099 22.099 0 0033.5 3.225l-.42.726L32 3.328l.419-.725A21.891 21.891 0 0028.272.895l-.214.8-1.205-.323.214-.796A22.049 22.049 0 0022.623 0v.815h-1.246V0c-1.526.042-3.012.24-4.444.577l.213.795-1.204.323-.213-.8a21.896 21.896 0 00-4.146 1.708l.417.725-1.079.623-.419-.726A22.05 22.05 0 006.94 5.952l.597.597-.881.88-.6-.6a22.105 22.105 0 00-2.751 3.552l.753.434-.623 1.08-.761-.44a21.916 21.916 0 00-1.74 4.15l.868.232-.322 1.204-.87-.233a21.97 21.97 0 00-.604 4.465h.916v1.246H0c.035 1.536.229 3.033.563 4.477l.916-.246.322 1.204-.923.247a21.879 21.879 0 001.71 4.184l.845-.488.624 1.08-.85.49a22.108 22.108 0 002.746 3.596l.7-.7.882.88-.704.704a22.119 22.119 0 003.583 2.772l.507-.877 1.079.623-.51.884a21.864 21.864 0 004.186 1.74l.266-.991 1.204.322-.266.99c1.45.346 2.953.547 4.497.59v-1.023h1.245V44a22.023 22.023 0 004.497-.59l-.265-.99 1.203-.323.266.992a21.87 21.87 0 004.186-1.74l-.51-.885 1.08-.622.506.877c1.29-.8 2.488-1.73 3.582-2.772l-.703-.704.881-.88.701.7a22.103 22.103 0 002.747-3.596l-.85-.49.623-1.08.846.488a21.788 21.788 0 001.709-4.184l-.922-.247.322-1.204.916.246zM22 34.046c-6.652 0-12.045-5.393-12.045-12.046S15.348 9.954 22 9.954c6.653 0 12.045 5.393 12.045 12.046S28.653 34.047 22 34.047z"/><path d="M22 12.03c-5.506 0-9.969 4.464-9.969 9.97s4.463 9.97 9.969 9.97c5.505 0 9.968-4.464 9.968-9.97S27.505 12.03 22 12.03zM17.047 26.3a1.245 1.245 0 11-1.245-2.157 1.245 1.245 0 011.245 2.157zm.457-6.895a1.246 1.246 0 11-2.159-1.246 1.246 1.246 0 012.159 1.246zM22 29.684a1.246 1.246 0 110-2.492 1.246 1.246 0 010 2.493zm0-12.877a1.246 1.246 0 110-2.492 1.246 1.246 0 010 2.492zm6.654 9.035a1.246 1.246 0 11-2.158-1.245 1.246 1.246 0 012.158 1.245zm-.456-5.982a1.246 1.246 0 11-1.246-2.16 1.246 1.246 0 011.246 2.16z"/></symbol></svg>