<?xml version="1.0" encoding="utf-8"?><svg xmlns="http://www.w3.org/2000/svg" xmlns:xlink="http://www.w3.org/1999/xlink"><symbol viewBox="0 0 10 5" id="arrow-down" xmlns="http://www.w3.org/2000/svg"><path d="M0 0l5 5 5-5H0z"/></symbol><symbol viewBox="0 0 9 9" id="arrow-first-page" xmlns="http://www.w3.org/2000/svg"><path d="M4 9L0 4.5 4 0v9zm5 0L4 4.5 9 0v9z"/></symbol><symbol viewBox="0 0 9 9" id="arrow-last-page" xmlns="http://www.w3.org/2000/svg"><path d="M5 9l4-4.5L5 0v9zM0 9l5-4.5L0 0v9z"/></symbol><symbol viewBox="0 0 16 16" id="arrow-left" xmlns="http://www.w3.org/2000/svg"><path d="M15 8H1m7-7L1 8l7 7"/></symbol><symbol viewBox="0 0 4 9" id="arrow-next-page" xmlns="http://www.w3.org/2000/svg"><path d="M0 9l4-4.5L0 0v9z"/></symbol><symbol viewBox="0 0 4 9" id="arrow-prev-page" xmlns="http://www.w3.org/2000/svg"><path d="M4 9L0 4.5 4 0v9z"/></symbol><symbol viewBox="0 0 16 16" id="arrow-right" xmlns="http://www.w3.org/2000/svg"><path d="M1 8h14M8 1l7 7-7 7"/></symbol><symbol viewBox="0 0 16 9" id="caret-down" xmlns="http://www.w3.org/2000/svg"><path d="M1 1l7 7 7-7"/></symbol><symbol viewBox="0 0 512 512" id="close" xmlns="http://www.w3.org/2000/svg"><path d="M437.5 386.6L306.9 256l130.6-130.6c14.1-14.1 14.1-36.8 0-50.9-14.1-14.1-36.8-14.1-50.9 0L256 205.1 125.4 74.5c-14.1-14.1-36.8-14.1-50.9 0-14.1 14.1-14.1 36.8 0 50.9L205.1 256 74.5 386.6c-14.1 14.1-14.1 36.8 0 50.9 14.1 14.1 36.8 14.1 50.9 0L256 306.9l130.6 130.6c14.1 14.1 36.8 14.1 50.9 0 14-14.1 14-36.9 0-50.9z"/></symbol><symbol viewBox="0 0 41 41" id="lighting" xmlns="http://www.w3.org/2000/svg"><path d="M36 12h5v2h-5v-2zM0 12h5v2H0v-2zm39 10.144L37.656 24 33 21.856 34.344 20 39 22.144zM6.656 6L2 3.856 3.344 2 8 4.144 6.656 6zM33 4.144L37.656 2 39 3.856 34.344 6 33 4.144zM3.344 24L2 22.144 6.656 20 8 21.856 3.344 24zM17.603.295C12.305 1.377 8.127 5.632 7.205 10.88c-1.06 6.043 2.095 11.55 7.159 14.09v4.019h-2.455v2.402h2.455v2.403h-2.455v2.402h4.91V41h7.363v-4.805h4.909v-2.402h-2.455V31.39h2.455v-2.402h-2.455v-4.019C31.136 22.72 34 18.19 34 13.212 34 4.884 26.212-1.465 17.603.295zm4.124 38.303h-2.454v-2.403h2.454v2.403zm2.455-4.805h-7.364V31.39h7.364v2.403zm.735-10.684l-.735.315v5.564h-7.364v-5.564l-.735-.314c-4.673-2.002-7.33-6.864-6.459-11.823.752-4.285 4.16-7.758 8.481-8.64 7.066-1.445 13.44 3.746 13.44 10.565 0 4.288-2.601 8.172-6.628 9.897z"/><path d="M23.567 7.555L21.844 6 16 14.245h4.411l-2.978 4.2L19.156 20 25 11.755h-4.411l2.978-4.2z"/></symbol><symbol viewBox="0 0 36 34" id="manuals" xmlns="http://www.w3.org/2000/svg"><path d="M18 3.953V33l10.18-2.929 5.256-.066L35 27.76V2.67L31.75 1 18 3.953z"/><path d="M32.655.003c-4.474-.067-9.265.91-14.649 2.969C12.604.914 7.806-.045 3.357.003a3.378 3.378 0 00-2.37.982A3.342 3.342 0 000 3.342v24.285c.005.884.36 1.73.989 2.356.628.625 1.48.978 2.368.983 4.334-.06 9.015.917 14.301 2.975a.982.982 0 00.672 0c5.28-2.058 9.949-3.036 14.313-2.975a3.39 3.39 0 002.367-.985c.628-.625.984-1.47.99-2.354V3.342a3.336 3.336 0 00-.98-2.355 3.372 3.372 0 00-2.365-.984zM3.357 29.145a1.536 1.536 0 01-1.077-.447 1.52 1.52 0 01-.449-1.071V3.342a1.52 1.52 0 01.449-1.071 1.536 1.536 0 011.077-.446c4.15-.055 8.65.85 13.721 2.762v27.199a39.014 39.014 0 00-13.33-2.641h-.39zm30.824-1.518a1.526 1.526 0 01-.45 1.07 1.542 1.542 0 01-1.076.448c-4.236-.061-8.747.82-13.745 2.64V4.588c5.078-1.906 9.576-2.811 13.745-2.762a1.517 1.517 0 011.526 1.517v24.285z"/></symbol><symbol viewBox="0 0 35 35" id="modify" xmlns="http://www.w3.org/2000/svg"><path d="M23.397 22.43a.684.684 0 00-.966 0 6.937 6.937 0 01-7.706 1.469.684.684 0 00-.543 1.254 8.315 8.315 0 004.815.552 8.293 8.293 0 004.4-2.308.684.684 0 000-.967zm-10.804.025a.684.684 0 10-1.014.918.684.684 0 001.014-.918z"/><path d="M17.5 6.219c-6.22 0-11.281 5.06-11.281 11.281 0 6.22 5.06 11.281 11.281 11.281 6.22 0 11.281-5.06 11.281-11.281 0-6.22-5.06-11.281-11.281-11.281zm0 21.195c-5.467 0-9.914-4.448-9.914-9.914 0-5.466 4.447-9.914 9.914-9.914a9.87 9.87 0 016.286 2.253l-3.642 1.782a.683.683 0 00-.183.131l-4.104 4.105-.029.03a2.315 2.315 0 00-.652 1.613 2.327 2.327 0 002.324 2.324c.626 0 1.194-.249 1.612-.652.01-.01.022-.018.032-.029l4.104-4.104a.685.685 0 00.13-.183l1.783-3.642a9.868 9.868 0 012.253 6.286c0 5.467-4.447 9.914-9.914 9.914zm.82-12.088l2.527-2.527 2.65-1.297-1.296 2.65-2.527 2.527a2.336 2.336 0 00-1.353-1.353zm.137 2.174a.958.958 0 01-1.914 0 .958.958 0 011.914 0z"/><path d="M34.316 13.809H32.13a14.94 14.94 0 00-1.675-4.042L32 8.219a.684.684 0 000-.967L27.748 3a.684.684 0 00-.967 0l-1.548 1.547a14.938 14.938 0 00-4.042-1.675V.684A.684.684 0 0020.508 0h-6.016a.684.684 0 00-.683.684V2.87a14.95 14.95 0 00-4.042 1.675L8.219 3a.684.684 0 00-.967 0L3 7.252a.684.684 0 000 .967l1.547 1.548a14.945 14.945 0 00-1.675 4.042H.684a.684.684 0 00-.684.683v6.016c0 .377.306.683.684.683H2.87a14.92 14.92 0 001.676 4.042l-1.548 1.548a.684.684 0 000 .966l4.254 4.254a.684.684 0 00.966 0l1.548-1.547a14.938 14.938 0 004.042 1.675v2.187c0 .378.306.684.683.684h6.016a.684.684 0 00.684-.684V32.13a14.956 14.956 0 004.041-1.675L26.781 32a.684.684 0 00.967 0L32 27.748a.684.684 0 000-.967l-1.547-1.548a14.935 14.935 0 001.675-4.042h2.187a.684.684 0 00.684-.683v-6.016a.684.684 0 00-.684-.683zm-.683 6.015h-2.048a.684.684 0 00-.668.542 13.591 13.591 0 01-1.904 4.594.684.684 0 00.09.856l1.448 1.448-3.287 3.287-1.448-1.448a.684.684 0 00-.856-.09 13.596 13.596 0 01-4.594 1.904.684.684 0 00-.542.668v2.048h-4.648v-2.048a.684.684 0 00-.542-.668 13.591 13.591 0 01-4.594-1.904.684.684 0 00-.856.09L7.736 30.55l-3.287-3.287 1.449-1.448a.684.684 0 00.09-.856 13.594 13.594 0 01-1.905-4.594.684.684 0 00-.668-.542H1.367v-4.648h2.047a.684.684 0 00.67-.542 13.585 13.585 0 011.903-4.594.684.684 0 00-.09-.856L4.45 7.736l3.287-3.287 1.448 1.449a.683.683 0 00.856.09 13.593 13.593 0 014.594-1.905.684.684 0 00.542-.668V1.367h4.648v2.047c0 .323.226.602.542.67 1.639.348 3.185.988 4.594 1.903.27.176.627.139.856-.09l1.448-1.448 3.287 3.287-1.448 1.448a.684.684 0 00-.09.856 13.594 13.594 0 011.904 4.594.683.683 0 00.668.542h2.048v4.648z"/><path d="M9.913 16.816h-.548a.684.684 0 000 1.368h.548a.684.684 0 000-1.368zm2.719-5.151l-.4-.4a.684.684 0 00-.968.966l.401.401a.681.681 0 00.967 0 .684.684 0 000-.967zM17.5 8.682a.684.684 0 00-.684.683v.392a.684.684 0 001.368 0v-.392a.684.684 0 00-.684-.683zm8.135 8.134h-.392a.684.684 0 100 1.368h.392a.684.684 0 000-1.368z"/></symbol><symbol viewBox="0 0 13 15" id="play" xmlns="http://www.w3.org/2000/svg"><path d="M12 5.768c1.333.77 1.333 2.694 0 3.464l-8.25 4.763c-1.333.77-3-.192-3-1.732V2.737c0-1.54 1.667-2.502 3-1.732L12 5.768z"/></symbol><symbol viewBox="0 0 26 27" id="search" xmlns="http://www.w3.org/2000/svg"><path d="M10 19a9 9 0 100-18 9 9 0 000 18z"/><path d="M14.2 18.5l5.7 5.7c1.2 1.2 3.1 1.2 4.2 0 1.2-1.2 1.2-3.1 0-4.2l-4.2-4.2"/></symbol><symbol viewBox="0 0 43 43" id="specs" xmlns="http://www.w3.org/2000/svg"><path d="M21.5 1.265A20.235 20.235 0 1041.735 21.5 20.257 20.257 0 0021.5 1.265zm0 36.501A16.266 16.266 0 1137.766 21.5 16.284 16.284 0 0121.5 37.766z"/><path d="M21.844 12.593c.188.022.374.05.558.085l1.482-2.783v-.002l-.088-.017a4.043 4.043 0 00-.15-.029 3.11 3.11 0 00-.165-.028 2.492 2.492 0 00-.127-.022 2.05 2.05 0 00-.11-.016l-.176-.025a5.725 5.725 0 00-.41-.046 3.156 3.156 0 00-.17-.015 9.848 9.848 0 00-.35-.024l-.035-.003a9.656 9.656 0 00-.603-.015 11.843 11.843 0 00-7.77 20.784v-.001l.736-.846a11.524 11.524 0 01-1.136-1.34 10.678 10.678 0 01-.89-1.487 9.912 9.912 0 01-.628-1.595 9.484 9.484 0 01-.351-1.654c-.015-.14-.041-.277-.046-.418l-.029-.419c-.006-.14-.003-.28-.006-.418 0-.07-.003-.14-.002-.209l.01-.209c.008-.14.008-.278.023-.416l.04-.414c.04-.274.076-.547.136-.814a9.65 9.65 0 011.166-3.018 9.53 9.53 0 014.68-4.014 9.134 9.134 0 014.411-.572z"/><path d="M26.456 10.829a1.016 1.016 0 00-1.014.084 1.048 1.048 0 00-.32.352l-4.12 7.128-.18.039a3.103 3.103 0 00-2.187 1.754 3.153 3.153 0 105.639-.16l-.087-.161 2.81-7.737a1.054 1.054 0 00-.541-1.3zm4.676 6.628c.124-.061.237-.144.332-.245a1.437 1.437 0 10-1.223.412c.307.043.62-.016.89-.167zm2.094 4.489a1.234 1.234 0 00-2.423.472 1.224 1.224 0 001.092.989l.014.002c.113.015.229.01.34-.015a1.236 1.236 0 00.977-1.448zm-2.944 5.336a1.007 1.007 0 00-.403-.083 1.036 1.036 0 00-.95.627 1.02 1.02 0 00.29 1.192l.02.02a1.029 1.029 0 001.594-1.19 1.03 1.03 0 00-.551-.566z"/></symbol><symbol viewBox="0 0 44 44" id="wheel" xmlns="http://www.w3.org/2000/svg"><path d="M43.437 26.996c.335-1.443.528-2.94.563-4.477h-.922v-1.246h.917a22.022 22.022 0 00-.603-4.465l-.87.234-.323-1.204.869-.232a21.892 21.892 0 00-1.74-4.15l-.762.439-.623-1.079.754-.435a22.142 22.142 0 00-2.751-3.551l-.6.6-.882-.88.598-.598A22.099 22.099 0 0033.5 3.225l-.42.726L32 3.328l.419-.725A21.891 21.891 0 0028.272.895l-.214.8-1.205-.323.214-.796A22.049 22.049 0 0022.623 0v.815h-1.246V0c-1.526.042-3.012.24-4.444.577l.213.795-1.204.323-.213-.8a21.896 21.896 0 00-4.146 1.708l.417.725-1.079.623-.419-.726A22.05 22.05 0 006.94 5.952l.597.597-.881.88-.6-.6a22.105 22.105 0 00-2.751 3.552l.753.434-.623 1.08-.761-.44a21.916 21.916 0 00-1.74 4.15l.868.232-.322 1.204-.87-.233a21.97 21.97 0 00-.604 4.465h.916v1.246H0c.035 1.536.229 3.033.563 4.477l.916-.246.322 1.204-.923.247a21.879 21.879 0 001.71 4.184l.845-.488.624 1.08-.85.49a22.108 22.108 0 002.746 3.596l.7-.7.882.88-.704.704a22.119 22.119 0 003.583 2.772l.507-.877 1.079.623-.51.884a21.864 21.864 0 004.186 1.74l.266-.991 1.204.322-.266.99c1.45.346 2.953.547 4.497.59v-1.023h1.245V44a22.023 22.023 0 004.497-.59l-.265-.99 1.203-.323.266.992a21.87 21.87 0 004.186-1.74l-.51-.885 1.08-.622.506.877c1.29-.8 2.488-1.73 3.582-2.772l-.703-.704.881-.88.701.7a22.103 22.103 0 002.747-3.596l-.85-.49.623-1.08.846.488a21.788 21.788 0 001.709-4.184l-.922-.247.322-1.204.916.246zM22 34.046c-6.652 0-12.045-5.393-12.045-12.046S15.348 9.954 22 9.954c6.653 0 12.045 5.393 12.045 12.046S28.653 34.047 22 34.047z"/><path d="M22 12.03c-5.506 0-9.969 4.464-9.969 9.97s4.463 9.97 9.969 9.97c5.505 0 9.968-4.464 9.968-9.97S27.505 12.03 22 12.03zM17.047 26.3a1.245 1.245 0 11-1.245-2.157 1.245 1.245 0 011.245 2.157zm.457-6.895a1.246 1.246 0 11-2.159-1.246 1.246 1.246 0 012.159 1.246zM22 29.684a1.246 1.246 0 110-2.492 1.246 1.246 0 010 2.493zm0-12.877a1.246 1.246 0 110-2.492 1.246 1.246 0 010 2.492zm6.654 9.035a1.246 1.246 0 11-2.158-1.245 1.246 1.246 0 012.158 1.245zm-.456-5.982a1.246 1.246 0 11-1.246-2.16 1.246 1.246 0 011.246 2.16z"/></symbol></svg>