<svg width="60" height="21" viewBox="0 0 60 21" fill="none" xmlns="http://www.w3.org/2000/svg">
<path d="M59.7706 8.38852C59.6351 7.71514 59.4266 7.0522 59.1607 6.41536C58.9001 5.79418 58.5717 5.19389 58.1964 4.63013C57.821 4.07159 57.3884 3.54959 56.914 3.07457C56.4396 2.59955 55.9183 2.16629 55.3606 1.79046C54.7976 1.4094 54.2033 1.08576 53.5778 0.824759C52.947 0.558539 52.285 0.349739 51.6073 0.21402C50.914 0.0730801 50.205 0 49.4961 0C48.7871 0 48.073 0.0730801 47.3849 0.21402C46.7124 0.349739 46.0504 0.558539 45.4144 0.824759C44.7941 1.08576 44.1946 1.41462 43.6316 1.79046C43.4179 1.9314 43.2146 2.08799 43.0113 2.24459C42.808 2.08799 42.6047 1.93662 42.391 1.79046C41.828 1.4094 41.2337 1.08576 40.6082 0.824759C39.9774 0.558539 39.3154 0.349739 38.6377 0.21402C37.9496 0.0730801 37.2354 0 36.5265 0C35.8176 0 35.1034 0.0730801 34.4153 0.21402C33.7428 0.349739 33.0808 0.558539 32.4448 0.824759C31.8245 1.08576 31.225 1.41462 30.662 1.79046C30.4379 1.94184 30.2189 2.10365 30.0052 2.27069C29.7915 2.10365 29.5725 1.94184 29.3536 1.79046C28.7906 1.4094 28.1963 1.08576 27.5708 0.824759C26.9401 0.558539 26.278 0.349739 25.6003 0.21402C24.9122 0.0730801 24.1981 0 23.4891 0C22.7802 0 22.066 0.0730801 21.3779 0.21402C20.7055 0.349739 20.0434 0.558539 19.4075 0.824759C18.7871 1.08576 18.1877 1.41462 17.6247 1.79046C17.4005 1.94184 17.1868 2.09844 16.9783 2.26547C16.7698 2.09844 16.5508 1.94184 16.3319 1.79046C15.7689 1.4094 15.1746 1.08576 14.5491 0.824759C13.9183 0.558539 13.2563 0.349739 12.5786 0.21402C11.8905 0.0730801 11.1764 0 10.4674 0C9.75847 0 9.04431 0.0730801 8.35621 0.21402C7.68375 0.349739 7.02172 0.558539 6.38575 0.824759C5.76542 1.08576 5.16594 1.41462 4.60295 1.79046C4.04518 2.16629 3.52389 2.59955 3.04952 3.07457C2.57515 3.54959 2.14248 4.07159 1.76716 4.63013C1.40747 5.19389 1.08427 5.79418 0.823632 6.41536C0.557776 7.04698 0.349262 7.70992 0.213727 8.38852C0.07298 9.07755 0 9.79269 0 10.5026C0 11.2125 0.07298 11.9277 0.213727 12.6167C0.349262 13.2901 0.557776 13.953 0.823632 14.5846C1.08427 15.2058 1.41268 15.8061 1.78801 16.3699C2.16334 16.9232 2.596 17.4504 3.07037 17.9254C3.54474 18.4004 4.06603 18.8337 4.62381 19.2095C5.18679 19.5906 5.78106 19.9142 6.4066 20.1752C7.03736 20.4415 7.69939 20.6503 8.37706 20.786C9.06516 20.9269 9.77932 21 10.4883 21C11.1972 21 11.9114 20.9269 12.5995 20.786C13.2719 20.6503 13.934 20.4415 14.5699 20.1752C15.1903 19.9142 15.7897 19.5854 16.3527 19.2095C16.5717 19.0582 16.7906 18.9016 16.9991 18.7345C17.2076 18.9016 17.4266 19.0582 17.6455 19.2095C18.2085 19.5906 18.8028 19.9142 19.4283 20.1752C20.0591 20.4415 20.7211 20.6503 21.3936 20.786C22.0817 20.9269 22.7958 21 23.5048 21C24.2137 21 24.9279 20.9269 25.616 20.786C26.2884 20.6503 26.9505 20.4415 27.5864 20.1752C28.2068 19.9142 28.8063 19.5854 29.3692 19.2095C29.5934 19.0582 29.8123 18.8963 30.0261 18.7293C30.2398 18.8963 30.4587 19.0582 30.6829 19.2095C31.2459 19.5906 31.8401 19.9142 32.4657 20.1752C33.0964 20.4415 33.7585 20.6503 34.4361 20.786C35.1242 20.9269 35.8384 21 36.5473 21C37.2563 21 37.9705 20.9269 38.6586 20.786C39.331 20.6503 39.993 20.4415 40.629 20.1752C41.2493 19.9142 41.8488 19.5854 42.4118 19.2095C42.6255 19.0686 42.8288 18.912 43.0321 18.7554C43.2354 18.912 43.4387 19.0634 43.6525 19.2095C44.2155 19.5906 44.8097 19.9142 45.4353 20.1752C46.066 20.4415 46.7281 20.6503 47.4005 20.786C48.0886 20.9269 48.8028 21 49.5117 21C50.2207 21 50.9348 20.9269 51.6229 20.786C52.2954 20.6503 52.9574 20.4415 53.5934 20.1752C54.2137 19.9142 54.8132 19.5854 55.3762 19.2095C55.934 18.8337 56.4553 18.4004 56.9296 17.9254C57.404 17.4504 57.8367 16.9284 58.212 16.3699C58.5925 15.8061 58.9157 15.211 59.1764 14.5846C59.4422 13.953 59.6507 13.2901 59.7863 12.6115C59.927 11.9172 60 11.2073 60 10.4974C59.9844 9.79269 59.9114 9.07755 59.7706 8.38852ZM5.91138 3.71663C6.34926 3.41909 6.81321 3.16853 7.298 2.95973C7.79322 2.75093 8.3093 2.58911 8.83058 2.48471C9.36751 2.37509 9.92528 2.31767 10.4778 2.31767C11.0304 2.31767 11.5882 2.37509 12.1251 2.48471C12.6516 2.59433 13.1677 2.75093 13.6577 2.95973C14.1425 3.16331 14.6116 3.41909 15.0443 3.71663C15.1381 3.77927 15.232 3.84713 15.3258 3.91499C15.1381 4.14467 14.9609 4.38479 14.7993 4.63013C14.4188 5.19389 14.0956 5.78896 13.8349 6.41536C13.5691 7.04698 13.3606 7.70992 13.225 8.38852C13.0843 9.07755 13.0113 9.79269 13.0113 10.5026C13.0113 11.2125 13.0843 11.9277 13.225 12.6167C13.3606 13.2901 13.5691 13.953 13.8349 14.5846C14.0956 15.2058 14.424 15.8061 14.7993 16.3699C14.9661 16.6152 15.1434 16.8553 15.331 17.085C15.2372 17.1529 15.1434 17.2207 15.0443 17.2886C14.6064 17.5861 14.1425 17.8367 13.6577 18.0455C13.1625 18.2543 12.6464 18.4161 12.1251 18.5205C11.5882 18.6301 11.0304 18.6875 10.4778 18.6875C9.92528 18.6875 9.36751 18.6301 8.83058 18.5205C8.30408 18.4109 7.78801 18.2543 7.298 18.0455C6.81321 17.8419 6.34926 17.5861 5.91138 17.2886C5.47871 16.9963 5.07211 16.657 4.702 16.2916C4.33189 15.921 3.99826 15.5138 3.70634 15.0805C3.40921 14.6421 3.15899 14.1775 2.95048 13.692C2.74196 13.1961 2.58036 12.6793 2.47611 12.1573C2.36664 11.6197 2.3093 11.0611 2.3093 10.5078C2.3093 9.95451 2.36664 9.39597 2.47611 8.85832C2.58558 8.3311 2.74196 7.81432 2.95048 7.32364C3.15378 6.83818 3.40921 6.36838 3.70634 5.93512C3.99826 5.50186 4.3371 5.09471 4.702 4.72409C5.07211 4.34825 5.47871 4.00895 5.91138 3.71663ZM16.7228 15.0805C16.4257 14.6421 16.1755 14.1775 15.967 13.692C15.7585 13.1961 15.5969 12.6793 15.4926 12.1573C15.3831 11.6197 15.3258 11.0611 15.3258 10.5078C15.3258 9.95451 15.3831 9.39597 15.4926 8.85832C15.6021 8.3311 15.7585 7.81432 15.967 7.32364C16.1703 6.83818 16.4257 6.36838 16.7228 5.93512C16.8063 5.80984 16.9001 5.68456 16.9939 5.55928C17.0877 5.68456 17.1764 5.80984 17.265 5.93512C17.5621 6.3736 17.8123 6.83818 18.0209 7.32364C18.2294 7.81954 18.391 8.33632 18.4952 8.85832C18.6047 9.39597 18.662 9.95451 18.662 10.5078C18.662 11.0611 18.6047 11.6197 18.4952 12.1573C18.3857 12.6846 18.2294 13.2013 18.0209 13.692C17.8175 14.1775 17.5621 14.6473 17.265 15.0805C17.1816 15.2058 17.0877 15.3311 16.9939 15.4564C16.9001 15.3363 16.8063 15.211 16.7228 15.0805ZM19.1781 16.3751C19.5586 15.8113 19.8818 15.2163 20.1425 14.5899C20.4083 13.9582 20.6169 13.2953 20.7524 12.6167C20.8931 11.9277 20.9661 11.2125 20.9661 10.5026C20.9661 9.79269 20.8931 9.07755 20.7524 8.38852C20.6169 7.71514 20.4083 7.0522 20.1425 6.41536C19.8818 5.79418 19.5534 5.19389 19.1781 4.63013C19.0113 4.38479 18.8341 4.14467 18.6464 3.91499C18.7402 3.84713 18.8341 3.77927 18.9279 3.71663C19.3658 3.41909 19.8297 3.16853 20.3145 2.95973C20.8097 2.75093 21.3258 2.58911 21.8471 2.48471C22.384 2.37509 22.9418 2.31767 23.4944 2.31767C24.0469 2.31767 24.6047 2.37509 25.1416 2.48471C25.6681 2.59433 26.1842 2.75093 26.6742 2.95973C27.159 3.16331 27.6281 3.41909 28.0608 3.71663C28.1599 3.78449 28.2589 3.85235 28.3527 3.92543C28.1703 4.15511 27.993 4.39001 27.8314 4.63013C27.4509 5.19389 27.1277 5.78896 26.8671 6.41536C26.6012 7.04698 26.3927 7.70992 26.2572 8.38852C26.1164 9.07755 26.0434 9.79269 26.0434 10.5026C26.0434 11.2125 26.1164 11.9277 26.2572 12.6167C26.3927 13.2901 26.6012 13.953 26.8671 14.5846C27.1277 15.2058 27.4561 15.8061 27.8314 16.3699C27.9983 16.6152 28.1703 16.8501 28.3579 17.0798C28.2589 17.1529 28.1651 17.2207 28.0608 17.2886C27.6229 17.5861 27.159 17.8367 26.6742 18.0455C26.179 18.2543 25.6629 18.4161 25.1416 18.5205C24.6047 18.6301 24.0469 18.6875 23.4944 18.6875C22.9418 18.6875 22.384 18.6301 21.8471 18.5205C21.3206 18.4109 20.8045 18.2543 20.3145 18.0455C19.8297 17.8419 19.3658 17.5861 18.9279 17.2886C18.8341 17.226 18.735 17.1581 18.6464 17.085C18.8341 16.8606 19.0113 16.6204 19.1781 16.3751ZM29.755 15.0805C29.4579 14.6421 29.2076 14.1775 28.9991 13.692C28.7906 13.1961 28.629 12.6793 28.5248 12.1573C28.4153 11.6197 28.3579 11.0611 28.3579 10.5078C28.3579 9.95451 28.4153 9.39597 28.5248 8.85832C28.6342 8.3311 28.7906 7.81432 28.9991 7.32364C29.2024 6.83818 29.4579 6.36838 29.755 5.93512C29.8384 5.80984 29.927 5.68978 30.0156 5.56973C30.1043 5.68978 30.1929 5.80984 30.2763 5.93512C30.5734 6.3736 30.8236 6.83818 31.0321 7.32364C31.2407 7.81954 31.4023 8.33632 31.5065 8.85832C31.616 9.39597 31.6733 9.95451 31.6733 10.5078C31.6733 11.0611 31.616 11.6197 31.5065 12.1573C31.397 12.6846 31.2407 13.2013 31.0321 13.692C30.8288 14.1775 30.5734 14.6473 30.2763 15.0805C30.1929 15.2058 30.1043 15.3259 30.0156 15.4459C29.927 15.3259 29.8384 15.2058 29.755 15.0805ZM32.1946 16.3751C32.5751 15.8113 32.8983 15.2163 33.159 14.5899C33.4248 13.9582 33.6334 13.2953 33.7689 12.6167C33.9096 11.9277 33.9826 11.2125 33.9826 10.5026C33.9826 9.79269 33.9096 9.07755 33.7689 8.38852C33.6334 7.71514 33.4248 7.0522 33.159 6.41536C32.8983 5.79418 32.5699 5.19389 32.1946 4.63013C32.033 4.38479 31.8558 4.14989 31.6733 3.92021C31.7672 3.84713 31.8662 3.77927 31.9652 3.71141C32.4031 3.41387 32.8671 3.16331 33.3519 2.95451C33.8471 2.74571 34.3632 2.58389 34.8844 2.47949C35.4214 2.36987 35.9791 2.31245 36.5317 2.31245C37.0843 2.31245 37.642 2.36987 38.179 2.47949C38.7055 2.58911 39.2215 2.74571 39.7116 2.95451C40.1964 3.15809 40.6655 3.41387 41.0982 3.71141C41.1816 3.76883 41.265 3.82625 41.3432 3.88367C41.1503 4.12379 40.9679 4.36913 40.7958 4.62491C40.4153 5.18867 40.0921 5.78374 39.8314 6.41014C39.5656 7.04176 39.3571 7.7047 39.2215 8.3833C39.0808 9.07234 39.0078 9.78747 39.0078 10.4974C39.0078 11.2073 39.0808 11.9224 39.2215 12.6115C39.3571 13.2849 39.5656 13.9478 39.8314 14.5794C40.0921 15.2006 40.4205 15.8009 40.7958 16.3647C40.9679 16.6204 41.1503 16.8658 41.3484 17.1059C41.265 17.1685 41.1816 17.226 41.0982 17.2834C40.6603 17.5809 40.1964 17.8315 39.7116 18.0403C39.2163 18.2491 38.7003 18.4109 38.179 18.5153C37.642 18.6249 37.0843 18.6823 36.5317 18.6823C35.9791 18.6823 35.4214 18.6249 34.8844 18.5153C34.3579 18.4057 33.8419 18.2491 33.3519 18.0403C32.8671 17.8367 32.4031 17.5809 31.9652 17.2834C31.8662 17.2155 31.7672 17.1477 31.6733 17.0746C31.8558 16.8553 32.0278 16.6152 32.1946 16.3751ZM42.7194 15.0805C42.4222 14.6421 42.172 14.1775 41.9635 13.692C41.755 13.1961 41.5934 12.6793 41.4891 12.1573C41.3797 11.6197 41.3223 11.0611 41.3223 10.5078C41.3223 9.95451 41.3797 9.39597 41.4891 8.85832C41.5986 8.3311 41.755 7.81432 41.9635 7.32364C42.1668 6.83818 42.4222 6.36838 42.7194 5.93512C42.8132 5.79418 42.9123 5.65846 43.0165 5.52275C43.1208 5.65846 43.2198 5.79418 43.3136 5.93512C43.6108 6.3736 43.861 6.83818 44.0695 7.32364C44.278 7.81954 44.4396 8.33632 44.5439 8.85832C44.6533 9.39597 44.7107 9.95451 44.7107 10.5078C44.7107 11.0611 44.6533 11.6197 44.5439 12.1573C44.4344 12.6846 44.278 13.2013 44.0695 13.692C43.8662 14.1775 43.6108 14.6473 43.3136 15.0805C43.2198 15.2215 43.1208 15.3572 43.0165 15.4929C42.9123 15.3572 42.8132 15.2215 42.7194 15.0805ZM45.2268 16.3751C45.6073 15.8113 45.9305 15.2163 46.1911 14.5899C46.457 13.9582 46.6655 13.2953 46.801 12.6167C46.9418 11.9277 47.0148 11.2125 47.0148 10.5026C47.0148 9.79269 46.9418 9.07755 46.801 8.38852C46.6655 7.71514 46.457 7.0522 46.1911 6.41536C45.9305 5.79418 45.6021 5.19389 45.2268 4.63013C45.0547 4.37435 44.8723 4.12901 44.6794 3.88889C44.7628 3.83147 44.8462 3.76883 44.9296 3.71141C45.3675 3.41387 45.8315 3.16331 46.3162 2.95451C46.8115 2.74571 47.3275 2.58389 47.8488 2.47949C48.3857 2.36987 48.9435 2.31245 49.4961 2.31245C50.0487 2.31245 50.6064 2.36987 51.1434 2.47949C51.6698 2.58911 52.1859 2.74571 52.6759 2.95451C53.1607 3.15809 53.6299 3.41387 54.0626 3.71141C54.4952 4.00373 54.9018 4.34303 55.2719 4.71365C55.6421 5.08427 55.9757 5.49142 56.2676 5.92468C56.5647 6.36316 56.8149 6.82774 57.0235 7.3132C57.232 7.8091 57.3936 8.32588 57.4978 8.84787C57.6073 9.38553 57.6646 9.94407 57.6646 10.4974C57.6646 11.0507 57.6073 11.6092 57.4978 12.1469C57.3884 12.6741 57.232 13.1909 57.0235 13.6816C56.8202 14.167 56.5647 14.6368 56.2676 15.0701C55.9757 15.5034 55.6368 15.9105 55.2719 16.2811C54.907 16.6518 54.4952 16.9858 54.0626 17.2782C53.6247 17.5757 53.1607 17.8263 52.6759 18.035C52.1807 18.2438 51.6646 18.4057 51.1434 18.5101C50.6064 18.6197 50.0487 18.6771 49.4961 18.6771C48.9435 18.6771 48.3857 18.6197 47.8488 18.5101C47.3223 18.4004 46.8063 18.2438 46.3162 18.035C45.8315 17.8315 45.3675 17.5757 44.9296 17.2782C44.8462 17.2207 44.7628 17.1633 44.6794 17.1007C44.8723 16.8762 45.0547 16.6309 45.2268 16.3751Z" fill="black"/>
</svg>
