<svg width="67" height="67" fill="none" xmlns="http://www.w3.org/2000/svg"><path d="M33.5 0C14.982 0 0 14.982 0 33.5S14.982 67 33.5 67 67 52.018 67 33.5 52.018 0 33.5 0zm31.326 33.5c0 17.3-14.026 31.326-31.326 31.326S2.174 50.8 2.174 33.5 16.2 2.174 33.5 2.174 64.826 16.2 64.826 33.5zM33.5 13.644v1.099c10.346 0 18.781 8.41 18.781 18.78h1.1c-.025-10.99-8.913-19.88-19.881-19.88zm0 38.637c-10.346 0-18.781-8.41-18.781-18.781h-1.1c0 10.968 8.89 19.856 19.857 19.856l.024-1.075zm16.057-32.926c.454.477 1.1 1.266 1.481 1.744l6.787-4.277a54.82 54.82 0 00-1.29-1.577l-4.302 2.82-.286.238.215-.31 1.887-3.752-1.338-1.338-3.775 1.888-.31.215.262-.287 2.843-4.253a37.17 37.17 0 00-1.6-1.29l-4.301 6.738c.55.406 1.266 1.027 1.72 1.433l4.062-2.079.263-.19-.191.262-2.127 4.015zm-15.388-8.53l1.864-4.11.12-.36-.025.383.191 5.496c.646.072 1.315.143 1.984.263l-.335-8.148a54.081 54.081 0 00-2.772-.215L33.38 8.626l-.071.334-.072-.334-1.816-4.492c-.932.048-1.84.12-2.772.215l-.31 8.148c.669-.12 1.338-.191 1.983-.263l.191-5.496-.024-.382.12.358 1.863 4.11h1.697zm-14.982 6.498c1.075-1.123 1.673-2.413.598-3.655-.574-.67-1.553-.813-2.366-.478l-.072.024.024-.072c.12-.31.191-1.338-.669-2.031a1.994 1.994 0 00-1.505-.406c-1.004.095-1.768.788-3.895 3.106-.645.693-1.553 1.816-2.127 2.533l5.783 5.448c1.935-2.103 2.7-2.868 4.23-4.469zm-7.55-1.314c1.17-1.41 2.413-2.7 2.963-3.202a1.43 1.43 0 01.597-.382c.382-.096.764.167.86.55.096.382-.167.764-.43 1.075-.621.693-2.867 3.034-2.867 3.034l-1.123-1.075zm2.27 2.127s2.198-2.318 2.915-3.059c.286-.286.478-.477.669-.573.263-.12.525-.143.788.024.24.167.359.43.287.717-.072.334-.334.645-.573.884-.311.31-2.916 3.106-2.916 3.106l-1.17-1.1z" fill="#000"/><path d="M34 14v20H14c0-11.047 8.953-20 20-20zm20 20c0 11.047-8.953 20-20 20V34h20z" fill="#000"/></svg>