<svg width="65" height="61" fill="none" xmlns="http://www.w3.org/2000/svg"><path d="M22.131.378c-4.315.89-9.143 3.169-12.434 5.853C4.843 10.195 1.323 16.965.23 24.422c-.283 1.956-.31 6.285-.053 8.106.903 6.432 4.261 12.798 9.4 17.814 3.708 3.601 7.457 5.974 11.18 7.053 2.157.634 11.408 3.075 11.664 3.075.472.013 11.908-3.074 13.297-3.6 2.94-1.106 6.42-3.494 9.548-6.528 4.355-4.248 7.376-9.332 8.725-14.659 1.066-4.248 1.079-9.386.027-14.079-.93-4.167-2.873-8.442-5.3-11.665C54.97 4.963 48.55 1.27 41.767.162L40.797 0l-.756.58c-.418.31-.702.607-.647.66.054.055.445.216.85.338 1.307.431 3.87 1.631 5.569 2.63 6.473 3.775 10.896 9.25 12.77 15.764 1.754 6.068 1.268 11.921-1.415 17.275-4.02 8.011-12.65 14.12-21.645 15.32-4.841.648-9.75-.242-14.632-2.642C12.665 45.879 6.906 38.69 5.517 30.707c-1.079-6.244.715-13.31 4.801-18.813 1.038-1.402 3.332-3.776 4.774-4.949 2.55-2.063 6.136-4.113 9.036-5.178.674-.243 1.267-.486 1.321-.526.122-.108-1.308-1.214-1.55-1.2-.095 0-.89.148-1.768.337z" fill="#000"/><path d="M21.524 14.929c-5.798.687-10.6 1.281-10.653 1.308-.067.027.634 1.416 1.551 3.101l1.672 3.062.594 6.244c.324 3.439.66 6.58.755 6.985.377 1.834 1.577 3.614 2.845 4.262 1.43.728 6.446 2.414 11.975 4.019.93.283 1.82.566 1.996.647.216.108.378.108.607 0 .162-.08 1.753-.58 3.534-1.106 4.18-1.24 8.078-2.549 9.655-3.222 2.01-.863 3.008-2.118 3.56-4.478.123-.472.486-3.668.81-7.107l.593-6.244 1.672-3.061c.918-1.685 1.66-3.075 1.646-3.088-.04-.055-21.726-2.603-22.01-2.59-.134.013-4.989.58-10.802 1.268zm28.928 2.994c-.04.067-.553.97-1.16 2.036L48.2 21.888v6.783c0 7.646 0 7.592-.985 8.617-.31.31-.795.675-1.065.81-.283.134-3.452.944-7.053 1.793l-6.54 1.552-6.636-1.579c-7.161-1.686-7.471-1.794-8.267-2.819-.741-.984-.741-1.024-.741-8.388v-6.796l-1.093-1.915c-.607-1.052-1.132-1.955-1.16-2.023-.027-.054 8.024-.094 17.896-.094 9.872 0 17.922.04 17.896.094z" fill="#000"/></svg>