<svg width="67" height="24" fill="none" xmlns="http://www.w3.org/2000/svg"><path d="M0 11.659c0 6.44 14.999 11.66 33.501 11.66 18.502 0 33.499-5.22 33.499-11.66S52.003-.001 33.501-.001C15 0 0 5.22 0 11.66zm1.178 0c0-5.883 14.47-10.65 32.323-10.65 17.852 0 32.322 4.767 32.322 10.65 0 5.882-14.47 10.652-32.322 10.652-17.852 0-32.322-4.77-32.323-10.652z" fill="#000"/><path d="M52.46 7.705c-.133 0-.2.016-.263.139-.207.395-2.714 4.152-3.18 4.881-.078.111-.175.096-.186-.03-.047-.434-.421-.931-1.01-1.17a2.58 2.58 0 00-1.346-.156c-.825.11-1.56.546-2.205 1.037-.974.74-1.813 1.7-2.898 2.408-.591.385-1.403.723-1.944.22-.49-.454-.435-1.465.315-2.246.079-.083.175-.015.16.059-.071.354.016.705.284.952.328.293.797.326 1.198.13.474-.234.752-.687.833-1.202.126-.798-.489-1.501-1.257-1.558-.624-.043-1.223.173-1.806.655a3.442 3.442 0 00-.71.782c-.063.088-.157.097-.154-.033.03-1.022-.393-1.596-1.238-1.616-.654-.016-1.356.341-1.902.775-.598.481-1.122 1.117-1.681 1.716-.07.074-.132.07-.151-.071-.017-.678-.188-1.333-.5-1.799a.417.417 0 00-.54-.132c-.091.048-.406.194-.636.379-.113.094-.158.23-.107.403a4.72 4.72 0 01-.175 3.13c-.376.89-1.108 1.692-1.969 1.963-.567.18-1.156.092-1.52-.41-.5-.693-.298-1.9.448-2.9.66-.882 1.611-1.442 2.562-1.803.112-.043.135-.115.103-.21-.052-.156-.134-.369-.167-.466-.087-.232-.332-.27-.63-.237-.69.08-1.313.317-1.93.646-1.61.863-2.418 2.534-2.772 3.426-.17.43-.316.698-.505.936-.253.32-.573.61-1.156 1.122a.206.206 0 00-.047.235c.06.122.363.552.449.59.094.046.205-.019.25-.05.407-.276.895-.715 1.135-1.012.082-.102.169-.06.214.095a2.507 2.507 0 001.614 1.716c1.477.498 3.009-.223 4.167-1.479.735-.798 1-1.311 1.283-1.66.477-.591 1.419-1.916 2.54-2.764.412-.316.9-.553 1.144-.395.196.127.261.423-.055.997-1.144 2.09-2.827 4.543-3.136 5.139-.057.102-.009.184.1.184.6-.004 1.192-.002 1.736-.002.09-.004.13-.045.177-.11.877-1.374 1.704-2.682 2.589-4.034.05-.079.094-.017.097.017.019.315.096.744.283 1.026.334.52.808.744 1.335.748.418.005.63-.059 1.08-.227.369-.137.664-.315.89-.478.131-.091.155.062.152.086-.204 1.09.048 2.383 1.132 2.919 1.298.64 2.723-.26 3.544-1.07.08-.08.165-.07.174.097a1.5 1.5 0 00.414.936c.686.69 2.075.416 3.466-.66.893-.69 1.828-1.665 2.672-2.698.032-.04.056-.105-.008-.17-.129-.133-.315-.287-.442-.406-.058-.05-.143-.036-.193.002-.865.823-1.645 1.762-2.771 2.539-.38.265-.986.479-1.258.11-.105-.143-.093-.34.012-.6.328-.819 5.527-8.735 5.797-9.202.047-.081 0-.14-.105-.14H52.46zm-8.243 9.728c-.267-.139-.384-.513-.377-.815.014-.853.39-1.727 1.09-2.588.854-1.049 1.797-1.596 2.416-1.296.64.305.435 1.046.15 1.629a.164.164 0 00-.012.12c.01.06.089.119.166.146.027.011.043.03.012.094-.221.474-.425.748-.701 1.159-.255.38-.542.677-.89.962-.405.334-.931.693-1.426.693a.893.893 0 01-.428-.104z" fill="#000"/><path d="M24.822 2.904c-.496 0-.994.02-1.496.06-3.196.27-6.236 2.068-6.243 4.798 0 1.386.982 2.508 2.508 2.459 1.793-.062 3.264-1.497 4.035-3.308.293-.687-.25-.972-.507-.576a4.567 4.567 0 01-1.81 1.609c-.844.413-1.745.302-2.018-.384-.384-.966.415-2.411 2.238-3.092 2.634-.975 5.389-.33 8.038.169.039 0 .18.078.054.143-.474.258-.94.47-1.669 1.096-.522.447-1.206 1.042-1.735 1.69-.524.64-.896 1.21-1.388 1.841-.069.093-.153.088-.152.088-1.199.203-2.374.338-3.449 1.085-.223.154-.319.426-.184.635.122.185.398.204.59.064a3.605 3.605 0 012.145-.756c.035.002.05.008.06.028.009.012 0 .037-.011.056-1.183 1.639-1.478 2.01-2.366 3.025a17.44 17.44 0 01-1.402 1.422c-2.017 1.874-4.188 1.843-4.967.667-.464-.706-.403-1.445-.098-2.06.375-.753 1.133-1.304 1.764-1.626.234-.12.301-.42.067-.691-.149-.179-.511-.21-.78-.161-.826.153-1.803.777-2.38 1.53a4.19 4.19 0 00-.866 3.017c.196 2.075 1.904 3.273 3.842 3.26 1.544-.014 2.998-.481 4.745-2.256 1.63-1.656 3.116-4.129 4.507-6.422.043-.074.074-.114.286-.14a52.83 52.83 0 012.984-.28c.185-.011.222-.009.295.083.215.27.539.501.796.64.126.07.186.103.286.106a.36.36 0 00.278-.133c.088-.097.112-.222.066-.303-.05-.084-.625-.404-.643-.532-.013-.081.075-.1.075-.1.424-.133.864-.406 1.131-.917.262-.503.305-1.175-.176-1.548-.42-.327-1.056-.275-1.563.18-.495.442-.661 1.085-.593 1.649.012.097.009.131-.126.142-.764.06-1.498.082-2.316.125-.054.004-.071-.032-.04-.07.941-1.637 2.347-2.801 3.902-3.948.102-.077.071-.224.067-.346 2.807.61 5.52 1.744 8.433 1.721 1.203-.01 2.356-.193 3.457-.798.97-.53 1.364-1.018 1.392-1.526.023-.351-.22-.572-.569-.498-2.943.677-5.749.67-8.678.315-3.32-.403-6.508-1.23-9.812-1.23h-.008l.004-.002zm5.071 5.895a1.18 1.18 0 01.391-1.022c.167-.148.392-.182.532-.063.154.133.081.463-.075.693-.17.252-.462.47-.726.523l-.022.003c-.045-.001-.08-.032-.1-.134z" fill="#000"/></svg>