<svg width="67" height="15" viewBox="0 0 67 15" fill="none" xmlns="http://www.w3.org/2000/svg">
<path d="M0.943491 1.20031C1.8825 1.24337 2.76627 1.27566 3.65004 1.31872C4.14717 1.34025 4.65534 1.36178 5.15246 1.38331C5.92576 1.41561 6.69906 1.45867 7.47236 1.49097C7.96948 1.5125 8.45556 1.53403 8.95268 1.55556C9.52713 1.57709 10.1016 1.60938 10.665 1.63091C11.0848 1.65244 11.4935 1.66321 11.9133 1.68474C12.7198 1.7278 13.5262 1.76009 14.3326 1.80315C14.7524 1.82468 15.1722 1.83545 15.6031 1.85698C16.299 1.88927 16.995 1.93233 17.6799 1.96463C18.1329 1.98616 18.5858 2.00769 19.0277 2.02922C19.7237 2.06152 20.4307 2.10458 21.1266 2.13687C21.5464 2.1584 21.9662 2.17993 22.3971 2.20146C22.9163 2.22299 23.4466 2.23376 23.9658 2.27682C24.9158 2.34141 25.7996 2.12611 26.6723 1.81392C27.9869 1.34025 29.3236 0.952711 30.6824 0.618993C31.5662 0.403691 32.45 0.209919 33.3448 0.0161476C33.4553 -0.00538254 33.5768 -0.00538254 33.6873 0.0161476C35.6316 0.403691 37.5538 0.898885 39.4428 1.50173C40.0394 1.6955 40.6359 1.90004 41.2325 2.09381C41.6302 2.22299 42.0389 2.28758 42.4587 2.27682C43.0773 2.26605 43.6849 2.23376 44.3036 2.21223C44.7676 2.1907 45.2315 2.17993 45.6955 2.1584C46.3805 2.12611 47.0654 2.08305 47.7503 2.05075C48.2253 2.02922 48.7004 2.00769 49.1643 1.98616C49.8824 1.95386 50.5894 1.9108 51.3075 1.87851C51.8267 1.85698 52.3349 1.83545 52.8541 1.81392C53.5722 1.78162 54.3013 1.73856 55.0193 1.70627C55.5165 1.68474 56.0025 1.67397 56.4996 1.64168C57.2398 1.60938 57.991 1.56632 58.7312 1.53403C59.2504 1.5125 59.7586 1.49096 60.2778 1.46943C61.04 1.43714 61.7912 1.39408 62.5535 1.36178C63.0727 1.34025 63.603 1.31872 64.1222 1.29719C64.7961 1.27566 65.4699 1.24337 66.1438 1.2326C66.2874 1.2326 66.4421 1.25413 66.5857 1.28643C66.9834 1.38331 67.1049 1.62015 66.9061 1.97539C66.7072 2.35217 66.4973 2.71818 66.2764 3.07343C65.713 3.96693 65.0943 4.81738 64.3321 5.57093C63.8571 6.03383 63.3157 6.41061 62.6971 6.67974C61.8686 7.04575 61.0179 7.31488 60.1563 7.58401C57.516 8.38062 54.8978 9.19877 52.2465 9.97385C49.076 10.8889 45.9054 11.7716 42.7238 12.6544C41.2325 13.0742 39.7301 13.494 38.2276 13.8816C36.7142 14.2691 35.2007 14.6136 33.6762 14.9796C33.5547 15.0119 33.4221 15.0011 33.3006 14.9796C30.3068 14.3014 27.3351 13.5371 24.3856 12.6974C21.1708 11.7824 17.934 10.8997 14.7193 9.97385C12.0901 9.20953 9.48294 8.40215 6.87581 7.60553C6.1467 7.37947 5.43968 7.13187 4.72162 6.87351C3.71633 6.51826 2.90988 5.90465 2.21391 5.1188C1.38538 4.17147 0.689406 3.13802 0.103907 2.03998C-0.117036 1.62015 0.0155295 1.37255 0.490557 1.28643C0.678359 1.22184 0.844066 1.21107 0.943491 1.20031ZM24.01 7.35794C23.8553 7.37947 23.7117 7.401 23.5681 7.41176C23.1704 7.43329 22.7837 7.44406 22.386 7.45482C21.9441 7.46559 21.5023 7.47635 21.0604 7.49788C20.7952 7.50865 20.5301 7.51941 20.276 7.54094C20.0219 7.55171 19.7678 7.584 19.5027 7.59477C19.1271 7.60553 18.7405 7.60554 18.3649 7.62707C17.7904 7.6486 17.227 7.69166 16.6525 7.72395L15.3932 7.78854C14.9623 7.81007 14.5315 7.82084 14.1117 7.8316H13.7471C13.4931 7.84237 13.25 7.85313 12.9959 7.8639C12.7419 7.87466 12.4988 7.87466 12.2447 7.88543C12.1895 7.88543 12.1343 7.91772 12.079 7.92849V7.98231C12.1564 8.01461 12.2226 8.05767 12.311 8.0792C12.6203 8.16532 12.9297 8.24068 13.239 8.33756C15.0728 8.88658 16.9066 9.44636 18.7626 9.90926C19.2928 10.0384 19.8231 10.1676 20.3754 10.1461C21.3034 10.1246 22.2203 10.0815 23.1483 10.0707C23.8884 10.06 24.6286 10.0492 25.3688 10.06C25.7444 10.06 26.0868 10.1892 26.3851 10.4045C26.4735 10.469 26.5287 10.5444 26.5177 10.6844C26.374 10.7382 26.2194 10.8028 26.0537 10.8566C25.4571 11.0396 24.8606 11.2118 24.264 11.3948C24.1757 11.4164 24.0541 11.4379 24.0652 11.5456C24.0762 11.664 24.1978 11.6747 24.2972 11.6963C24.6175 11.7824 24.949 11.847 25.2693 11.9439C26.4293 12.2883 27.5782 12.6436 28.7381 12.9773C29.0254 13.0634 29.3236 13.1173 29.6109 13.1819C29.6992 13.2034 29.7766 13.2034 29.8539 13.1065C29.8097 13.0527 29.7876 12.9881 29.7324 12.945C29.633 12.8481 29.5335 12.762 29.4341 12.6759C28.705 12.0838 28.0311 11.4487 27.4788 10.7059C26.827 9.83391 26.2194 8.91887 25.5897 8.03614C25.1257 7.37947 24.6728 6.7228 24.1757 6.07689C23.9326 5.76471 23.6454 5.47405 23.3471 5.19416C22.9384 4.80661 22.3971 4.6559 21.8668 4.51596C20.6958 4.21453 19.5027 4.04229 18.2986 3.88081C17.691 3.79469 17.0723 3.7301 16.4647 3.66551C15.7798 3.57939 15.0839 3.50404 14.3989 3.42868C13.8245 3.36409 13.25 3.31026 12.6756 3.24567C11.7918 3.14879 10.897 3.0519 10.0132 2.95502C9.56027 2.91196 9.11839 2.8689 8.66545 2.82584C8.03577 2.76125 7.41713 2.69666 6.78744 2.63207C6.37869 2.58901 5.981 2.55671 5.57225 2.51365C5.34026 2.49212 5.11932 2.44906 4.88733 2.42753C4.66638 2.406 4.43439 2.406 4.2024 2.3737C3.66109 2.28758 3.11978 2.28758 2.57847 2.29835C2.53428 2.29835 2.49009 2.33064 2.43486 2.34141C2.51219 2.61053 2.6558 2.82584 2.81046 3.04114C3.32968 3.7624 3.93727 4.38678 4.63324 4.94656C5.38445 5.56017 6.21299 5.96924 7.19618 6.07689C7.66016 6.13072 8.1131 6.20607 8.57708 6.24913C9.20676 6.31372 9.82541 6.35679 10.4551 6.39985C10.9964 6.43214 11.5267 6.4429 12.068 6.46443C12.7308 6.48596 13.3826 6.51826 14.0454 6.52903C15.2606 6.53979 16.4868 6.52903 17.702 6.53979C18.6079 6.53979 19.5027 6.57209 20.4086 6.57209H22.6733C22.7948 6.57209 22.9163 6.58285 23.0268 6.61515C23.325 6.71203 23.5902 6.85198 23.8332 7.04575C23.9326 7.11034 24.01 7.19646 24.01 7.35794ZM40.5365 10.5229C40.5917 10.4798 40.6359 10.426 40.7022 10.3722C40.9894 10.1676 41.3209 10.06 41.6633 10.0492C42.2488 10.0384 42.8343 10.0384 43.4198 10.0492C44.4251 10.0707 45.4414 10.1138 46.4467 10.1353C46.7008 10.1461 46.9549 10.1569 47.1979 10.103C47.7834 9.99539 48.38 9.87697 48.9544 9.71549C50.3574 9.32795 51.7604 8.91887 53.1634 8.5098C53.6605 8.36985 54.1466 8.22991 54.6437 8.08996C54.7542 8.05767 54.8647 8.02537 54.931 7.89619C54.8757 7.88543 54.8315 7.8639 54.7873 7.8639C54.5443 7.85313 54.3013 7.8639 54.0693 7.85313C53.8262 7.84237 53.5832 7.78854 53.3402 7.78854C52.9425 7.79931 52.5448 7.74548 52.1471 7.75624C51.7052 7.76701 51.2633 7.69166 50.8214 7.68089C50.2911 7.67013 49.7609 7.63783 49.2417 7.60553C48.8882 7.59477 48.5236 7.584 48.1701 7.56247C48.0154 7.55171 47.8608 7.55171 47.6951 7.54094C47.2974 7.51941 46.8997 7.48712 46.502 7.47636C46.049 7.45482 45.5851 7.44406 45.1321 7.43329C44.867 7.42253 44.6019 7.401 44.3367 7.39023C43.9169 7.37947 43.4971 7.35794 43.0774 7.34717C43.0442 7.34717 43.0111 7.32564 42.9558 7.30411C43.0111 7.21799 43.0442 7.14264 43.0994 7.08881C43.3204 6.85198 43.6187 6.7228 43.9169 6.60438C44.2483 6.4752 44.6019 6.48596 44.9554 6.4752C47.9712 6.45367 50.9982 6.5075 54.014 6.43214C54.699 6.41061 55.3728 6.41061 56.0578 6.36755C56.9857 6.31372 57.9137 6.23837 58.8416 6.16301C59.2393 6.13072 59.637 6.06613 60.0347 6.00154C60.4877 5.92618 60.9296 5.82929 61.3383 5.60323C61.8686 5.32334 62.3436 4.96809 62.7965 4.56978C63.4483 3.98847 64.0117 3.32103 64.4867 2.59977C64.542 2.51365 64.6193 2.41676 64.5751 2.28758C64.5199 2.28758 64.4757 2.27682 64.4315 2.27682C63.5809 2.26605 62.7523 2.36294 61.9128 2.44906C61.0621 2.54594 60.2225 2.6213 59.3719 2.69665C58.9411 2.73971 58.4992 2.78278 58.0683 2.82584C57.3061 2.90119 56.5438 2.98731 55.7816 3.07343C55.1961 3.13802 54.6106 3.19185 54.0361 3.25644C53.1745 3.35333 52.3128 3.45021 51.4621 3.5471C51.0424 3.59016 50.6226 3.63322 50.2028 3.68704C49.6173 3.7624 49.0428 3.82699 48.4573 3.91311C47.7724 4.01 47.0875 4.11765 46.4025 4.23606C45.9938 4.31142 45.5961 4.4083 45.1984 4.50519C44.5687 4.6559 43.9611 4.8712 43.5082 5.35563C43.1989 5.68935 42.8895 6.0123 42.6244 6.37831C41.8622 7.44406 41.1331 8.5098 40.3929 9.58631C39.7411 10.5444 39.012 11.4379 38.1393 12.213C37.8962 12.4283 37.6532 12.6221 37.4102 12.8374C37.3218 12.9127 37.2334 12.9773 37.2113 13.128C37.2886 13.1388 37.3549 13.1603 37.4102 13.1496C37.6863 13.0957 37.9736 13.0527 38.2497 12.9665C39.2108 12.6867 40.1609 12.396 41.122 12.1161C41.6854 11.9546 42.2488 11.7393 42.8343 11.6532C42.9006 11.6424 43 11.6209 43 11.524C43.0111 11.4271 42.9227 11.4056 42.8454 11.3733C42.8343 11.3733 42.8233 11.3625 42.8012 11.3625C42.2599 11.1903 41.7186 11.0181 41.1772 10.8351C41.0336 10.792 40.89 10.7489 40.7464 10.6951C40.647 10.6844 40.5586 10.6521 40.5365 10.5229ZM33.5326 2.68589V2.70742C33.4774 2.70742 33.4332 2.70742 33.3779 2.71819C33.2454 2.73972 33.1239 2.76125 33.0023 2.78278C31.6877 3.0519 30.4063 3.40715 29.1358 3.83775C28.694 3.98846 28.2521 4.17147 27.8323 4.36524C27.534 4.49442 27.5009 4.60207 27.5892 4.9035C27.7218 5.3341 27.8433 5.76471 27.998 6.18454C28.3404 7.17493 28.7381 8.13303 29.2795 9.03729C29.4893 9.39254 29.7324 9.73702 30.0528 10.0062C30.9918 10.8028 32.0412 11.4379 33.1681 11.9654C33.4332 12.0838 33.6762 12.1053 33.9193 11.9546C33.9414 11.9439 33.9745 11.9331 33.9966 11.9223C34.6152 11.6424 35.2007 11.3087 35.7641 10.9319C36.1508 10.6736 36.5153 10.4045 36.8799 10.1246C37.3991 9.72626 37.7305 9.188 38.0288 8.62822C38.4486 7.84237 38.7911 7.01346 39.0783 6.17378C39.2329 5.73241 39.3655 5.29104 39.4981 4.84967C39.5644 4.6236 39.5202 4.53749 39.3213 4.40831C39.2661 4.37601 39.2108 4.34371 39.1556 4.32218C38.8131 4.18224 38.4707 4.02076 38.1282 3.90234C36.9572 3.49327 35.7531 3.17032 34.5379 2.89043C34.2065 2.80431 33.864 2.75048 33.5326 2.68589Z" fill="black"/>
</svg>
