<svg width="67" height="27" fill="none" xmlns="http://www.w3.org/2000/svg"><path d="M11.541 0H17v14.356C17 16.83 15.944 22 8.38 22 .82 22 0 17.18 0 14.466v-2.645h5.277v2.593c0 1.586 1.04 3.06 3.046 3.06 1.994 0 3.218-1.12 3.218-3.008V0zm13.555 6C29.299 6 33 7.62 33 15.057h-9.978c0 2.373.982 3.353 2.71 3.353 1.722 0 2.303-1.38 2.303-1.38h4.904c0 2.134-2.939 5.015-7.383 4.97C20.486 22 18 18.238 18 14.377 18 10.51 20.203 6 25.096 6zm3.002 6.062c0-1.443-.806-2.831-2.653-2.831-1.793 0-2.423 1.279-2.423 2.83h5.076zM41.571 6C46.06 6 50 7.62 50 15.057H39.36c0 2.373 1.045 3.353 2.89 3.353 1.85 0 2.457-1.38 2.457-1.38h5.225c0 2.134-3.128 5.015-7.865 4.97C36.651 22 34 18.238 34 14.377 34 10.51 36.339 6 41.571 6zm3.203 6.062c0-1.443-.865-2.831-2.83-2.831-1.911 0-2.583 1.279-2.583 2.83h5.413zM51 27V6.42h5.043v2.338c.176-.389.307-.66.697-1.148.338-.417 1.287-1.61 3.813-1.61C63.073 6 67 7.789 67 14.117c0 4.89-2.34 8.469-6.388 8.469-2.233 0-3.229-.79-3.814-1.248a3.145 3.145 0 01-.696-.724V27H51zm4.98-12.705c-.058 3.043.587 4.644 3.05 4.644 2.459 0 2.82-2.735 2.82-4.822 0-2.09-.477-4.114-3.056-4.114-1.577 0-2.75 1.247-2.815 4.292z" fill="#000"/></svg>