<svg width="23" height="67" viewBox="0 0 23 67" fill="none" xmlns="http://www.w3.org/2000/svg">
<path d="M17.8538 31.5093V30.8496V31.5093ZM17.8538 30.7813V30.5766V30.7813ZM17.8538 30.4173V30.3036V30.4173ZM20.4946 32.0098C20.4043 19.6791 19.2983 5.80136 17.4475 1.45603L11.5339 0L5.62022 1.45603C3.76938 5.80136 2.6634 19.6564 2.57311 31.9871L0 32.1918V34.8081L2.57311 35.0129C2.6634 47.3436 3.76938 61.2214 5.62022 65.544L11.5339 67L17.4475 65.544C19.2983 61.1986 20.4043 47.3436 20.4946 34.9902L23 34.7854V32.1691L20.4946 32.0098ZM7.44848 62.0632C5.77821 54.8285 5.43965 42.8845 5.30422 35.1494L9.50245 35.4679L10.2473 62.0632H7.44848ZM9.50245 31.5776L5.30422 31.8961C5.43965 24.1609 5.77821 12.217 7.44848 4.98234H10.2247L9.50245 31.5776ZM15.6192 62.0632H12.7753L13.5201 35.4679L17.7635 35.1494C17.6281 42.8845 17.3121 54.8285 15.6192 62.0632ZM13.5201 31.5776L12.7753 4.98234H15.6192C17.2895 12.217 17.6281 24.1609 17.7635 31.8961L13.5201 31.5776Z" fill="white"/>
</svg>
