<svg width="68" height="56" fill="none" xmlns="http://www.w3.org/2000/svg"><path d="M29.244.085C23.307.47 17.616 1.43 14.777 2.5 7.618 5.2 2.325 12.085.529 21.039c-1.002 5.033-.563 11.3 1.165 16.635.631 1.934 2.427 5.54 3.539 7.09 1.782 2.482 4.21 4.785 6.349 6.047 3.51 2.085 9.338 3.717 15.88 4.471 2.304.261 9.9.22 12.547-.068 8.064-.892 13.645-2.634 17.348-5.404 5.979-4.484 9.352-11.56 9.97-20.913.561-8.406-2.29-16.565-7.597-21.776-4.032-3.977-8.256-5.637-16.663-6.569C38.885.085 32.508-.134 29.244.085zM38.61 4.31c6.487.672 12.63 2.579 15.689 4.855.52.384 1.206 1.07 1.549 1.536.864 1.18 1.275 2.66.85 3.167-.083.11-1.029.562-2.084 1.002-6.02 2.51-11.862 5.636-14.948 8.008-2.097 1.605-5.019 5.294-5.705 7.2-.096.274-.219.494-.26.494-.055 0-.178-.261-.288-.577-.44-1.357-3.223-5.032-4.882-6.459-2.84-2.454-8.736-5.704-15.606-8.612-2.51-1.056-2.565-1.11-2.277-2.373.357-1.577 1.742-3.085 4.046-4.388 3.222-1.824 9.229-3.442 14.59-3.908 2.154-.191 7.187-.164 9.326.055zM8.674 22.411c1.303 1.275 3.497 2.153 9.407 3.771 3.415.933 4.471 1.33 5.924 2.235 2.825 1.77 4.54 3.895 6.912 8.544.617 1.193 1.316 2.386 1.55 2.62.397.41.52.452 1.234.452.713 0 .836-.041 1.22-.439.234-.233.933-1.426 1.55-2.633 2.482-4.813 4.114-6.802 7.103-8.64 1.385-.85 2.592-1.302 5.829-2.139 5.416-1.399 7.816-2.345 9.188-3.592.658-.59.918-.988 1.645-2.496.48-.988.878-1.673.878-1.522.014.453-.26 3.99-.48 6.24-.713 7.253-1.783 11.888-3.565 15.372-3.086 6.034-8.694 9.311-17.951 10.49-2.633.343-8.694.343-11.245 0-6.815-.891-11.45-2.853-14.714-6.24-3.237-3.332-4.993-8.145-6.048-16.606-.302-2.414-.63-5.91-.755-8.16l-.082-1.371.837 1.7c.644 1.317 1.001 1.879 1.563 2.414z" fill="#000"/></svg>