<svg width="67" height="68" fill="none" xmlns="http://www.w3.org/2000/svg"><path d="M31.16.035c-.26.028-1.073.124-1.789.207-12.69 1.445-23.686 10.46-27.733 22.765C.468 26.557 0 29.57 0 33.535c0 2.96.137 4.377.688 7.033 2.67 12.827 12.951 23.11 25.78 25.779 2.655.55 4.073.688 7.032.688 2.959 0 4.377-.137 7.033-.688 12.827-2.67 23.109-12.952 25.778-25.779.552-2.656.689-4.074.689-7.033 0-3.84-.427-6.771-1.514-10.198C61.591 11.047 51.076 2.183 38.111.284c-1.335-.194-5.987-.359-6.95-.249zm7.542 3.359c11.837 2.023 21.457 10.86 24.389 22.42.73 2.863.88 4.17.88 7.652 0 4.088-.302 5.974-1.582 9.772-.51 1.5-2.01 4.776-2.203 4.804-.041.013-4.9-4.13-10.79-9.208-5.89-5.079-10.762-9.263-10.831-9.304-.097-.055-4.515-25.944-4.515-26.467 0-.179 2.78.014 4.652.33zM32.95 3.16c0 .165-4.267 26.99-4.295 27.003-.027.014-4.858 4.13-10.763 9.167-5.89 5.023-10.763 9.152-10.817 9.18-.124.04-1.184-2.106-1.762-3.565-1.61-4.06-2.34-8.162-2.189-12.373.18-4.734 1.156-8.602 3.235-12.731C10.749 11.1 19.24 4.907 28.82 3.476c2.023-.303 4.129-.454 4.129-.316zM45.667 43.5c6.743 2.381 12.676 4.473 13.199 4.638.509.18.922.386.922.44 0 .07-.344.66-.77 1.308-3.51 5.395-8.589 9.552-14.494 11.85-5.918 2.312-12.525 2.698-18.69 1.102-6.277-1.61-12.113-5.423-16.131-10.502-.95-1.197-2.189-2.986-2.243-3.248-.028-.096 4.886-2.023 12.827-5.023 7.074-2.67 12.924-4.86 12.993-4.873.068-.014 5.643 1.927 12.387 4.308z" fill="#fff"/></svg>