<svg width="62" height="27" viewBox="0 0 62 27" fill="none" xmlns="http://www.w3.org/2000/svg">
<path d="M31.5396 25.1366C37.9706 25.1366 43.1839 19.9233 43.1839 13.4923C43.1839 7.06136 37.9706 1.84802 31.5396 1.84802C25.1086 1.84802 19.8953 7.06136 19.8953 13.4923C19.8953 19.9233 25.1086 25.1366 31.5396 25.1366Z" fill="black"/>
<path d="M3.10901 9.37758C3.57939 9.94827 4.14662 10.617 4.80839 11.3502C5.42058 12.0339 6.11463 12.7786 6.88361 13.5615C7.50964 14.1921 8.18293 14.8573 8.90234 15.5295C9.68055 16.2535 10.5072 16.9925 11.3892 17.7373C12.1731 18.4006 12.9971 19.0581 13.861 19.7099C14.8294 20.4401 15.8451 21.1495 16.9081 21.8382H21.9105C23.0819 23.1475 24.5164 24.195 26.1202 24.9122C27.724 25.6293 29.4611 26 31.2179 26C32.9748 26 34.7119 25.6293 36.3157 24.9122C37.9195 24.195 39.3539 23.1475 40.5253 21.8382H45.4574C54.8755 15.7347 60.8579 7.32196 60.8579 7.32196H42.0863C40.9936 5.40208 39.412 3.80579 37.5023 2.69537C35.5926 1.58495 33.4229 1 31.2139 1C29.0048 1 26.8352 1.58495 24.9255 2.69537C23.0158 3.80579 21.4342 5.40208 20.3414 7.32196H1.49725C1.49725 7.32196 2.05756 8.10824 3.1044 9.37758H3.10901ZM9.37042 15.5295C8.67868 14.8885 7.99924 14.2325 7.33209 13.5615H18.7124C18.715 14.2207 18.7694 14.8787 18.8749 15.5295H9.37042ZM52.987 15.5295H43.5505C43.6569 14.8788 43.712 14.2208 43.7154 13.5615H55.0265C54.3563 14.2325 53.6753 14.8885 52.9836 15.5295H52.987ZM58.8322 9.37758C58.3503 9.95403 57.7773 10.6239 57.119 11.3502H43.5298C43.4139 10.68 43.2439 10.0203 43.0213 9.37758H58.8322ZM42.9787 17.7373H50.4725C49.6424 18.4233 48.8054 19.0839 47.9627 19.7099H42.0656C42.4248 19.0792 42.7303 18.4193 42.9787 17.7373ZM31.2133 2.67692C33.3526 2.67714 35.4438 3.31167 37.2225 4.50026C39.0012 5.68886 40.3876 7.37816 41.2063 9.35458C42.025 11.331 42.2393 13.5058 41.8222 15.604C41.405 17.7023 40.3751 19.6297 38.8626 21.1426C37.3502 22.6556 35.4231 23.6861 33.325 24.1039C31.2269 24.5218 29.052 24.3081 27.0753 23.49C25.0987 22.672 23.4089 21.2861 22.2197 19.5078C21.0306 17.7295 20.3954 15.6385 20.3945 13.4992C20.3942 12.0782 20.6738 10.6711 21.2173 9.35814C21.7609 8.0452 22.5577 6.8522 23.5624 5.84724C24.567 4.84228 25.7597 4.04506 27.0725 3.50109C28.3853 2.95712 29.7923 2.67707 31.2133 2.67692ZM20.3622 19.7076H14.3959C13.5532 19.0816 12.7161 18.4209 11.8861 17.735H19.4491C19.696 18.4176 20.0015 19.0776 20.3622 19.7076ZM19.4064 9.37528C19.182 10.0176 19.0112 10.6774 18.8957 11.3479H5.23842C4.58011 10.6216 4.00712 9.95519 3.52636 9.37528H19.4064Z" fill="url(#paint0_linear_1073_21)"/>
<path d="M3.10901 9.37758C3.57939 9.94827 4.14662 10.617 4.80839 11.3502C5.42058 12.0339 6.11463 12.7786 6.88361 13.5615C7.50964 14.1921 8.18293 14.8573 8.90234 15.5295C9.68055 16.2535 10.5072 16.9925 11.3892 17.7373C12.1731 18.4006 12.9971 19.0581 13.861 19.7099C14.8294 20.4401 15.8451 21.1495 16.9081 21.8382H21.9105C23.0819 23.1475 24.5164 24.195 26.1202 24.9122C27.724 25.6293 29.4611 26 31.2179 26C32.9748 26 34.7119 25.6293 36.3157 24.9122C37.9195 24.195 39.3539 23.1475 40.5253 21.8382H45.4574C54.8755 15.7347 60.8579 7.32196 60.8579 7.32196H42.0863C40.9936 5.40208 39.412 3.80579 37.5023 2.69537C35.5926 1.58495 33.4229 1 31.2139 1C29.0048 1 26.8352 1.58495 24.9255 2.69537C23.0158 3.80579 21.4342 5.40208 20.3414 7.32196H1.49725C1.49725 7.32196 2.05756 8.10824 3.1044 9.37758H3.10901ZM9.37042 15.5295C8.67868 14.8885 7.99924 14.2325 7.33209 13.5615H18.7124C18.715 14.2207 18.7694 14.8787 18.8749 15.5295H9.37042ZM52.987 15.5295H43.5505C43.6569 14.8788 43.712 14.2208 43.7154 13.5615H55.0265C54.3563 14.2325 53.6753 14.8885 52.9836 15.5295H52.987ZM58.8322 9.37758C58.3503 9.95403 57.7773 10.6239 57.119 11.3502H43.5298C43.4139 10.68 43.2439 10.0203 43.0213 9.37758H58.8322ZM42.9787 17.7373H50.4725C49.6424 18.4233 48.8054 19.0839 47.9627 19.7099H42.0656C42.4248 19.0792 42.7303 18.4193 42.9787 17.7373V17.7373ZM31.2133 2.67692C33.3526 2.67714 35.4438 3.31167 37.2225 4.50026C39.0012 5.68886 40.3876 7.37816 41.2063 9.35458C42.025 11.331 42.2393 13.5058 41.8222 15.604C41.405 17.7023 40.3751 19.6297 38.8626 21.1426C37.3502 22.6556 35.4231 23.6861 33.325 24.1039C31.2269 24.5218 29.052 24.3081 27.0753 23.49C25.0987 22.672 23.4089 21.2861 22.2197 19.5078C21.0306 17.7295 20.3954 15.6385 20.3945 13.4992C20.3942 12.0782 20.6738 10.6711 21.2173 9.35814C21.7609 8.0452 22.5577 6.8522 23.5624 5.84724C24.567 4.84228 25.7597 4.04506 27.0725 3.50109C28.3853 2.95712 29.7923 2.67707 31.2133 2.67692V2.67692ZM20.3622 19.7076H14.3959C13.5532 19.0816 12.7161 18.421 11.8861 17.735H19.4491C19.696 18.4176 20.0015 19.0776 20.3622 19.7076V19.7076ZM19.4064 9.37528C19.182 10.0176 19.0112 10.6774 18.8957 11.3479H5.23842C4.58011 10.6216 4.00712 9.95519 3.52636 9.37528H19.4064Z" stroke="black" stroke-miterlimit="10"/>
<path d="M31.2133 23.8339C33.2581 23.8339 35.257 23.2275 36.9572 22.0913C38.6574 20.9552 39.9824 19.3404 40.7648 17.4512C41.5471 15.562 41.7517 13.4831 41.3525 11.4777C40.9533 9.47218 39.9684 7.63012 38.5222 6.18445C37.076 4.73878 35.2337 3.75445 33.228 3.35594C31.2224 2.95744 29.1437 3.16266 27.2547 3.94565C25.3657 4.72865 23.7514 6.05424 22.6158 7.75479C21.4803 9.45533 20.8745 11.4544 20.8752 13.4993C20.8754 14.8567 21.1429 16.2007 21.6625 17.4548C22.1822 18.7088 22.9437 19.8481 23.9037 20.8078C24.8637 21.7675 26.0034 22.5287 27.2575 23.0479C28.5117 23.5671 29.8559 23.8342 31.2133 23.8339ZM31.2133 3.92786C33.1059 3.92786 34.956 4.48908 36.5296 5.54054C38.1032 6.59201 39.3297 8.08649 40.054 9.83502C40.7782 11.5835 40.9677 13.5076 40.5985 15.3638C40.2293 17.22 39.3179 18.9251 37.9797 20.2633C36.6414 21.6016 34.9364 22.5129 33.0801 22.8822C31.2239 23.2514 29.2999 23.0619 27.5514 22.3376C25.8028 21.6134 24.3084 20.3869 23.2569 18.8132C22.2054 17.2396 21.6442 15.3895 21.6442 13.4969C21.6442 10.9591 22.6524 8.52513 24.4469 6.73058C26.2415 4.93603 28.6754 3.92786 31.2133 3.92786Z" fill="url(#paint1_linear_1073_21)"/>
<path d="M31.2133 10.8499H29.9059V16.2039H31.2133V10.8499Z" fill="white"/>
<path d="M26.0714 16.2039L27.4156 13.0554V16.2039H28.7346V10.8499H27.2842L25.7658 14.38L24.3743 10.8499H22.8928V16.2039H24.0157V12.9758L25.2966 16.2039H26.0714Z" fill="white"/>
<path d="M33.4903 12.9747L35.9783 16.2039H36.9882V10.8499H35.8514V14.1045V14.1068L33.3473 10.8499H32.3685V16.2039H33.4903V12.9747Z" fill="white"/>
<path d="M39.4692 10.8499H38.1618V16.2039H39.4692V10.8499Z" fill="white"/>
<defs>
<linearGradient id="paint0_linear_1073_21" x1="31.2675" y1="24.0921" x2="31.0669" y2="-13.0348" gradientUnits="userSpaceOnUse">
<stop offset="0.72"/>
</linearGradient>
<linearGradient id="paint1_linear_1073_21" x1="31.1487" y1="-10.1675" x2="31.2398" y2="23.3969" gradientUnits="userSpaceOnUse">
<stop offset="0.98" stop-color="white"/>
</linearGradient>
</defs>
</svg>
