<svg width="52" height="67" viewBox="0 0 52 67" fill="none" xmlns="http://www.w3.org/2000/svg">
<path d="M29.5856 49.5093C29.9743 49.212 30.8431 48.9148 31.3232 48.709C31.3003 47.9774 31.0031 47.2915 31.186 46.6742C31.5061 45.5767 32.2606 45.0966 32.9923 45.0051C33.038 45.028 33.0837 45.1194 33.038 45.1423C32.6264 45.531 32.4664 46.0797 32.3978 46.6742C32.3749 46.9028 32.3292 47.6116 32.535 48.1146C32.9694 47.8859 34.0211 47.5201 34.3641 47.4515C34.4098 46.7199 34.5241 46.0111 34.7299 45.4853C35.1414 44.4564 36.056 43.6333 36.9705 44.1134C37.0163 44.1363 37.062 44.2278 37.0163 44.2506C36.4447 44.4564 36.0788 45.0509 35.7588 45.7368C35.6673 45.9425 35.3472 47.04 35.713 47.2686C35.713 47.2686 35.7359 47.2686 35.7359 47.2915C36.3989 47.1543 36.5133 47.2229 37.222 47.1543C37.3364 46.4455 37.6564 45.8282 37.9308 45.3709C38.3424 44.5707 39.4169 43.9305 40.3772 44.5021C40.4229 44.525 40.4687 44.6393 40.4001 44.6393C39.737 44.7765 39.3026 45.2109 39.074 45.5996C38.9597 45.7825 38.3424 46.6284 38.6624 46.9714H38.7768C39.3484 46.9485 39.7599 47.0629 40.3544 47.1772C40.5373 46.7428 40.6973 46.697 40.8802 46.4684C41.5433 45.6682 42.6636 45.3938 43.0523 46.1483C43.098 46.194 43.098 46.2855 43.0523 46.2855C42.7093 46.3312 42.1377 46.5141 41.8634 46.8571C41.7948 46.9257 41.6119 47.1314 41.4289 47.5201C42.2063 48.1146 42.6407 48.5947 42.8465 49.395C42.8922 49.5321 42.9608 50.3552 42.6864 49.9437C41.4289 48.3661 39.737 48.0231 37.1992 48.2746C34.4784 48.5261 33.2209 48.9377 30.5001 50.4009C32.0091 51.7499 29.7456 53.076 29.3798 51.0869C28.0537 53.0989 26.659 50.561 28.4424 50.1952C26.6133 48.4118 29.1054 47.5887 29.5856 49.5093ZM34.2269 40.8211C35.21 40.501 36.2846 40.158 36.8334 40.0437C36.9248 38.4433 38.4338 36.4541 40.2172 37.14C40.2858 37.1629 40.3315 37.2543 40.2629 37.2772C39.8056 37.4144 38.3424 38.8091 38.8454 39.7008C39.2112 39.7236 40.2172 39.7008 40.5144 39.7236C40.9031 37.9631 42.4349 36.7285 44.1726 37.5287C44.2412 37.5516 44.2869 37.6659 44.2183 37.6659C43.5324 37.7802 41.9777 38.8777 42.1606 39.8151C42.4807 39.8379 43.3495 40.1352 43.8982 40.4324C44.104 39.998 44.3326 39.8379 44.5384 39.6093C45.2929 38.8091 46.8476 38.7405 47.3049 39.5179C47.3506 39.5636 47.3506 39.655 47.3049 39.655C46.6419 39.6322 46.0474 39.7236 45.4758 40.2266C45.3844 40.2952 45.2015 40.5696 44.9957 40.9583C45.5444 41.2555 46.1617 41.8271 46.276 42.3758C46.3675 42.6502 46.4132 42.8788 46.3675 43.1532C46.3446 43.2218 46.2074 43.1532 46.1617 43.1074C44.7213 41.5299 41.5433 40.5467 38.4567 40.9354C36.3989 41.1869 34.3869 41.7585 32.7179 42.4901C33.2895 41.9871 33.7925 41.4384 34.2269 40.8211ZM29.6999 44.3878C29.5627 44.525 29.4255 44.6393 29.3112 44.7765C30.0428 45.7825 28.8768 46.5827 28.5338 45.5767C27.665 46.5141 26.9791 45.4167 27.5507 44.9594C28.2823 44.8451 29.014 44.6622 29.6999 44.3878ZM29.1969 57.8774C29.4027 57.6487 29.9057 57.2143 30.1572 57.0085C29.3798 55.7968 29.8142 54.242 30.5687 54.1277C30.6144 54.1506 30.6373 54.2192 30.6144 54.2649C30.4087 54.5621 30.3172 56.1626 30.9117 56.5055C31.2089 56.2998 31.7805 55.8882 32.032 55.8196C31.5976 54.3564 32.3521 52.3901 33.8153 52.7102C33.8611 52.733 33.8839 52.8245 33.8611 52.8474C32.6722 53.4647 32.6493 55.2938 32.9694 55.4995C33.4495 55.3624 33.9754 55.1566 34.5013 55.1109C34.7299 53.1675 36.4447 52.2986 37.3135 52.8016C37.3592 52.8245 37.3821 52.9388 37.3592 52.9388C36.8791 52.6645 35.0728 54.5164 35.6673 55.0651C36.0788 55.0423 36.559 55.2252 37.0391 55.3395C37.2449 54.2649 38.7539 53.3732 39.3941 54.0591C39.4398 54.1049 39.4398 54.1963 39.4169 54.1963C38.8454 54.3106 38.0909 54.8365 37.9765 55.8425C39.1883 56.4141 39.0511 57.603 38.8454 57.2829C37.7022 55.7739 35.2786 56.0254 33.4267 56.4141C32.3521 56.6427 30.8431 57.6716 30.2029 58.4032C32.1463 59.3178 30.3858 61.0325 29.5627 59.0891C28.2138 61.467 26.8877 59.2949 28.4653 58.6547C26.5447 57.1686 28.5338 56.1626 29.1969 57.8774ZM9.6256 56.0711C7.70505 53.8534 6.08174 51.4527 4.77851 49.0291H25.8131V56.0711H9.6256ZM35.9417 21.6613H51.3975V27.7202H35.9417V21.6613ZM51.3975 12.4701L46.8248 10.8468L41.4975 9.77224L35.5073 8.46901L29.9514 8.0346H25.7216V14.4136H51.3746L51.3975 12.4701ZM3.79537 5.31383C4.41269 5.10805 5.03001 4.92514 5.67019 4.74223C5.89883 4.67364 6.12746 4.60505 6.37896 4.55932C6.63046 4.5136 6.88196 4.49073 7.13346 4.55932L7.22492 4.60505C7.31637 4.65078 7.3621 4.71937 7.40783 4.81083C7.47642 4.97087 7.49928 5.13092 7.52215 5.31383C7.56787 5.67964 7.56787 6.04546 7.52215 6.41128C7.49928 6.70851 7.45355 7.00574 7.33924 7.25724C7.29351 7.37155 7.22492 7.46301 7.13346 7.55446C7.06487 7.62305 6.99628 7.69165 6.92769 7.73737C6.76764 7.85169 6.63046 7.94315 6.44755 8.01174C6.03601 8.19465 5.62446 8.33183 5.19005 8.46901L2.99514 9.22351V10.5725C2.62932 10.7096 2.26351 10.8697 1.89769 11.0069V5.93114C2.53787 5.72537 3.15519 5.5196 3.79537 5.31383ZM2.99514 8.30896C3.72678 8.05746 4.45842 7.80596 5.21292 7.55446C5.44155 7.48587 5.67019 7.41728 5.87596 7.32583L6.03601 7.23437L6.1046 7.18864L6.17319 7.12005L6.24178 7.05146L6.28751 6.98287L6.3561 6.84569C6.37896 6.75424 6.40183 6.68564 6.40183 6.59419C6.42469 6.36555 6.42469 6.15978 6.3561 5.93114L6.31037 5.81683L6.26465 5.72537L6.19605 5.65678L6.1046 5.61105L6.01314 5.58819H5.83024C5.6016 5.61105 5.39583 5.67964 5.16719 5.74823C4.43555 5.97687 3.70392 6.22837 2.97228 6.45701L2.99514 8.30896ZM12.3007 3.0046C12.8037 2.91314 13.2838 2.82169 13.7868 2.77596C13.9468 2.7531 14.1069 2.7531 14.2669 2.7531C14.3355 2.7531 14.427 2.77596 14.4956 2.79882C14.5642 2.82169 14.6099 2.84455 14.6785 2.89028C14.7242 2.93601 14.7699 2.95887 14.8157 3.0046C14.8614 3.05032 14.8842 3.11891 14.9071 3.16464C14.9528 3.2561 14.9757 3.32469 14.9757 3.41614C15.0214 3.71337 15.0443 4.03346 15.0672 4.35355C15.09 4.71937 15.09 5.06233 15.0672 5.40528C15.0672 5.54246 15.0672 5.70251 15.0443 5.83969C15.0214 6.11405 15.0214 6.38842 14.9528 6.66278C14.93 6.73137 14.9071 6.79996 14.8842 6.84569C14.8385 6.93714 14.7928 7.0286 14.7242 7.12005L14.587 7.32583L14.3812 7.46301C14.2898 7.50874 14.2212 7.5316 14.1297 7.57733C13.7639 7.69164 13.3981 7.76024 13.0323 7.85169C12.2778 8.01174 11.5233 8.14892 10.7688 8.30896C10.403 8.37755 10.0371 8.44615 9.67133 8.49187C9.57988 8.51474 9.46556 8.51474 9.3741 8.51474L9.14546 8.49187C9.07687 8.46901 9.03115 8.44615 8.98542 8.42328L8.8711 8.33183L8.77965 8.19465L8.64247 7.44015V5.40528C8.66533 5.17664 8.68819 4.92514 8.73392 4.69651L8.80251 4.49073C8.84824 4.37642 8.89396 4.28496 8.96256 4.19351L9.1226 4.0106L9.25978 3.89628C9.39697 3.80482 9.55701 3.71337 9.73992 3.64478L10.563 3.39328C11.0889 3.23323 11.6833 3.11891 12.3007 3.0046ZM11.7291 4.03346L10.5401 4.30782C10.4487 4.33069 10.3572 4.37642 10.2658 4.39928L10.1743 4.46787L10.0829 4.53646L10.0143 4.60505L9.94569 4.67364L9.8771 4.74223L9.83138 4.83369C9.78565 4.90228 9.76278 4.99373 9.73992 5.06233C9.67133 5.35955 9.67133 5.65678 9.67133 5.95401C9.67133 6.2741 9.67133 6.59419 9.71706 6.89142L9.76278 7.00574L9.83138 7.12005L9.92283 7.21151L10.0143 7.2801L10.1286 7.32583L10.2429 7.34869H10.3801C10.4716 7.34869 10.5401 7.34869 10.6087 7.32583C11.066 7.25724 11.5233 7.16578 11.9806 7.07433C12.3464 7.00574 12.7351 6.91428 13.1009 6.82283C13.1695 6.79996 13.2609 6.7771 13.3295 6.75424L13.4438 6.68564L13.5582 6.61705L13.6496 6.5256L13.7411 6.43414L13.8097 6.31983L13.8554 6.20551L13.9011 6.09119C13.9697 5.74823 13.9468 5.42814 13.9468 5.08519C13.9468 4.90228 13.9468 4.71937 13.924 4.55932L13.9011 4.42214C13.8782 4.33069 13.8554 4.23923 13.8097 4.14778L13.7639 4.05632L13.7182 3.98773L13.6496 3.91914L13.6039 3.89628L13.5124 3.85055L13.421 3.82769L13.2381 3.80482C13.0323 3.80482 12.8494 3.82769 12.6665 3.85055C12.3464 3.91914 12.0263 3.98773 11.7291 4.03346ZM19.2741 2.15864C19.8457 2.11291 20.4172 2.06719 20.9888 2.06719H21.3547C21.4918 2.06719 21.6062 2.09005 21.7205 2.15864C21.7662 2.1815 21.8119 2.20437 21.8348 2.22723C21.9262 2.29582 21.9948 2.36441 22.0406 2.47873C22.0863 2.54732 22.1092 2.63878 22.132 2.70737C22.1777 2.89028 22.1777 3.09605 22.1777 3.27896C22.1777 3.53046 22.1777 3.7591 22.1549 4.0106C22.1549 4.10205 22.132 4.19351 22.1092 4.28496L22.0634 4.37642C22.0177 4.44501 21.9948 4.49073 21.9491 4.55932L21.8348 4.65078C21.7891 4.67364 21.7433 4.71937 21.6747 4.74223C21.6062 4.7651 21.5147 4.78796 21.4461 4.81083L20.8288 4.94801L21.4461 5.29096C21.5376 5.35955 21.6062 5.40528 21.6747 5.47387L21.7433 5.56533C21.8348 5.70251 21.9034 5.83969 21.972 5.99973C22.0634 6.2741 22.1092 6.54846 22.1092 6.82283C21.7433 6.84569 21.3775 6.84569 21.0117 6.86855C20.9888 6.66278 20.966 6.47987 20.8974 6.2741L20.8059 6.04546L20.7602 5.93114L20.6916 5.83969L20.623 5.74823L20.5316 5.67964L20.4172 5.61105C20.3487 5.58819 20.2801 5.56533 20.2115 5.56533C20.0743 5.54246 19.9142 5.56533 19.7771 5.56533C19.0683 5.61105 18.3824 5.67964 17.6736 5.74823L17.3992 5.7711V7.12005C17.0334 7.16578 16.6676 7.21151 16.3018 7.23437V2.43301C17.3078 2.31869 18.2909 2.22723 19.2741 2.15864ZM17.4221 4.94801C18.1537 4.87942 18.8854 4.81082 19.617 4.7651L20.3715 4.69651C20.4401 4.69651 20.5087 4.67364 20.5773 4.65078L20.6687 4.62792L20.7602 4.58219L20.8288 4.53646L20.8974 4.46787L20.9431 4.39928L20.9888 4.33069C21.0117 4.2621 21.0346 4.21637 21.0346 4.14778C21.0574 3.94201 21.0574 3.73623 21.0574 3.53046C21.0574 3.46187 21.0346 3.39328 21.0117 3.30182L20.966 3.23323L20.9202 3.16464L20.8517 3.09605L20.7831 3.05032L20.7145 3.0046L20.623 2.98173C20.5544 2.95887 20.4858 2.95887 20.4172 2.95887C20.0514 2.95887 19.6856 3.0046 19.3427 3.02746C18.7025 3.07319 18.0852 3.14178 17.445 3.18751L17.4221 4.94801ZM25.1958 6.06833H26.4533C26.7276 6.06833 27.0248 6.06833 27.3221 6.04546C27.3907 6.04546 27.4364 6.0226 27.505 6.0226C27.5736 5.99973 27.6193 5.97687 27.665 5.95401L27.7336 5.90828L27.7793 5.83969L27.8251 5.7711L27.8479 5.70251L27.8708 5.54246V5.31383L27.8251 5.06233L27.8022 4.99373L27.7793 4.92514L27.7336 4.85655L27.665 4.81083L27.5964 4.7651L27.4364 4.71937L27.162 4.67364H24.5098C24.2812 4.67364 24.0526 4.67364 23.8468 4.62792C23.7782 4.60505 23.7325 4.60505 23.6868 4.58219L23.6182 4.53646L23.5496 4.49073L23.5038 4.44501L23.4581 4.37642L23.4124 4.30782C23.3667 4.21637 23.3209 4.12492 23.2981 4.03346C23.2523 3.78196 23.2523 3.5076 23.2523 3.2561C23.2523 2.93601 23.2752 2.61591 23.4124 2.31869C23.4352 2.27296 23.481 2.22723 23.5038 2.1815C23.6639 2.04432 23.8697 1.97573 24.0754 1.93C24.2812 1.88428 24.5098 1.88428 24.7156 1.88428H26.2246C27.0477 1.88428 27.8937 1.90714 28.7168 1.93V2.66164C27.6193 2.63878 26.5218 2.61591 25.4244 2.61591C25.1729 2.61591 24.9214 2.61591 24.6699 2.63878C24.6242 2.63878 24.5556 2.66164 24.5098 2.66164L24.4184 2.70737L24.3498 2.77596L24.3041 2.86741L24.2812 2.95887L24.2583 3.11891V3.5076L24.2812 3.59905L24.3041 3.69051L24.3727 3.78196L24.487 3.85055L24.6013 3.87342C25.7445 3.89628 26.9105 3.91914 28.0537 3.96487L28.1909 3.98773C28.3738 4.03346 28.5567 4.10205 28.6939 4.23923C28.7625 4.30782 28.8082 4.37642 28.8311 4.44501C28.9454 4.69651 28.9683 4.99373 28.9683 5.2681C28.9683 5.58819 28.9683 5.90828 28.8768 6.20551C28.8539 6.25124 28.8539 6.29696 28.8311 6.34269L28.7625 6.43414C28.7168 6.50274 28.671 6.54846 28.6024 6.59419C28.4881 6.66278 28.3738 6.73137 28.2595 6.75424C28.0766 6.79996 27.8708 6.79996 27.6879 6.82283C27.1163 6.84569 26.5676 6.84569 25.996 6.84569C25.1043 6.84569 24.2126 6.86855 23.3438 6.86855V6.09119C23.9383 6.06833 24.5327 6.06833 25.1272 6.06833H25.1958ZM32.7636 7.07433C32.3063 7.0286 31.8262 7.00574 31.3689 6.93714C31.1632 6.91428 30.9574 6.86855 30.7745 6.79996C30.683 6.75424 30.5916 6.73137 30.5001 6.66278C30.4315 6.61705 30.3858 6.57133 30.3172 6.5256C30.2715 6.47987 30.2258 6.41128 30.18 6.36555C30.1343 6.29696 30.1114 6.22837 30.0886 6.15978C30.02 5.90828 29.9971 5.63392 29.9971 5.35955C29.9743 4.69651 29.9743 4.05632 29.9971 3.39328V3.23323C30.02 2.93601 30.0428 2.63878 30.2258 2.38728C30.2943 2.31869 30.3401 2.2501 30.4315 2.20437C30.6602 2.09005 30.9345 2.04432 31.186 2.02146C31.4604 1.9986 31.7119 1.9986 31.9863 2.02146C32.5121 2.04432 33.0608 2.06719 33.5867 2.11291C34.3641 2.1815 35.1186 2.2501 35.8959 2.34155V3.21037C34.8671 3.11891 33.8611 3.02746 32.8322 2.95887C32.5121 2.93601 32.1692 2.91314 31.8262 2.93601L31.6662 2.95887L31.5518 2.98173L31.4604 3.02746L31.3689 3.09605L31.2775 3.18751L31.2089 3.27896L31.1632 3.39328C31.1403 3.46187 31.1174 3.53046 31.1174 3.59905C31.0717 3.91914 31.0488 4.2621 31.0717 4.60505C31.0717 4.87942 31.0717 5.15378 31.1174 5.42814C31.1403 5.49673 31.1403 5.56533 31.1632 5.63392L31.2089 5.74823L31.2775 5.83969L31.3689 5.93114L31.4604 5.99973L31.5518 6.04546L31.6662 6.09119C31.7576 6.11405 31.8491 6.13692 31.9405 6.13692C32.2378 6.18264 32.5578 6.20551 32.8551 6.22837C33.8839 6.31983 34.9357 6.41128 35.9645 6.5256V7.41728C35.3244 7.34869 34.6613 7.2801 34.0211 7.23437C33.6324 7.14292 33.198 7.12005 32.7636 7.07433ZM39.7599 4.90228L42.2978 5.38242V3.43901C42.6864 3.53046 43.0751 3.62192 43.4867 3.69051V8.69765C43.098 8.60619 42.7093 8.51474 42.2978 8.42328V6.45701C41.6119 6.31983 40.9488 6.18264 40.2629 6.04546C39.6456 5.93114 39.0054 5.81683 38.3881 5.70251V7.64592C37.9994 7.57733 37.6107 7.5316 37.1992 7.46301V2.59305C37.5879 2.63878 37.9994 2.68451 38.3881 2.7531V4.67364C38.8454 4.74223 39.3026 4.81082 39.7599 4.90228ZM48.7453 5.22237C49.1569 5.35955 49.5684 5.49673 50.0028 5.63392V6.45701C48.791 6.04546 47.5564 5.65678 46.3218 5.2681L45.9102 5.15378V6.41128C46.8019 6.68564 47.7165 6.96001 48.6081 7.25724C48.9968 7.39442 49.4084 7.50874 49.797 7.64592V8.37755C48.6539 7.98887 47.4878 7.62305 46.3218 7.2801L45.9102 7.16578V8.49187C46.779 8.74337 47.6479 9.01774 48.4938 9.2921C48.9968 9.45215 49.4998 9.63506 50.0257 9.7951V10.6411C48.3795 10.0923 46.7104 9.58933 45.0185 9.10919L44.8356 9.06346V4.03346C46.1389 4.39928 47.4421 4.81082 48.7453 5.22237ZM1.8291 42.01C1.09746 39.5636 0.708777 37.2772 0.685913 35.3109H16.0046C16.0503 37.8945 17.1249 40.2724 18.8168 42.01H1.8291Z" fill="white"/>
<path d="M0 5.08522L0.297227 4.97091C8.84823 1.81572 17.3764 0.169538 25.9274 0.00949272C34.4784 -0.127689 43.0065 1.22127 51.5575 4.10209L51.8776 4.21641V4.5365L51.6719 35.3338C51.649 40.6382 48.8596 48.0918 43.601 54.6079C39.3712 59.8665 33.5181 64.5307 26.2017 67H25.9502C18.5653 65.1023 12.7351 60.621 8.48242 55.3853C3.04087 48.6405 0.2515 40.5925 0.228637 35.1281C0.182909 30.1667 0.160046 25.2052 0.114318 20.2667L0 5.08522ZM9.96855 55.7968H25.5158V49.555H5.57873C5.51014 49.4407 5.44155 49.3264 5.39582 49.2121C6.47041 51.1326 7.72791 53.0303 9.16833 54.8365C9.44269 55.1566 9.69419 55.4767 9.96855 55.7968ZM25.5387 56.5742H10.6773C14.5184 60.7811 19.4798 64.2792 25.5387 65.9711V56.5742ZM10.6316 56.5284C10.5859 56.4827 10.5401 56.437 10.5173 56.3913C10.5401 56.437 10.5859 56.4827 10.6316 56.5284ZM10.3572 56.2312C10.3344 56.2084 10.3344 56.2084 10.3344 56.1855C10.3344 56.2084 10.3572 56.2312 10.3572 56.2312ZM5.14432 48.7548H25.5387V45.0738H26.3389V65.994C26.3161 65.994 26.2932 66.0169 26.2932 66.0169C33.2438 63.5933 38.8225 59.112 42.8922 54.0592C47.9451 47.7945 50.643 40.6611 50.7573 35.5396V35.5853H36.056C36.056 35.4253 36.0788 35.2652 36.0788 35.1052V34.7851H50.7802C50.803 32.5902 50.803 30.3953 50.8259 28.2232H36.0788V27.4459H50.8259C50.8488 25.6625 50.8488 23.902 50.8716 22.1415H36.0788V21.3641H35.9645V21.3413H50.8716C50.8945 19.1921 50.8945 17.0658 50.9174 14.9166H26.1103V21.3641H25.3101V8.40045C17.1706 8.53764 9.00828 10.161 0.823091 13.339L0.800228 12.5159C9.21405 9.26927 17.6279 7.66882 26.0188 7.60023C34.3412 7.53164 42.6407 8.97205 50.9174 11.83V12.6531C50.9402 10.0466 50.9631 7.44018 50.9631 4.85659C42.6179 2.09009 34.2726 0.786857 25.9502 0.924039C17.4907 1.06122 9.05401 2.68454 0.617319 5.81686L1.02886 20.2667C1.07459 25.1138 1.09746 29.9609 1.14318 34.8308V34.808H16.0274V35.1281C16.0274 35.2881 16.0274 35.4482 16.0503 35.6082H1.12032C1.16605 37.4373 1.55473 39.5636 2.21777 41.8043C2.21777 41.7814 2.19491 41.7585 2.19491 41.7357H18.5196C18.6567 41.8957 18.7939 42.0558 18.954 42.1929L19.457 42.5359H2.44641C3.10946 44.5479 4.00114 46.6513 5.14432 48.7548ZM5.37296 49.1892C5.37296 49.1892 5.37296 49.1664 5.3501 49.1664C5.37296 49.1664 5.37296 49.1892 5.37296 49.1892ZM5.3501 49.1435C5.32723 49.1206 5.32723 49.0978 5.30437 49.0749C5.32723 49.0978 5.32723 49.1206 5.3501 49.1435ZM5.21291 48.9148C5.21291 48.892 5.21291 48.892 5.21291 48.9148C5.21291 48.892 5.21291 48.892 5.21291 48.9148ZM2.40068 42.3758C2.37782 42.3301 2.37782 42.2844 2.35496 42.2615C2.37782 42.3073 2.40068 42.3301 2.40068 42.3758ZM2.30923 42.0786C2.28637 42.0329 2.28637 41.9872 2.2635 41.9414C2.28637 41.9872 2.30923 42.0329 2.30923 42.0786ZM50.7344 35.3338C50.7344 35.3338 50.7344 35.3567 50.7344 35.3338C50.7344 35.3567 50.7344 35.3338 50.7344 35.3338ZM50.7344 35.2652V35.2424V35.2652ZM50.7344 35.1967V35.1738V35.1967ZM50.7344 34.8537C50.7344 34.8537 50.7344 34.8308 50.7344 34.8537V34.8308V34.8537ZM26.1103 14.1392H50.8945V12.676C42.6407 9.79514 34.3869 8.35473 26.1103 8.40045V14.1392ZM26.0646 66.0854C26.0417 66.0854 26.0417 66.0855 26.0188 66.1083C26.0417 66.1083 26.0417 66.1083 26.0646 66.0854ZM25.7445 66.0397C25.6759 66.0169 25.6302 66.0169 25.5616 65.994C25.6302 65.994 25.6987 66.0169 25.7445 66.0397ZM26.2475 66.0169C26.2703 66.0169 26.2703 66.0169 26.2475 66.0169C26.2703 66.0169 26.2703 66.0169 26.2475 66.0169Z" fill="white"/>
<path d="M4.36694 17.7287C4.80135 17.4544 5.25862 17.18 5.71589 16.9514C5.6473 16.2426 5.57871 15.1452 5.76162 14.5507C6.10458 13.4532 7.11058 12.5616 8.29949 12.7673C8.36808 12.7902 8.41381 12.8588 8.36808 12.8817C7.70503 13.2246 7.17917 13.7505 6.88194 14.4821C6.79049 14.6879 6.4704 16.1512 6.95053 16.2655C6.99626 16.2883 7.04199 16.2883 7.11058 16.2883C7.9794 15.9225 8.87108 15.6024 9.78563 15.3281C9.78563 14.6193 9.80849 13.6362 10.06 13.1103C10.5173 12.0814 11.6604 11.3269 12.8951 11.6927C12.9637 11.7156 13.0094 11.8071 12.9637 11.8299C12.232 12.0814 11.6376 12.5158 11.2489 13.2017C11.1346 13.4075 10.6544 14.8022 11.1574 14.9851H11.1803C12.0263 14.8022 12.8951 14.6422 13.8325 14.5278C13.9468 13.8191 14.1297 12.9045 14.4498 12.4244C15.1357 11.4184 16.5075 10.7325 17.7879 11.2126C17.8565 11.2355 17.9022 11.3269 17.8336 11.3498C16.9877 11.5556 16.256 11.9442 15.7302 12.6073C15.593 12.7902 14.8842 14.0706 15.2958 14.3678C15.3415 14.3678 15.3872 14.3678 15.4329 14.3449C16.1646 14.2763 17.0105 14.2535 17.8108 14.2992C18.0165 13.8648 18.2223 13.4761 18.4509 13.2246C19.2512 12.4015 21.0117 12.1043 21.5375 12.8131C21.5833 12.8588 21.6061 12.9502 21.5375 12.9502C20.783 12.9731 20.0057 13.0874 19.4341 13.6133C19.3426 13.7047 19.0225 14.0248 18.8396 14.3907C20.0514 14.5964 21.0803 15.008 21.4004 15.7853C21.5147 16.0368 21.5833 16.2655 21.5375 16.5398C21.5375 16.6084 21.3775 16.5627 21.3318 16.4941C19.7999 15.0766 17.3535 14.9165 14.084 15.4881C10.7688 16.0597 8.00226 17.0428 5.02998 18.4604C6.21889 19.8093 4.34407 20.8382 3.72676 19.4207C2.28635 21.1354 0.960253 18.6433 2.92653 18.3461C1.80621 16.6084 4.06971 16.5398 4.36694 17.7287ZM4.77848 31.4012C5.16717 31.104 5.67017 30.8525 6.08171 30.601C5.67017 29.9379 5.41867 28.9777 5.57871 28.3603C5.85308 27.2629 6.53899 26.737 7.38494 26.7828C7.45353 26.7828 7.49926 26.8742 7.45353 26.8971C6.85908 27.2858 6.76762 27.7888 6.58471 28.5433C6.49326 28.9548 6.7219 29.6407 7.01912 29.8922C7.77362 29.4807 7.75076 29.5493 8.55099 29.252C8.32235 28.5433 8.36808 27.583 8.66531 26.9885C9.12258 26.0283 9.87708 25.6624 10.6316 25.8225C10.7002 25.8453 10.7459 25.9139 10.6773 25.9368C10.0829 26.1883 8.87108 27.1486 9.67131 28.9548C10.4029 28.7033 10.4487 28.6576 11.3861 28.4518C11.4547 27.743 11.4775 26.8971 11.7519 26.3941C12.3235 25.3652 13.6724 24.8851 14.2898 25.1366C14.3584 25.1594 14.4041 25.2509 14.3355 25.2738C13.9925 25.5024 13.5353 25.6853 13.078 26.3712C12.8265 26.737 12.3921 27.583 12.5064 28.1546C13.1694 28.0631 14.0383 28.0174 14.7928 28.0403C14.9528 27.6058 15.2729 27.08 15.4787 26.8285C15.6159 26.6684 15.7988 26.5313 15.9817 26.4627V29.0234C14.7242 28.9548 13.3295 29.092 12.0034 29.4121C9.00826 30.1209 8.2309 30.6696 5.55585 32.11C7.1563 33.116 5.60158 34.6479 4.61844 33.1389C2.8808 35.128 1.76048 32.5673 3.56671 32.1786C2.19489 30.5095 4.43553 29.6179 4.77848 31.4012ZM4.00112 24.5878C4.45839 24.3135 5.07571 24.1077 5.53299 23.8791C5.48726 23.1703 5.3958 22.5301 5.60158 21.9357C5.96739 20.8611 6.53899 20.3123 7.45353 20.4038C7.52212 20.4267 7.56785 20.4953 7.52212 20.541C6.85908 20.8839 7.01912 21.3412 6.7219 22.05C6.63044 22.2558 6.4018 23.1246 6.88194 23.2618C6.92767 23.2846 6.9734 23.2846 7.04199 23.2846C7.91081 22.9417 7.59071 22.9645 8.4824 22.7359C8.50526 22.05 8.55099 21.1126 8.77962 20.6096C9.25976 19.6264 10.1514 19.1463 10.9745 19.3521C11.0431 19.3749 11.1803 19.535 11.1117 19.5578C10.4487 19.7636 9.30549 21.1126 9.78563 22.1643C10.3572 22.0728 10.7459 21.8899 11.7748 21.7528C11.9119 21.044 12.1406 20.3352 12.4835 19.8551C13.1923 18.8719 14.2898 18.6662 14.9299 18.9634C14.9985 18.9862 15.09 19.1692 15.0214 19.192C14.1754 19.3749 14.1526 19.2835 13.6039 19.9465C13.3066 20.2895 12.7122 21.2269 13.1466 21.6613C13.8782 21.6156 14.3812 21.5241 15.1814 21.5927C15.3872 21.1812 15.5473 20.6096 15.7759 20.3809C16.5761 19.5578 17.9708 19.4893 18.4281 20.038C18.4738 20.0837 18.4967 20.1752 18.4281 20.1752C17.6736 20.198 17.3992 20.4038 16.8048 20.9297C16.7362 20.9754 16.599 21.1583 16.4389 21.3869H16.0045V22.8045C14.7699 22.6902 13.4209 22.7359 12.1634 22.9188C8.84821 23.4218 7.63644 24.1763 4.8928 25.5024C6.05885 26.8742 4.16117 27.8345 3.58957 26.3941C2.1263 28.086 0.823072 25.5481 2.83507 25.2966C1.71475 23.4904 3.68103 23.0103 4.00112 24.5878Z" fill="white"/>
<path d="M35.5758 21.8443V35.1281C35.5758 40.3638 31.3003 44.6165 26.0188 44.6165C20.7602 44.6165 16.4618 40.3638 16.4618 35.1281V21.8443H35.5758ZM36.0331 21.3641H15.9817V35.1052C15.9817 40.5696 20.4858 45.0737 25.996 45.0737C31.529 45.0737 36.0103 40.5696 36.0103 35.1052L36.0331 21.3641Z" fill="white"/>
<path d="M25.5844 31.104C25.6759 31.1955 25.8817 31.0812 25.9503 30.9897C26.1103 30.7382 26.0874 30.4181 26.1103 30.098C26.1332 29.7551 26.1332 29.4579 26.0188 29.1378C25.8359 28.589 25.5844 28.1546 24.9671 28.0632C24.8985 28.0403 24.7613 28.1775 24.8071 28.2232C25.2186 28.6576 25.3787 28.6348 25.493 29.2978C25.6073 29.938 25.5387 31.0583 25.5844 31.104ZM21.2632 39.0835C21.3547 39.1063 21.5604 38.832 21.629 38.6719C21.6976 38.5347 21.6748 38.2604 21.6748 38.2375C21.6519 38.1918 21.4233 38.2832 21.3089 38.2832C21.1946 38.2832 21.1032 38.2604 20.9431 38.2375C20.7831 38.2146 20.8059 37.8488 20.7831 37.643C20.7373 37.1172 20.7145 36.5913 20.7373 36.0655C20.7373 35.9283 20.7831 35.7454 20.8974 35.6539C21.0574 35.5624 21.2861 35.5853 21.469 35.6082C21.8348 35.6768 22.1778 35.8597 22.5664 35.9283C22.7722 35.974 23.0008 35.9511 23.2066 35.8825C23.3895 35.8368 23.5267 35.6996 23.6868 35.631C23.7782 35.6082 23.8925 35.5853 23.9611 35.631C24.2583 35.7911 24.4641 36.0883 24.7613 36.2026C25.15 36.317 25.5616 36.2712 25.9731 36.2941C26.2932 36.2941 26.6133 36.2484 26.9334 36.2941C27.0706 36.317 27.2992 36.3398 27.3449 36.4999C27.3907 36.7056 27.0477 36.8885 27.0934 37.0943C27.1849 37.4144 27.5507 37.5745 27.7108 37.8488C27.7793 37.9631 27.7565 38.1003 27.7108 38.2146C27.665 38.3061 27.505 38.329 27.4364 38.4204C27.3449 38.5576 27.3221 38.7176 27.2306 38.8548C27.1392 38.992 27.002 39.1063 26.8648 39.2206C26.5676 39.4493 26.2703 39.6779 25.9274 39.8608C25.8131 39.9294 25.6073 39.7922 25.5616 39.9065C25.4701 40.1123 25.3787 40.3638 25.2872 40.501C25.1958 40.6382 25.0814 40.661 25.0128 40.7296C24.9443 40.8211 24.8528 40.9811 24.8985 41.004C24.9443 41.0269 25.3787 41.0269 25.5387 41.004C25.6988 40.9811 25.7902 40.9583 25.8359 40.9354C25.8817 40.8897 25.8131 40.7525 25.7673 40.4781C25.7445 40.2038 26.499 40.0895 26.8648 39.8837C27.2535 39.6322 27.6422 39.3578 28.0309 39.1292C28.1909 39.0377 28.4195 39.0149 28.5567 38.8777C28.6253 38.8091 28.6024 38.6948 28.6024 38.6033C28.6024 38.3747 28.5567 38.146 28.5567 37.9174C28.5567 37.8031 28.5567 37.6659 28.6482 37.5973C28.7168 37.5287 28.8539 37.5059 28.9225 37.5516C29.0597 37.6202 29.0826 37.826 29.1969 37.9174C29.3798 38.0546 29.6084 38.1003 29.8142 38.1918C29.9971 38.2832 30.3172 38.2832 30.3401 38.4661C30.3858 38.8091 30.1572 39.1292 30.02 39.4264C29.9514 39.5865 29.7913 39.6779 29.6999 39.838C29.6542 39.9294 29.6542 40.0437 29.5856 40.1123C29.4027 40.2952 29.1512 40.4095 28.9683 40.5925C28.8311 40.7296 28.7168 40.8668 28.6482 41.0269C28.6024 41.1183 28.5796 41.2098 28.5338 41.3012C28.4653 41.3927 28.3509 41.4155 28.2823 41.5527C28.2138 41.6899 28.0537 42.0557 28.1909 42.0329C28.3281 42.01 29.1283 41.8728 29.1512 41.7814C29.174 41.7128 29.1054 41.507 29.0597 41.2555C29.014 41.004 29.5856 40.8211 29.8599 40.661C30.02 40.5696 30.2486 40.6153 30.3858 40.501C30.4773 40.4324 30.4315 40.2724 30.4544 40.1809C30.523 40.0209 30.5687 39.838 30.7059 39.7008C30.8659 39.5179 31.1403 39.4493 31.2775 39.2664C31.4147 39.0377 31.5747 38.7634 31.529 38.5119C31.4833 38.3061 31.2318 38.2375 31.0946 38.0775C30.9803 37.9631 30.8659 37.826 30.8202 37.6659C30.7516 37.4373 30.7059 37.2086 30.7745 36.98C30.8659 36.7056 31.1403 36.5227 31.3004 36.2941C31.4375 36.0883 31.6433 35.9283 31.7119 35.6996C31.7805 35.4253 31.6433 35.128 31.6204 34.8537C31.6204 34.8079 31.5747 34.7394 31.6204 34.6936C31.8034 34.5336 32.0091 34.3278 32.2606 34.2821C32.4893 34.2592 32.6722 34.4879 32.9008 34.5336C33.1294 34.5564 33.4038 34.5793 33.6324 34.4879C33.701 34.465 33.7239 34.3049 33.6782 34.2364C33.5181 34.0992 33.1752 34.1449 33.1066 33.962C33.0609 33.8019 33.3809 33.7562 33.4724 33.5962C33.5867 33.3904 33.6782 33.1618 33.6782 32.9103C33.6782 32.8188 33.4953 32.8188 33.4267 32.8645C33.3124 32.9331 33.3124 33.0932 33.2209 33.1846C33.1523 33.2532 33.038 33.2761 32.9465 33.2761C32.8551 33.2761 32.7179 33.2304 32.6722 33.1618C32.6036 33.0932 32.5579 32.9331 32.6264 32.8874C32.8094 32.7731 33.0609 32.8188 33.2666 32.7731C33.3581 32.7502 33.4724 32.7274 33.5181 32.6588C33.5867 32.5216 33.5867 32.3615 33.5181 32.2244C33.4953 32.1558 33.3809 32.1558 33.3124 32.1786C33.2209 32.2015 33.1752 32.3387 33.0609 32.3387C32.9237 32.3387 32.7865 32.2701 32.695 32.1786C32.6264 32.0872 32.6036 31.95 32.6493 31.8585C32.7179 31.6985 32.9465 31.6528 33.0151 31.4927C33.1066 31.2869 33.1752 31.0354 33.1294 30.8068C33.1066 30.7154 32.9237 30.6696 32.8551 30.7382C32.7408 30.8068 32.7636 30.9669 32.695 31.0583C32.6036 31.1955 32.5579 31.4013 32.4207 31.4699C32.3292 31.5156 32.1692 31.4241 32.1463 31.3098C32.1006 31.1269 32.2149 30.944 32.2606 30.7839C32.3292 30.601 32.4207 30.4181 32.535 30.2581C32.6493 30.098 32.8779 30.0294 32.9694 29.8465C33.038 29.7094 33.1066 29.5264 33.0151 29.4121C32.9465 29.3207 32.7865 29.3893 32.695 29.4579C32.6264 29.5036 32.6493 29.6636 32.5807 29.7094C32.3749 29.8008 32.1234 29.7322 31.9405 29.8237C31.7805 29.9151 31.7119 30.0752 31.6204 30.2352C31.4604 30.5096 31.4375 30.9897 31.3689 31.0354C31.3004 31.104 31.1403 31.0812 31.0946 30.9897C31.026 30.8754 31.1403 30.6925 31.0489 30.5782C30.9803 30.5096 30.7973 30.5096 30.7288 30.5782C30.6373 30.6696 30.6144 30.8068 30.6144 30.944C30.6144 31.1498 30.6373 31.3555 30.7288 31.5384C30.8888 31.8357 31.1403 32.0643 31.3461 32.3387C31.5519 32.613 31.8034 32.8645 31.9177 33.1846C31.9863 33.3904 32.0091 33.6419 31.9177 33.8248C31.8491 34.0077 31.6662 34.1906 31.4833 34.1906C31.2318 34.1678 31.0489 33.8934 30.8431 33.7562C30.6373 33.619 30.4315 33.4361 30.2029 33.3904C29.677 33.2989 29.1283 33.3904 28.5796 33.3904C28.0994 33.3904 27.5964 33.459 27.1163 33.3904C26.8877 33.3675 26.6362 33.2761 26.4761 33.116C26.3161 32.956 26.2018 32.7274 26.2018 32.5216C26.1789 32.2244 26.2932 31.95 26.4075 31.6756C26.499 31.4927 26.6362 31.3098 26.8191 31.1955C26.9563 31.104 27.1849 31.0583 27.3221 31.104C27.4821 31.1726 27.9165 31.7671 28.008 31.7442C28.0994 31.7214 28.0308 31.1955 27.9851 31.0354C27.8937 30.7839 27.6193 30.6468 27.5507 30.3953C27.5278 30.3267 27.6422 30.2352 27.7108 30.2352C27.8479 30.2352 28.008 30.3267 28.1223 30.441C28.1909 30.4867 28.4881 30.9211 28.5567 30.8983C28.6253 30.8754 28.511 30.2809 28.4424 30.098C28.3281 29.8465 27.9623 29.6636 27.9394 29.595C27.9165 29.5493 27.9394 29.5036 28.008 29.4807C28.1452 29.4807 28.2823 29.5493 28.4195 29.595C28.5338 29.6408 28.7168 29.7779 28.7853 29.7551C28.8539 29.7322 28.7854 29.5264 28.7168 29.435C28.4653 29.1378 28.1223 28.9549 27.8708 28.6805C27.7336 28.5433 27.5964 28.3604 27.5964 28.1546C27.5964 28.0403 27.7336 27.926 27.8479 27.8803C28.0537 27.7888 28.3281 27.7431 28.511 27.6288C28.5796 27.583 28.5338 27.5373 28.4653 27.5144C28.168 27.4001 27.8479 27.3544 27.5278 27.3544C27.3449 27.3544 27.1849 27.4687 27.002 27.5144C26.8877 27.5602 26.7733 27.6288 26.6362 27.6288C26.4075 27.6288 26.156 27.6516 25.996 27.5144C25.9045 27.423 26.0188 27.2401 26.0874 27.1029C26.156 26.9886 26.2703 26.92 26.3618 26.8285C26.4304 26.7599 26.6362 26.6914 26.5676 26.6685C26.499 26.6456 26.1332 26.6456 25.9274 26.7142C25.7445 26.7599 25.5844 26.8285 25.4473 26.9657C25.3329 27.08 25.3558 27.3315 25.1958 27.4001C24.9214 27.5602 24.7842 27.5144 24.487 27.6516C24.4184 27.6974 24.2583 27.8803 24.1898 27.9031C23.8239 27.9489 23.0923 27.7659 23.0694 27.8345C23.0237 27.9031 23.641 28.2461 23.7553 28.5662C23.8011 28.7034 23.4581 28.4976 23.3209 28.5204C23.0923 28.5433 22.8637 28.589 22.6808 28.6805C22.4978 28.7719 22.3378 28.932 22.2006 29.092C22.0634 29.2292 21.9948 29.4121 21.8348 29.5264C21.7662 29.5722 21.6062 29.5036 21.5604 29.5722C21.4918 29.6636 21.469 29.8694 21.5833 29.8694L22.2235 29.9151C22.3378 29.9151 22.1092 30.1666 22.1778 30.2809C22.2235 30.3495 22.3835 30.3267 22.4521 30.2809C22.5436 30.2352 22.5893 30.098 22.7036 30.0294C22.8179 29.9609 22.9323 29.8694 23.0694 29.8694C23.2295 29.8694 23.4353 29.938 23.5038 30.0752C23.5724 30.2124 23.4124 30.3724 23.3895 30.5096C23.3667 30.6696 23.4581 30.8754 23.3438 30.9897C23.0008 31.3098 22.8865 31.0354 22.3835 31.6756C21.972 32.1786 22.1549 31.9043 22.0177 32.5673C21.9948 32.7045 21.972 32.8417 21.8577 32.9331C21.7433 33.0017 21.5604 33.0474 21.4461 32.9789C21.2175 32.8645 21.0803 32.6359 20.9203 32.4073C20.8288 32.2929 20.8745 32.0872 20.7602 31.9957C20.6002 31.9043 20.3715 31.9043 20.1886 31.95C20.0514 31.9957 19.9828 32.1558 19.9143 32.2701C19.7313 32.5216 19.5942 32.8188 19.4341 33.0703C19.2969 33.2761 19.114 33.459 18.9997 33.6648C18.9311 33.7791 18.9768 33.9163 18.9083 34.0306C18.7711 34.3507 18.6568 34.6479 18.4967 34.9451C18.4281 35.0595 18.2909 35.128 18.2452 35.2652C18.2223 35.4024 18.2681 35.6996 18.3367 35.6996C18.4052 35.6996 18.6339 35.5396 18.7711 35.4481C18.9311 35.3795 19.2283 35.2881 19.2512 35.2424C19.2741 35.1966 19.0912 35.0366 18.9997 34.9223C18.8397 34.7165 19.1826 34.4193 19.3198 34.1906C19.3655 34.0992 19.4798 34.0763 19.5256 33.9849C19.617 33.802 19.6399 33.5733 19.7313 33.3904C19.8457 33.1389 19.9828 32.8874 20.1658 32.7045C20.2572 32.613 20.4173 32.5444 20.5316 32.6359C20.7145 32.7502 20.7373 33.0017 20.8517 33.2075C20.9431 33.3447 21.0574 33.4819 21.1032 33.6419C21.1489 33.7791 21.0117 33.962 21.1032 34.0763C21.2175 34.2135 21.4461 34.2592 21.629 34.2821L22.0406 34.3278L22.0863 34.8994C22.1092 35.1052 21.6519 34.9451 21.4461 34.9909C21.2632 35.0366 21.0803 35.1052 20.8745 35.1509C20.6916 35.1966 20.3487 35.0366 20.3029 35.2424C20.1429 36.0426 20.3487 36.8428 20.3944 37.643C20.3944 37.8488 20.2801 38.1918 20.4858 38.2832L20.8745 38.4433C20.9431 38.6033 20.9888 38.8091 21.0803 38.9234C21.0574 39.0377 21.1718 39.0606 21.2632 39.0835ZM33.8611 23.8334C33.8611 23.6733 33.7468 23.6048 33.541 23.6048H32.7636C32.5579 23.6048 32.4435 23.6733 32.4435 23.8334C32.4435 23.9934 32.5579 24.062 32.7636 24.062H32.9237V25.5024C32.9237 25.7539 32.9923 25.8683 33.1523 25.8683C33.3124 25.8683 33.3809 25.7539 33.3809 25.5024V24.062H33.541C33.7696 24.062 33.8611 23.9934 33.8611 23.8334ZM31.6433 24.3364C31.6433 24.5193 31.5519 24.6108 31.3689 24.6108H31.1632V24.062H31.3689C31.5519 24.062 31.6433 24.1535 31.6433 24.3364ZM32.1463 25.6396C32.1463 25.5482 32.1006 25.4567 32.0091 25.3424L31.6433 24.8851C31.9405 24.8165 32.1234 24.5879 32.1234 24.2678C32.1234 23.8563 31.8491 23.559 31.3689 23.559H31.026C30.7745 23.559 30.7059 23.6734 30.7059 23.9249V25.4796C30.7059 25.7311 30.7745 25.8454 30.9345 25.8454C31.0946 25.8454 31.1632 25.7311 31.1632 25.4796V24.9309L31.689 25.6854C31.7805 25.7997 31.8491 25.8683 31.9405 25.8683C32.0549 25.8683 32.1463 25.7768 32.1463 25.6396ZM29.7228 24.9309H29.2426L29.4941 24.1078L29.7228 24.9309ZM30.3629 25.6168C30.3629 25.571 30.3629 25.5253 30.3401 25.4567L29.8371 23.8563C29.7685 23.6734 29.6542 23.559 29.4941 23.559C29.3341 23.559 29.2198 23.6734 29.1512 23.8791L28.6253 25.4567C28.6024 25.5024 28.6024 25.5482 28.6024 25.5939C28.6024 25.7311 28.6939 25.8454 28.8082 25.8454C28.8997 25.8454 28.9911 25.7768 29.0368 25.6168L29.1054 25.3881H29.8371L29.8828 25.5939C29.9285 25.7539 29.9971 25.8454 30.1114 25.8454C30.2715 25.8683 30.3629 25.7768 30.3629 25.6168ZM28.2823 24.8165C28.2823 24.565 28.1909 24.4736 28.008 24.4736H27.7108C27.5278 24.4736 27.4364 24.5422 27.4364 24.7022C27.4364 24.8623 27.5278 24.9309 27.7108 24.9309H27.8479C27.8479 25.2052 27.7108 25.3881 27.4821 25.3881C27.2306 25.3881 27.0477 25.1138 27.0477 24.6794C27.0477 24.2449 27.2306 23.9934 27.4821 23.9934C27.7336 23.9934 27.8479 24.1992 27.9623 24.1992C28.0537 24.1992 28.1452 24.0849 28.1452 23.9706C28.1452 23.7419 27.8937 23.5133 27.505 23.5133C26.9563 23.5133 26.6133 23.9706 26.6133 24.7022C26.6133 25.411 26.9563 25.8911 27.4593 25.8911C27.9623 25.8911 28.2823 25.4339 28.2823 24.8165ZM26.499 23.8334C26.499 23.6733 26.3847 23.6048 26.1789 23.6048H25.4015C25.1958 23.6048 25.0814 23.6733 25.0814 23.8334C25.0814 23.9934 25.1958 24.062 25.4015 24.062H25.5616V25.5024C25.5616 25.7539 25.6302 25.8683 25.7902 25.8683C25.9503 25.8683 26.0188 25.7539 26.0188 25.5024V24.062H26.1789C26.3847 24.062 26.499 23.9934 26.499 23.8334ZM24.99 23.8334C24.99 23.6733 24.8757 23.6048 24.6699 23.6048H23.8925C23.6868 23.6048 23.5724 23.6733 23.5724 23.8334C23.5724 23.9934 23.6868 24.062 23.8925 24.062H24.0526V25.5024C24.0526 25.7539 24.1212 25.8683 24.2812 25.8683C24.4413 25.8683 24.5098 25.7539 24.5098 25.5024V24.062H24.6699C24.8757 24.062 24.99 23.9934 24.99 23.8334ZM23.2981 24.8623V23.9249C23.2981 23.6734 23.2295 23.559 23.0694 23.559C22.9094 23.559 22.8408 23.6734 22.8408 23.9249V24.8165C22.8408 25.2052 22.7036 25.411 22.4521 25.411C22.2006 25.411 22.0634 25.2052 22.0634 24.8165V23.9249C22.0634 23.6734 21.9948 23.559 21.8348 23.559C21.6748 23.559 21.6062 23.6734 21.6062 23.9249V24.8623C21.6062 25.5253 21.9263 25.8911 22.4521 25.8911C22.9551 25.8911 23.2981 25.5253 23.2981 24.8623ZM21.4233 23.8334C21.4233 23.6733 21.3089 23.6048 21.1032 23.6048H20.3258C20.12 23.6048 20.0057 23.6733 20.0057 23.8334C20.0057 23.9934 20.12 24.062 20.3258 24.062H20.4858V25.5024C20.4858 25.7539 20.5544 25.8683 20.7145 25.8683C20.8745 25.8683 20.9431 25.7539 20.9431 25.5024V24.062H21.1032C21.3089 24.062 21.4233 23.9934 21.4233 23.8334ZM19.8457 25.1366C19.8457 24.7937 19.6628 24.5879 19.2969 24.4507C19.0683 24.3593 18.9311 24.3364 18.9311 24.1764C18.9311 24.062 19.0226 23.9934 19.1598 23.9934C19.2741 23.9934 19.4113 24.062 19.5027 24.062C19.6399 24.062 19.7085 23.9706 19.7085 23.8563C19.7085 23.6734 19.5027 23.5362 19.1598 23.5362C18.7253 23.5362 18.451 23.8334 18.451 24.2449C18.451 24.5879 18.6339 24.7479 18.9997 24.8851C19.2055 24.9537 19.3427 25.0223 19.3427 25.2052C19.3427 25.3424 19.2512 25.4339 19.114 25.4339C18.9083 25.4339 18.7482 25.3195 18.6339 25.3195C18.4967 25.3195 18.4053 25.411 18.4053 25.5482C18.4053 25.7311 18.6796 25.914 19.0454 25.914C19.5484 25.8911 19.8457 25.571 19.8457 25.1366Z" fill="white"/>
</svg>
