<svg width="68" height="17" fill="none" xmlns="http://www.w3.org/2000/svg"><path d="M.45 17a.474.474 0 01-.318-.122.398.398 0 01-.132-.293v-9.17C0 7.187.202 7 .45 7h4.1c.248 0 .45.187.45.415v9.17c0 .228-.202.415-.45.415H.45z" fill="#000"/><path d="M.546.019h13.781c6.702.873 6.906 10.162.855 11.943l4.101 4.086c.29.244.394.68-.136.715h-6.002L5.572 8.818l-.004-.629h6.842c2.222-.07 2.77-4.435-.136-4.47H.546C.17 3.718 0 3.631 0 3.194V.576C-.002.21.101.02.546.02zm45.478 16.832h3.788c.239 0 .426-.095.417-.47l.004-5.808c.005-.34.33-.402.494-.079l3.146 5.937c.13.306.359.418.726.418h3.924c.496 0 .47-.122.667-.444l3.214-5.982c.206-.35.496-.244.496.036l.002 6.113c-.002.366.136.428.443.428h4.233c.332.009.444-.122.418-.507V.498c.01-.28-.077-.507-.41-.498h-4.103c-.239 0-.478.036-.752.49l-5.71 10.528c-.341.523-.786.35-.992-.036L50.49.462c-.17-.313-.274-.454-.854-.454h-3.591c-.41 0-.513.105-.513.563v15.676c-.004.36.08.604.492.604zm-25.879-.591L29.486.447c.129-.238.19-.448.566-.448h3.975c.291.01.378.106.533.448l9.35 16.057c.153.255.12.493-.162.493h-4.542c-.206 0-.41 0-.514-.245l-.925-1.724a.634.634 0 00-.212-.271.61.61 0 00-.32-.116H26.54c-.24 0-.377.113-.488.325l-.908 1.625c-.153.229-.159.408-.466.408l-4.267-.006c-.53-.022-.463-.42-.266-.735z" fill="#000"/></svg>