<svg width="61" height="36" viewBox="0 0 61 36" fill="none" xmlns="http://www.w3.org/2000/svg">
<path d="M30.8306 0.717285C38.3818 0.717285 46.4774 2.25625 52.9204 6.3448C57.1047 9.02203 61 13.0787 61 18.3658C61 24.5393 55.7271 29.0286 50.6758 31.6562C44.6653 34.7678 37.5627 36 30.8288 36C23.2794 36 15.1998 34.4788 8.75495 30.3743C4.57067 27.6971 0.659424 23.6404 0.659424 18.3658C0.659424 12.1638 5.91815 7.6905 10.9836 5.06114C17.0118 1.9513 24.0985 0.717285 30.8306 0.717285ZM30.7668 2.59312C23.7457 2.59312 16.1785 3.90692 10.0865 7.57703C6.25502 9.86952 2.47143 13.4776 2.47143 18.27C2.47143 23.8993 7.60073 27.8389 12.1857 30.1013C17.8611 32.8725 24.4974 33.9504 30.7668 33.9504C37.802 33.9504 45.371 32.6331 51.463 28.963C55.2785 26.6545 59.0781 23.0642 59.0781 18.2718C59.0781 12.6301 53.963 8.68516 49.3638 6.44231C43.6866 3.66579 37.0503 2.59312 30.7668 2.59312ZM4.26748 14.3747L15.8257 12.4031L19.3043 4.85193L22.7688 12.4031L34.3252 14.3747L22.7688 16.364L19.3043 23.9312L15.8257 16.364L4.26748 14.3747ZM29.6764 20.1281L34.7738 19.2328L36.2968 15.8179L37.8198 19.2328L42.9189 20.1281L37.8198 21.0093L36.2968 24.4259L34.7738 21.0093L29.6764 20.1281ZM40.2257 11.0237L45.3231 10.1426L46.8461 6.71358L48.3691 10.1426L53.4665 11.0237L48.3691 11.9209L46.8461 15.3375L45.3214 11.9209L40.2257 11.0237ZM34.7738 27.1847L39.8552 26.3035L41.3782 22.8727L42.9172 26.3035L48.0145 27.1847L42.9172 28.0818L41.3782 31.4984L39.8552 28.0818L34.7738 27.1847ZM19.1128 28.4187L24.2102 27.5375L25.7492 24.1032L27.2704 27.5375L32.3696 28.4187L27.2704 29.3158L25.7492 32.7324L24.2102 29.3158L19.1128 28.4187ZM44.7469 19.9881L49.8283 19.0891L51.3513 15.6743L52.8903 19.0891L57.9877 19.9881L52.8903 20.8692L51.3496 24.2805L49.8266 20.8675L44.7469 19.9881Z" fill="black"/>
</svg>
