<svg width="62" height="36" viewBox="0 0 62 36" fill="none" xmlns="http://www.w3.org/2000/svg">
<path d="M30.9809 0.717285C38.5321 0.717285 46.6276 2.25625 53.0707 6.3448C57.255 9.02203 61.1503 13.0787 61.1503 18.3658C61.1503 24.5393 55.8774 29.0286 50.8261 31.6562C44.8156 34.7678 37.713 36 30.9791 36C23.4297 36 15.3501 34.4788 8.90522 30.3743C4.72094 27.6971 0.809692 23.6404 0.809692 18.3658C0.809692 12.1638 6.06842 7.6905 11.1339 5.06114C17.1621 1.9513 24.2488 0.717285 30.9809 0.717285ZM30.917 2.59312C23.896 2.59312 16.3288 3.90692 10.2367 7.57703C6.40529 9.86952 2.6217 13.4776 2.6217 18.27C2.6217 23.8993 7.751 27.8389 12.336 30.1013C18.0114 32.8725 24.6477 33.9504 30.917 33.9504C37.9523 33.9504 45.5213 32.6331 51.6133 28.963C55.4288 26.6545 59.2283 23.0642 59.2283 18.2718C59.2283 12.6301 54.1132 8.68516 49.5141 6.44231C43.8369 3.66579 37.2006 2.59312 30.917 2.59312ZM4.41775 14.3747L15.976 12.4031L19.4546 4.85193L22.919 12.4031L34.4755 14.3747L22.919 16.364L19.4546 23.9312L15.976 16.364L4.41775 14.3747ZM29.8266 20.1281L34.924 19.2328L36.447 15.8179L37.97 19.2328L43.0692 20.1281L37.97 21.0093L36.447 24.4259L34.924 21.0093L29.8266 20.1281ZM40.376 11.0237L45.4734 10.1426L46.9964 6.71358L48.5194 10.1426L53.6168 11.0237L48.5194 11.9209L46.9964 15.3375L45.4716 11.9209L40.376 11.0237ZM34.924 27.1847L40.0055 26.3035L41.5285 22.8727L43.0674 26.3035L48.1648 27.1847L43.0674 28.0818L41.5285 31.4984L40.0055 28.0818L34.924 27.1847ZM19.2631 28.4187L24.3605 27.5375L25.8994 24.1032L27.4207 27.5375L32.5198 28.4187L27.4207 29.3158L25.8994 32.7324L24.3605 29.3158L19.2631 28.4187ZM44.8972 19.9881L49.9786 19.0891L51.5016 15.6743L53.0406 19.0891L58.138 19.9881L53.0406 20.8692L51.4998 24.2805L49.9768 20.8675L44.8972 19.9881Z" fill="white"/>
</svg>
