<svg width="67" height="44" fill="none" xmlns="http://www.w3.org/2000/svg"><path d="M33.5 0C14.992 0 0 9.842 0 22s14.992 22 33.5 22S67 34.158 67 22 52.008 0 33.5 0zm0 2.605c10.832 0 19.584 3.184 19.584 7.092 0 2.895-4.878 5.428-11.837 6.514-1.147-7.6-4.16-13.1-7.747-13.1-3.587 0-6.6 5.5-7.747 13.1-6.959-1.086-11.837-3.619-11.837-6.514 0-3.908 8.752-7.092 19.584-7.092zm4.591 14.04a48.001 48.001 0 01-4.663.217c-1.65 0-3.156-.072-4.662-.217.717-4.921 2.51-8.323 4.662-8.323s3.946 3.402 4.663 8.323zm-6.815 25.112c-14.992-.724-26.828-9.698-26.828-20.553 0-3.69 1.362-7.165 3.73-10.132V11c.215 4.993 7.245 9.263 17 10.783v1.013c.072 9.119 2.655 16.79 6.098 18.96zm2.224-6.803c-2.654 0-4.878-5.645-5.021-12.737 1.65.145 3.3.217 5.021.217 1.722 0 3.371-.072 5.021-.217-.143 7.092-2.367 12.737-5.021 12.737zm2.152 6.803c3.443-2.244 6.026-9.842 6.026-18.96v-1.014c9.756-1.52 16.857-5.79 17-10.783v.072c2.368 2.968 3.731 6.441 3.731 10.132.072 10.855-11.764 19.829-26.757 20.553z" fill="#000"/></svg>