<svg _ngcontent-lpf-c50="" xmlns="http://www.w3.org/2000/svg" viewBox="0 0 80 80"><rect _ngcontent-lpf-c50="" width="80" height="80" fill="none"></rect><path _ngcontent-lpf-c50="" d="M68.81,51.14,63.36,48.9,69.14,45a1.93,1.93,0,0,0-.34-3.39l-5.27-2.17L68.74,36a1.19,1.19,0,0,0-.21-2.1L29.86,18a1.19,1.19,0,0,0-1,0L11.4,26.62a1.19,1.19,0,0,0,0,2.15l5.34,2.52-5.68,3.08a1.93,1.93,0,0,0,0,3.47L17,40.64l-5.94,3.22a1.93,1.93,0,0,0,0,3.47L50.42,65.91a1.93,1.93,0,0,0,1.89-.14L69.14,54.53a1.93,1.93,0,0,0-.33-3.39Zm-16-14A3.25,3.25,0,0,1,55.4,37c.74.33.81.9.14,1.27a3.23,3.23,0,0,1-2.55.07c-.75-.29-.81-.85-.15-1.22ZM39.5,24.91c6.58,0,11.74,2.78,11.74,6.32s-5.16,6.32-11.74,6.32-11.74-2.78-11.74-6.32S32.92,24.91,39.5,24.91ZM43.72,44a14.1,14.1,0,0,1-4.24.64c-4.45,0-8.22-2.07-8.22-4.42A2.77,2.77,0,0,1,32,38.49ZM25.83,24.83a3.25,3.25,0,0,1,2.55-.07c.74.33.81.9.14,1.27A3.23,3.23,0,0,1,26,26.1C25.23,25.77,25.16,25.2,25.83,24.83ZM11.73,36.52a.46.46,0,0,1-.27-.41.48.48,0,0,1,.28-.43l6.65-3.61L30.6,37.84a4.23,4.23,0,0,0-.82,2.42c0,3.25,4.25,5.87,9.68,5.87a14.2,14.2,0,0,0,6-1.26l5.23,2.47a1.19,1.19,0,0,0,.51.11,1.21,1.21,0,0,0,.66-.2L62,40.47,68.25,43a.46.46,0,0,1,.08.81L51.5,55.06a.47.47,0,0,1-.46,0Zm32,16.73a15.21,15.21,0,0,1-4.23.56c-4.45,0-8.22-1.9-8.22-4.25a2.63,2.63,0,0,1,.82-1.8Zm24.62,0L51.5,64.54a.47.47,0,0,1-.46,0L11.73,46a.46.46,0,0,1-.27-.41.48.48,0,0,1,.28-.43l6.91-3.75,12.07,5.7a3.83,3.83,0,0,0-.93,2.43c0,3.25,4.25,5.72,9.68,5.72a14.62,14.62,0,0,0,6-1.17l4.91,2.32a1.93,1.93,0,0,0,1.89-.14l9.58-6.4,6.35,2.62a.46.46,0,0,1,.13.82ZM34.92,31.47l.08.13a2.71,2.71,0,0,0,1.31,1,3.16,3.16,0,0,0,2.59.06.57.57,0,0,0,.34-.36,1.17,1.17,0,0,0-.47-.8,2,2,0,0,1-.86-1.5,1.25,1.25,0,0,1,.74-.88,5.43,5.43,0,0,1,4-.21l1.21-.67,1.24.55-1.17.65a2.85,2.85,0,0,1,1.07.91l.14.21L43.65,31l-.07-.11a2.42,2.42,0,0,0-1.19-.9,2.69,2.69,0,0,0-2.27-.07.42.42,0,0,0-.28.28,1.78,1.78,0,0,0,.62.92,1.78,1.78,0,0,1,.71,1.41,1.46,1.46,0,0,1-.87,1,5.79,5.79,0,0,1-4.19.23l-1.25.69-1.26-.56,1.22-.67a3,3,0,0,1-1.28-1.12l-.09-.2Z" fill="#c00"></path></svg>