<svg width="67" height="65" fill="none" xmlns="http://www.w3.org/2000/svg"><path d="M41.747.394h-6.744L34.856 0v.394h-2.922l-.002-.341-.122.341h-6.582C13.478 1.982 2.688 9.63 0 25.439l.207 14.125C.825 51.76 8.873 58.458 17.43 61.877l-.016.152.06-.135c5.893 2.347 12.023 3.14 16.13 3.105 6.803-.136 12.359-1.181 16.862-3.064l.265.561-.087-.634C60.567 57.639 65.324 49.3 67 37.582v-9.12C66.368 16.21 59.445 4.472 41.747.394zm-6.89 2.502v23.377h-2.716l-.186-23.377h2.902zM3.724 38.286V25.439C6.785 11.62 15.604 5.529 25.877 2.896h5.05L20.652 31.96 17.67 59.663c-6.282-3.076-11.72-9.149-13.946-21.376zm29.674 24.628c-4.741-.216-10.136-.703-15.07-2.94l13.186-29.7h3.97l13.733 29.017c-4.06 2.034-9.229 3.314-15.819 3.623zm29.855-25.696c-1.49 9.13-4.853 16.98-13.039 21.54l-3.868-27.852-10.412-28.01h5.192C56.502 7.049 62.571 17.536 63.253 28.8v8.418z" fill="#000"/></svg>