<svg width="67" height="68" viewBox="0 0 67 68" fill="none" xmlns="http://www.w3.org/2000/svg">
<path d="M33.4524 0C14.963 0 0 14.963 0 33.5477C0 52.1323 14.963 67.0953 33.5477 67.0953C52.1323 67.0953 67 52.037 67 33.5477C67 14.963 51.9417 0 33.4524 0ZM33.4524 63.4737C16.9644 63.4737 3.52632 50.0356 3.52632 33.5477C3.52632 17.0597 16.8691 3.52632 33.4524 3.52632C50.0356 3.52632 63.3784 16.9644 63.3784 33.4524C63.4737 50.0356 50.0356 63.4737 33.4524 63.4737ZM46.7952 50.2262H46.6999H46.7952Z" fill="white"/>
<path d="M38.9801 18.2034H25.9232V22.7781H12.8663V39.5519C12.8663 49.1778 20.3002 58.899 20.5861 59.4709C20.9673 58.899 26.1138 52.1323 27.8294 44.2219C29.3542 47.9389 31.2604 51.5605 33.643 54.8962C34.0242 54.3244 39.1707 47.5576 40.8863 39.6473C42.4111 43.3642 44.4126 46.9858 46.6999 50.3215C47.0811 49.6544 54.4197 40.0285 54.4197 30.4026V13.5334H38.9801V18.2034ZM25.9232 39.7426C25.9232 47.0811 20.9673 53.7525 20.6814 54.3243C20.3955 53.8478 15.3443 47.0811 15.3443 39.7426V25.2561H25.9232V39.7426ZM38.9801 35.1679C38.9801 42.5064 34.0242 49.1778 33.7383 49.7497C33.4524 49.2731 28.4012 42.5064 28.4012 35.1679V20.5861H38.9801V35.1679ZM41.4581 16.0114H52.037V30.5932C52.037 37.9317 47.0811 44.6032 46.6999 45.175C46.414 44.6985 41.3628 38.0271 41.3628 30.5932L41.4581 16.0114Z" fill="white"/>
<path d="M51.4651 28.2105V16.4879H41.9345L51.2745 33.0711C51.3698 32.3087 51.4651 30.7838 51.4651 28.2105ZM50.0355 37.6458L41.9345 23.4452V30.8791C41.9345 35.5491 44.4125 40.7909 46.6998 44.2219C48.1294 42.1252 49.1778 39.9332 50.0355 37.6458ZM38.4082 32.7852V21.1579H28.8776L38.2176 37.7411C38.3129 36.8834 38.4082 35.3585 38.4082 32.7852ZM37.0739 42.2205L28.9729 28.0199V35.4538C28.9729 40.1238 31.4509 45.3656 33.7382 48.7966C35.0725 46.6999 36.1209 44.5078 37.0739 42.2205ZM25.4466 37.4552V25.7326H15.916L25.256 42.3158C25.3513 41.5534 25.4466 40.0285 25.4466 37.4552ZM24.017 46.8905L15.916 32.5946V40.0285C15.916 44.6984 18.394 49.9403 20.6813 53.3713C22.0156 51.3699 23.1593 49.1778 24.017 46.8905Z" fill="white"/>
</svg>
