<svg width="64" height="52" fill="none" xmlns="http://www.w3.org/2000/svg"><path d="M33.084 8.24c.416-1.416 3.554-3.458 4.043-3.024-.018-.522 2.265-2.586 3.107-2.226-.203-.626 2.927-2.559 3.66-2.016.181-.785 4.717-1.378 5.616-.63.518-.573 4.54.389 4.638 1.386.742-.639 4.845 3.642 4.852 5.796 0 .842-3.86-2.555-6.297-1.807-4.018 1.208-9.142 5.436-13.575 11.803-1.24 1.73-4.411 2.363-5.107-.461 0 .001-1.369-7.398-.937-8.821z" fill="#000"/><path d="M32.408 48.741c-.65-1.071-.449-2.355.085-2.852.755-.722 2.92-.14 3.088-.81.427-1.532-.67-2.073-.47-4.214.054-.742 1.479-6.158 1.843-6.642.301-.397 2.123-1.028 2.616-1.233.3-.338.512-.747.515-1.448-2.365-.737-3.004 1.461-3.345 1.364-.342-.07.175-2.393.471-2.64.299-.26 3.09-.875 3.389-1.363.347-.516 1.635-5.458 0-5.534.146.02-.068-.334.042-.299 3.362.77 5.624-15.125 13.853-15.07 8.19.072 7.763 11.834 7.29 12.261-.938.826-2.294.525-2.358 1.277-.407 7.193-6.882 14.891-8.834 14.22-1.18-.41-.176-4.065.386-4.13-.52-.233-.008-3.995.6-4.087-.481-.332-.056-3.8.557-3.832-.306-.272-.274-2.647-.9-3.831-.458-.905-2.486-1.393-2.615.809 1.242-.584 1.326 3.394.815 4.087-.51.66-3.79 2.183-4.804 3.022.075 1.697-1.543 8.21-2.744 10.092-1.185 1.841-2.377 2.941-3.045 4.64-.696 1.684-.26 4.568-1.801 5.875-.69.572-4.354.827-4.634.338z" fill="#000"/><path d="M60.692 21.67c.393-.648 1.951-.906 2.509-.596.665.374 1.154 5.551.467 5.711.601.31-.148 4.238-.894 4.262.591.235-.633 4.088-1.36 3.963.43.591-1.554 3.723-2.083 3.54-.188 3.232-9.867 4.77-9.65 2.045.106-1.307 1.554.618 8.078-9.547 2.862-4.512 2.379-8.406 2.933-9.378zM30.763 8.33c-.668-1.495-3.443-3.484-3.911-3.026 0-.547-2.28-2.641-3.104-2.26C23.933 2.392 20.804.43 20.05 1c-.158-.813-4.69-1.414-5.57-.64-.535-.598-4.554.379-4.633 1.406C9.087 1.1 4.988 5.444 5 7.648c-.018.837 3.838-2.611 6.25-1.876 4.037 1.25 9.156 5.541 13.603 11.977 1.22 1.783 4.32 2.423 5.017-.47.002 0 1.577-7.48.893-8.95z" fill="#000"/><path d="M30.59 48.72c.635-1.131.52-2.375-.042-2.897-.733-.696-2.863-.072-3.057-.723-.405-1.552.699-2.093.517-4.217-.073-.76-1.504-6.178-1.85-6.645-.324-.416-2.151-1.047-2.628-1.236-.32-.355-.53-.765-.56-1.49 2.401-.714 3.043 1.487 3.403 1.406.323-.089-.194-2.413-.473-2.684-.32-.237-3.08-.893-3.445-1.32-.376-.499-1.618-5.478 0-5.579-.122.046.092-.311-.042-.3C19.06 23.833 16.79 7.927 8.503 8c-8.2.054-7.77 11.822-7.277 12.267.922.81 2.285.509 2.326 1.278.43 7.18 6.934 14.882 8.914 14.184 1.165-.386.158-4.04-.388-4.132.504-.205-.009-3.97-.602-4.045.464-.35.035-3.82-.562-3.877.288-.247.257-2.625.861-3.791.483-.924 2.521-1.412 2.627.81-1.222-.601-1.308 3.377-.774 4.045.493.684 3.787 2.207 4.82 3.066-.093 1.68 1.532 8.196 2.714 10.052 1.213 1.868 2.41 2.97 3.1 4.645.686 1.724 1.005 5.102 1.85 5.877.76.684 4.196.864 4.478.34zm.95 3.28c-2.576.046-4.828-1.763-4.393-2.26.9-.921 2.436.445 4.263-.34 1.81.743 3.308-.578 4.478.299.672.478-1.791 2.265-4.348 2.3z" fill="#000"/><path d="M3.212 21.613c-.36-.67-1.88-.755-2.448-.428-.626.355-1.103 5.381-.455 5.559-.564.294.167 4.235.912 4.235-.593.26.602 4.126 1.287 4.02-.397.574 1.538 3.718 2.074 3.55.167 3.228 9.608 4.769 9.415 2.054-.121-1.33-1.534.601-7.88-9.622-2.813-4.503-2.34-8.409-2.905-9.368z" fill="#000"/></svg>