<svg width="63" height="13" fill="none" xmlns="http://www.w3.org/2000/svg"><path fill-rule="evenodd" clip-rule="evenodd" d="M19.799.024l.016 3.031H4.03c-.342.032-.466.346-.56.597-.03 1.88-.064 6.118.118 5.964l.32.208 12.013.004c.81-.25.578-1.676.623-1.912l-.187-.157-6.288-.031v-2.79L10 4.923h9.892v5.365c-.076 1.203-1.168 2.016-2.288 2.361l-1.9.22-13.084-.004C1.6 12.711.763 12.022.296 10.99-.216 8.223.078 5.282.141 2.553A3.317 3.317 0 011.604.516C2.32.14 3.254.077 4.094.014l15.705.01zm7.447.053a377.629 377.629 0 005.106 9.093l.499-.627L37.613.108h5.292l-.062 12.794c-.308.059-2.273.03-3.394.03V3.526l-.062-.063-5.354 9.376-.187.093-3.163.005-5.026-9.289-.208-.373c.046.186-.022 9.71-.022 9.71-2.584-.024-2.489.085-3.392-.07V.023L27.224 0l.022.077zM62.96.18c.1 1.122-.016 2.377-.016 3.19l-13.804.04c-.343 0-.686.22-.748.563-.062 1.85-.217 3.732.124 5.426 0 0-.144.45.962.38l13.452-.004c.062 1.004-.031 2.043-.031 3.14l-14.873.024c-1.214-.157-2.623-.969-2.902-2.223l-.187-1.505.095-6.365c.217-.91.715-1.944 1.68-2.289.996-.565 1.32-.276 2.536-.37L62.959.18z" fill="#000"/></svg>