<svg width="67" height="56" fill="none" xmlns="http://www.w3.org/2000/svg"><path d="M20.362.13C11.21.834 5.51 3.944 2.605 9.823.913 13.235.17 17.144.018 23.38c-.083 3.386.137 11.191.385 13.93.66 7.35 4.116 12.622 10.269 15.665 2.367 1.17 5.534 2.037 8.424 2.34 1.914.193 26.883.193 28.797 0 4.033-.413 8.135-1.845 11.094-3.882 2.89-1.968 5.286-5.203 6.497-8.727.922-2.712 1.156-4.557 1.404-11.343.276-7.433.042-12.609-.715-16.284C64.217 5.623 58.078.984 46.433.117 44.19-.048 22.537-.034 20.363.13zm21.873 3.29c2.477.138 4.804.358 4.9.454.028.028-.784 3.607-1.789 7.957-2.05 8.81-2.45 10.062-4.35 13.958-1.376 2.807-2.243 4.129-3.633 5.506-1.487 1.472-2.381 1.927-3.8 1.927-.894-.014-1.142-.069-1.871-.44-2.616-1.35-5.011-5.01-7.365-11.205-.565-1.487-1.06-3.387-2.547-9.746-1.005-4.35-1.817-7.929-1.789-7.957.44-.44 16.545-.77 22.244-.454zM13.52 5.857c.04.29.482 5.974.977 12.636 2.079 28.246 2.409 32.747 2.409 32.87 0 .331-3.427-.563-4.887-1.279-4.859-2.367-7.39-7.42-8.052-15.981-.18-2.368-.18-8.314 0-12.03.4-8.178 1.528-11.508 4.804-14.138.564-.454 1.28-.991 1.597-1.183.496-.317 2.753-1.376 2.987-1.39.041-.014.124.22.165.495zm41.53-.096c1.348.564 2.036.977 3.385 2.023 3.056 2.368 4.295 5.341 4.86 11.673.247 2.657.33 11.934.15 14.385-.674 8.823-3.166 13.847-8.066 16.242-1.418.688-4.887 1.61-4.887 1.294 0-.096 1.487-20.29 2.754-37.565.509-6.868.646-8.465.756-8.465.015 0 .482.192 1.047.413zM35.338 40.104c3.042.73 4.969 3.029 6.25 7.502.398 1.377.839 3.841.715 3.979-.124.11-16.821.096-16.931-.014-.138-.124.275-2.505.702-4.102.193-.716.688-2.01 1.101-2.863.62-1.266.923-1.721 1.68-2.478 1.871-1.872 4.115-2.575 6.483-2.023z" fill="#fff"/></svg>