<svg width="66" height="37" fill="none" xmlns="http://www.w3.org/2000/svg"><path d="M28.763.075C15.476 1.056 4.788 6.268 1.128 13.562c-.226.45-.57 1.352-.756 1.989-.305.994-.358 1.419-.372 2.89-.013 2.03.253 3.13 1.18 5.04 3.276 6.75 13.222 11.908 25.594 13.274 2.904.318 9.017.331 11.801.013 8.58-.981 15.581-3.487 20.581-7.373 2.944-2.294 4.946-5 5.822-7.903.49-1.645.53-4.111.079-5.703-.703-2.453-2.188-4.786-4.31-6.762C55.774 4.385 48.069 1.336 38.641.275c-2.173-.253-7.69-.359-9.878-.2zm9.88 4.177c1.79.212 4.548.703 6.033 1.074 1.684.41 4.31 1.3 4.27 1.432-.08.252-2.599 2.161-4.8 3.647-9.455 6.365-16.894 7.997-18.314 4.032-.252-.73-.225-2.228.066-3.368.292-1.14 1.579-4.655 2.202-6.047.371-.796.503-.955.822-1.008.863-.16 7.984.026 9.72.238zm-17.04 1.552c-1.273 1.75-2.811 4.416-4.562 7.93-3.142 6.311-4.495 9.507-5.927 14.03-.08.251-1.432-.73-2.772-1.99-4.098-3.872-4.628-8.553-1.459-12.703 1.99-2.586 5.928-5.145 10.21-6.631 1.314-.464 4.629-1.405 5.013-1.446.067-.012-.159.359-.503.81zM57.035 11.4c1.326 1.246 2.413 2.837 2.984 4.349.397 1.021.424 1.22.424 2.758 0 1.525-.027 1.737-.411 2.745-1.233 3.249-4.084 5.914-8.726 8.142a35.425 35.425 0 01-6.79 2.374l-.423.106.848-1.234c2.904-4.163 5.357-9.322 8.646-18.167.53-1.459 1.008-2.732 1.034-2.824.093-.239 1.008.438 2.414 1.75zM37.237 21.637c.875.305 1.698 1.14 1.99 2.016.384 1.127.304 2.732-.24 4.813-.464 1.804-1.299 4.31-1.511 4.522-.225.226-3.568.398-6.392.332-3.262-.093-5.61-.332-8.354-.889-2.917-.583-6.75-1.737-6.803-2.055-.04-.185 2.56-1.976 4.947-3.408 4.734-2.85 9.414-4.88 12.398-5.397.438-.08.942-.172 1.127-.199.61-.107 2.175.04 2.838.265z" fill="#000"/></svg>