<svg width="67" height="40" fill="none" xmlns="http://www.w3.org/2000/svg"><path d="M29.41.135C14.894 1.218 3.335 7.746.606 16.388c-1.03 3.238-.75 6.368.843 9.62.936 1.899 1.766 3.036 3.411 4.681 4.134 4.16 10.515 7.224 18.02 8.695 1.15.228 1.659.281 1.726.174.053-.08 1.953-4.87 4.227-10.621 2.26-5.766 4.16-10.488 4.214-10.488.04 0 1.685 4.856 3.652 10.782L40.272 40l.348-.067c.2-.04.936-.174 1.632-.28 7.785-1.298 15.544-5.031 19.518-9.379 6.782-7.397 5.658-16.12-2.917-22.715C51.963 2.262 40.3-.68 29.41.135zm9.163 2.782c6.568 1.004 11.558 3.171 15.09 6.555 2.569 2.475 3.84 5.11 3.84 8 0 1.017-.375 2.716-.816 3.719-.856 1.967-2.823 4.227-5.097 5.86-2.22 1.605-7.143 3.825-7.544 3.41-.094-.093-2.609-3.88-5.606-8.4-2.983-4.522-5.485-8.228-5.551-8.228-.067 0-2.502 3.706-5.432 8.228-2.916 4.521-5.378 8.307-5.458 8.4-.214.228-1.953-.374-4.227-1.458-5.834-2.795-9.218-7.076-9.232-11.625 0-7.037 8.508-13.297 19.8-14.568.695-.08 1.484-.174 1.738-.2 1.297-.148 6.836.04 8.495.307z" fill="#000"/></svg>