<svg width="67" height="33" fill="none" xmlns="http://www.w3.org/2000/svg"><path d="M31.652 32.976a67.539 67.539 0 01-6.84-.536c-9.235-1.22-16.973-4.33-21.28-8.551C1.705 22.099.547 20.13.157 18.154.03 17.51 0 17.194 0 16.5s.03-1.01.157-1.654c.257-1.3.866-2.64 1.766-3.881 2.033-2.81 5.602-5.31 10.284-7.207C20.01.596 30.229-.657 40.179.33c11.68 1.158 21.29 5.343 25.102 10.936 1.743 2.556 2.17 5.333 1.237 8.046-.538 1.568-1.585 3.134-3.058 4.578-4.08 4-11.264 7.017-19.885 8.35-3.856.598-7.831.843-11.923.737zm5.094-2.11c4.676-.285 8.624-.96 12.47-2.133 3.053-.93 5.899-2.218 8.083-3.658 1.101-.726 1.865-1.338 2.728-2.189 1.026-1.01 1.688-1.895 2.227-2.98.603-1.212.836-2.163.836-3.406 0-1.25-.248-2.252-.86-3.46-.527-1.046-1.2-1.94-2.203-2.926-1.47-1.448-3.219-2.643-5.529-3.778-4.324-2.126-9.734-3.517-15.761-4.052a61.9 61.9 0 00-10.48 0c-8.475.749-15.749 3.22-20.25 6.876-.57.464-1.588 1.473-2.015 1.998-1.525 1.878-2.245 3.904-2.081 5.856.179 2.127 1.154 4.002 3.054 5.872 1.439 1.417 3.15 2.595 5.376 3.7 5.067 2.516 11.294 3.958 18.617 4.312.827.04 4.982.017 5.788-.032zM12.992 24.84a.51.51 0 01-.146-.11c-.073-.078-.073-.136-.083-7.757l-.01-7.677-.096-.1c-.091-.093-.117-.1-.465-.109l-.369-.01v-.968l2.654-.01 2.654-.009.112.093.113.094v2.768c0 3.04-.009 2.927.214 2.927.138 0 .186-.057.956-1.13 2.04-2.842 3.161-4.388 3.262-4.496.25-.264.136-.253 2.718-.254l2.31-.001.09.086c.108.107.148.252.099.356-.031.066-1.031 1.524-4.523 6.596-.382.554-.488.734-.488.825.002.094.25.46 1.308 1.927 4.68 6.485 4.695 6.506 4.709 6.637.011.099-.007.154-.077.234l-.091.104-2.415.01c-2.38.01-2.416.009-2.59-.065a.94.94 0 01-.27-.171 270.96 270.96 0 01-2.445-3.342c-1.295-1.785-2.38-3.267-2.413-3.293-.09-.073-.254-.038-.308.065-.035.07-.046.801-.046 3.343v3.252l-.089.1-.088.101-2.057.007c-1.131.004-2.09-.006-2.13-.023zm18.33-.016a.346.346 0 01-.155-.144c-.035-.075-.045-1.781-.045-7.736v-7.64l-.106-.104c-.103-.102-.119-.105-.457-.105h-.35V8.091h5.403l.12.104.119.105v16.357l-.101.1-.101.099-2.108.008c-1.688.006-2.13-.002-2.219-.04zm7.852.006c-.113-.063-.161-.143-.162-.268-.001-.064.517-1.637 1.151-3.496l2.242-6.573a1869.8 1869.8 0 011.403-4.104c.173-.501.315-.955.315-1.009a.336.336 0 00-.07-.182c-.062-.076-.107-.087-.429-.103l-.36-.018-.01-.493-.01-.493h3.242c2.128 0 3.289.014 3.378.038.075.02.155.07.177.111.046.084.41 1.14 2.123 6.163 2.787 8.172 3.425 10.058 3.425 10.136 0 .126-.073.252-.17.295-.062.028-.71.04-2.123.04-1.865 0-2.045-.005-2.16-.063a.646.646 0 01-.192-.153c-.037-.05-.32-.864-.63-1.81-2.947-9.022-2.866-8.776-2.932-8.849-.073-.08-.129-.08-.204.003-.06.065-.174.408-1.777 5.367a3062.93 3062.93 0 01-1.535 4.743c-.165.514-.238.636-.423.712-.161.066-4.152.072-4.269.006z" fill="#000"/></svg>