<svg width="56" height="67" viewBox="0 0 56 67" fill="none" xmlns="http://www.w3.org/2000/svg">
<path d="M55.0847 5.80718L54.9655 5.14204L54.2505 4.86063C50.6158 3.37686 40.7843 0 27.8544 0C15.6394 0 6.28462 3.01871 1.75616 4.83505L1.04114 5.11646L0.921973 5.7816C0.117576 10.2073 -1.31246 21.9752 2.67973 35.2524C6.7315 48.7087 14.984 59.1974 27.1393 66.4884L27.9735 67L28.8077 66.4884C40.963 59.223 49.2156 48.7087 53.2673 35.2524C57.3191 22.0008 55.8891 10.2329 55.0847 5.80718ZM50.437 34.6384C46.6534 47.1737 39.1159 56.9973 28.0033 63.9045C16.8907 56.9973 9.35324 47.1481 5.5696 34.6384C1.87533 22.4357 2.94786 11.5888 3.75226 6.88163C8.25092 5.14204 16.8311 2.58381 27.8544 2.58381C39.4138 2.58381 48.3516 5.39786 52.2842 6.88163C53.0588 11.5888 54.1313 22.4357 50.437 34.6384Z" fill="white"/>
<path d="M7.75415 11.8353L9.47907 11.27L9.71296 11.8096L7.25714 12.6318L6 9.57419L6.70166 9.34295L7.75415 11.8353ZM18.4545 9.93391L17.7528 10.0624L17.1681 7.39019H17.1389L17.0512 10.1652L16.3203 10.2936L15.0631 7.74991L15.6478 10.4221L14.9462 10.5249L14.2445 7.33881L15.3555 7.15895L16.5542 9.5485L16.6419 6.9277L17.7528 6.74784L18.4545 9.93391ZM34.9728 7.82699L36.5223 7.95546L36.3176 9.70266L35.7914 9.65128L35.7621 9.24017C35.5575 9.42003 35.2359 9.67697 34.5635 9.62558C33.6864 9.5485 32.9262 8.90615 33.0724 7.77561C33.1894 6.90201 33.8326 6.10549 35.0605 6.23396C36.2007 6.33673 36.5515 7.03048 36.5515 7.46728L35.7914 7.39019C35.7914 7.26172 35.5867 6.82492 35.0605 6.77353C34.505 6.72215 33.9787 7.00478 33.8618 7.85269C33.7449 8.72629 34.2711 9.00892 34.7973 9.06031C34.9728 9.08601 35.5282 9.06031 35.7621 8.41796L34.9143 8.34088L34.9728 7.82699ZM38.6272 8.57212L38.3349 10.011L37.5748 9.88252L38.2472 6.67076L39.0073 6.79923L38.7442 8.00685L40.1767 8.2381L40.4106 7.03048L41.1708 7.13325L40.5276 10.345L39.7674 10.2422L40.0598 8.80337L38.6272 8.57212ZM42.5741 10.7818L41.814 10.6277L42.691 7.44158L43.4219 7.59575L42.5741 10.7818ZM47.1057 8.52073L47.8073 8.70059L46.7256 11.8096L45.9947 11.6297L45.3223 9.00892L44.5329 11.2443L43.8605 11.0388L44.9422 7.92977L45.7023 8.13532L46.3748 10.679L47.1057 8.52073ZM48.6844 12.4519L47.9535 12.2207L49.2691 9.16309L50 9.42003L48.6844 12.4519ZM43.4804 32.7246C42.808 32.5447 42.0478 32.185 41.1123 31.3114C41.1708 30.926 41.2 30.6691 41.1708 30.4378C41.1415 30.2066 41.0538 30.0524 40.9369 29.8212C40.8199 29.5899 40.6738 29.3844 40.586 29.0503C40.4983 28.7163 40.4399 28.2538 40.5276 27.5087C40.6153 26.7636 40.586 25.5559 40.2352 24.2455C39.8844 22.9351 39.1827 21.522 37.9841 20.34C38.3056 19.4664 38.4811 18.8498 38.5103 18.3616C38.5395 17.8734 38.4518 17.5137 38.2179 17.0769C37.9841 16.6658 37.3993 16.3061 36.5223 16.0748C35.6452 15.8436 34.505 15.7151 33.1894 15.7151C31.8738 15.7151 29.9734 15.8179 28.4239 15.7922C26.8744 15.7665 25.6173 15.6637 25.6173 15.304C25.6173 14.9443 25.8219 14.7901 26.1143 14.6873C26.4066 14.5845 26.7867 14.5845 27.0791 14.5589C27.5176 14.713 28.1608 14.8158 28.804 14.8415C29.4472 14.8929 30.1488 14.8929 30.6751 14.8929C31.2306 14.8929 31.7276 14.7387 32.2831 14.6102C32.8093 14.4818 33.394 14.3276 34.0372 14.3276C33.4817 14.1734 32.7801 13.9422 32.0492 13.7623C31.3183 13.5825 30.5874 13.4797 29.9734 13.6082C29.7395 13.4283 29.5934 13.2741 29.3302 13.2228C29.0671 13.1714 28.7163 13.1714 28.1316 13.3255C27.5468 13.454 27.1668 13.5054 26.8744 13.5568C26.5528 13.5825 26.3189 13.6082 25.9389 13.6853C25.5588 13.7623 25.0618 13.8137 24.6525 13.9936C24.2432 14.1734 23.9216 14.4561 23.9216 15.0213C23.9216 15.5609 24.1555 16.0491 24.7694 16.3831C25.4126 16.7172 26.4651 16.9227 28.1316 16.897C29.8272 16.8713 31.6691 16.8456 33.1894 16.897C34.7096 16.9741 35.9083 17.154 36.3176 17.5651C36.7269 17.9762 36.8439 18.2588 36.7854 18.4901C36.7269 18.7213 36.493 18.9012 36.2007 19.1324C35.9375 19.1324 35.499 19.1581 34.9435 19.1324C34.4173 19.1067 33.8033 19.0039 33.2478 18.7984C32.6924 18.5671 32.0492 18.4387 31.3767 18.4387C30.7336 18.4387 30.0611 18.5414 29.5349 18.8241C28.9794 19.081 27.6346 19.672 26.2605 20.5456C24.8864 21.4449 23.4538 22.6525 22.8106 24.2198C22.1382 25.7872 21.8166 26.7636 21.612 27.4573C21.4073 28.151 21.3488 28.5108 21.2027 28.8705C21.0565 29.2302 20.8226 29.5899 20.6179 30.001C20.4133 30.4121 20.2379 30.8489 20.2671 31.3628C20.2671 31.8767 20.2379 32.4933 20.1502 33.0843C20.0625 33.6753 19.9748 34.2405 19.887 34.6517C19.7993 35.0628 19.6532 35.5509 19.5362 36.1162C19.4193 36.6815 19.3316 37.2725 19.3608 37.9148C19.3608 38.5572 19.3316 39.1995 19.2146 39.8162C19.1269 40.4328 18.9515 40.9981 18.7468 41.4863C18.5422 41.9745 18.4545 42.3856 18.396 42.7967C18.3083 43.1821 18.2206 43.5675 17.9867 43.9529C17.7236 44.3383 17.402 44.8265 17.0512 45.289C16.7003 45.7515 16.3787 46.1883 16.1156 46.4966C15.8525 46.7793 15.7355 47.139 15.8233 47.4216C15.911 47.7043 16.1741 47.9355 16.7296 47.9869C17.285 48.0383 17.7528 47.9355 18.1037 47.73C18.4545 47.5244 18.6884 47.2418 18.7468 46.9077C18.8053 46.5737 18.8053 46.1369 18.8346 45.6744C18.8638 45.2119 18.893 44.7494 19.0684 44.3897L19.2439 44.0043L19.4193 43.6189C19.5947 43.362 19.7116 43.2592 19.8578 43.1821C19.9748 43.105 20.1209 43.0279 20.2963 42.8481C20.4718 42.6682 20.7641 42.1029 20.998 41.512C21.2319 40.921 21.4365 40.253 21.4073 39.7905C21.4073 39.328 21.4365 38.9683 21.5243 38.6856C21.612 38.3773 21.7289 38.1461 21.8751 37.9148C22.0213 37.6836 22.109 37.4266 22.2259 37.2211C22.3721 37.0155 22.5475 36.887 22.8691 36.9127C23.1907 36.9384 23.3076 37.0926 23.3369 37.2725C23.3661 37.4523 23.3661 37.6836 23.4831 37.8891C23.6 38.0947 23.7169 38.3002 23.8631 38.4801C24.0093 38.6599 24.214 38.8141 24.5355 38.9169C24.8279 39.0197 25.0618 39.1995 25.208 39.4308C25.3249 39.662 25.3249 39.9189 25.1495 40.1502C24.9741 40.3814 24.711 40.7669 24.5063 41.178C24.3017 41.5891 24.1555 41.9745 24.1555 42.2314C24.1555 42.4884 24.214 42.8738 24.1555 43.2849C24.097 43.696 23.9801 44.1071 23.6 44.4411C23.2492 44.7751 22.9568 45.1092 22.7522 45.3918C22.5475 45.6744 22.4598 45.9314 22.4598 46.0855C22.4598 46.2397 22.5475 46.4453 22.7229 46.6251C22.9276 46.805 23.2199 46.9077 23.7169 46.9077C24.1847 46.9077 24.5648 46.805 24.8279 46.6508C25.091 46.4966 25.2664 46.2654 25.3834 45.9828C25.5003 45.7001 25.4711 45.4689 25.4126 45.289C25.3542 45.1092 25.2957 44.955 25.2957 44.7494C25.2957 44.5439 25.3542 44.3383 25.4419 44.0814C25.5296 43.8501 25.6173 43.5932 25.6465 43.362C25.6757 43.1307 25.7342 42.8481 25.8512 42.5397C25.9681 42.2314 26.1435 41.8974 26.4359 41.5377C26.7282 41.178 26.8744 40.8696 27.0206 40.587C27.1668 40.3044 27.2545 40.0731 27.4299 39.8419C27.6053 39.6106 27.693 39.5078 27.7515 39.4565C27.81 39.4308 27.8977 39.4821 28.0731 39.5592C28.2485 39.662 28.307 39.7391 28.2485 39.8676C28.2193 39.9703 28.1023 40.1245 27.9854 40.2787C27.8684 40.4328 27.6638 40.7155 27.4299 41.0238C27.196 41.3064 26.9621 41.6405 26.8159 41.846C26.6698 42.0773 26.5821 42.3599 26.6405 42.6168C26.699 42.8738 26.8744 43.0536 27.2837 43.0793C27.693 43.105 28.0146 43.105 28.2193 43.0536C28.4532 43.0022 28.5701 42.8738 28.5993 42.6939C28.6286 42.4884 28.687 42.18 28.804 41.8717C28.8917 41.5634 29.0086 41.255 29.1548 41.0495C29.301 40.8439 29.3887 40.6641 29.4472 40.5099C29.5056 40.3557 29.5056 40.2273 29.5056 40.1245C29.7395 40.3044 29.9149 40.5356 30.0904 40.7669C30.2365 40.9981 30.3827 41.2293 30.4997 41.4606C30.6166 41.6918 30.8797 41.9488 31.3475 42.1543C31.8153 42.3599 32.4877 42.4884 33.394 42.4627C34.3003 42.4113 34.7681 42.3856 35.0312 42.3085C35.2944 42.2314 35.3528 42.1286 35.4405 41.9231C35.5575 41.7175 35.7914 41.3321 35.9083 40.9467C36.0253 40.5613 36.0253 40.1502 35.6159 39.9189C35.6744 39.5849 35.7914 39.1481 35.9375 38.737C36.0837 38.3259 36.3176 37.9148 36.61 37.6322C36.9023 37.3752 37.3116 37.0926 37.6625 36.8614C38.0133 36.6301 38.3349 36.3989 38.4226 36.2447C38.8904 36.4759 39.3581 36.7329 39.6797 37.144C40.0306 37.5551 40.2352 38.069 40.2937 38.7884C40.2937 39.1738 40.3522 39.5335 40.4399 39.8676C40.4983 40.1759 40.586 40.4585 40.6153 40.6384C40.6445 40.8439 40.6445 41.0495 40.6738 41.255C40.6738 41.4863 40.6738 41.6918 40.7322 41.9231C40.7907 42.1543 40.9369 42.3599 41.1415 42.4884C41.3462 42.6425 41.6093 42.7196 41.8432 42.6682C42.0771 42.6425 42.2525 42.4627 42.3987 42.2314C42.5449 42.0002 42.6326 41.7175 42.6326 41.512C42.6326 41.2807 42.5448 41.1266 42.4571 40.9981C42.3402 40.8696 42.2233 40.7669 42.1063 40.6898C41.9894 40.6127 41.9309 40.5099 41.9017 40.3814C41.8724 40.253 41.9017 40.0988 42.0186 39.8419C42.1355 39.5849 42.1063 39.3537 42.0186 39.1738C41.9309 38.994 41.814 38.8398 41.697 38.737C41.5801 38.6342 41.4631 38.3773 41.3462 38.0176C41.2585 37.6579 41.2 37.2211 41.2 36.81C41.2 36.3989 41.1708 35.9107 41.0246 35.4739C40.8784 35.0628 40.6738 34.703 40.3814 34.5489C41.2292 34.4975 42.194 34.4461 43.0419 34.2149C43.8897 33.9836 44.6498 33.5982 45.0884 32.9301C44.7083 32.8531 44.1528 32.9045 43.4804 32.7246ZM40.7615 33.5211C40.0013 33.367 39.3581 33.0843 39.0365 32.7503C38.8611 32.5704 38.6272 32.3906 38.3934 32.2621C38.1302 32.1336 37.8671 32.0309 37.604 31.9538C37.3409 31.9024 36.9316 31.7482 36.493 31.5941C36.0545 31.4399 35.6452 31.26 35.3821 31.1573C35.3236 31.26 35.2066 31.3885 35.0312 31.5427C34.8558 31.6968 34.6219 31.9024 34.3296 32.1079C34.0664 32.3135 34.008 32.4934 34.008 32.6218C34.0372 32.7503 34.1542 32.8788 34.2126 32.9815C34.3003 33.0843 34.6219 33.3156 34.9728 33.5982C35.3236 33.8551 35.7037 34.1121 35.8206 34.2405C35.4113 34.2405 35.1189 34.2149 34.7681 34.1121C34.4173 34.0093 34.0372 33.8294 33.394 33.4697C32.7508 33.11 32.5462 32.7503 32.5462 32.4163C32.5462 32.1079 32.7216 31.8253 32.8093 31.7225C32.897 31.6197 33.1309 31.4399 33.3648 31.2857C33.5987 31.1316 33.8326 30.9774 33.9203 30.9003C34.008 30.8232 34.0957 30.7461 34.0664 30.6691C34.0664 30.592 33.9787 30.5406 33.8326 30.5663C32.7508 30.7205 31.9907 30.9774 31.4937 31.26C30.9967 31.5427 30.792 31.8253 30.7628 32.0309C30.7336 32.2364 30.792 32.4163 30.8797 32.5961C30.9674 32.776 31.1429 32.9558 31.3767 33.1357C31.6106 33.3156 31.6983 33.5725 31.6691 33.8037C31.6691 34.035 31.5522 34.2405 31.4352 34.369C31.289 34.4975 31.2306 34.5746 31.1721 34.6517C31.1136 34.7287 31.0844 34.8829 30.9967 35.1398C30.909 35.3968 30.8505 35.885 30.8213 36.4245C30.792 36.9641 30.792 37.5037 30.8213 37.8891C30.9674 37.6836 31.1721 37.5037 31.3767 37.3752C31.5814 37.2468 31.8153 37.1697 31.9615 37.1183C32.0784 38.1204 32.0199 38.8141 31.903 39.328C31.8153 39.8419 31.6399 40.1759 31.5522 40.4585C31.5229 40.5356 31.4937 40.587 31.4352 40.5613C31.3767 40.5613 31.3183 40.5099 31.289 40.4071C31.2013 40.1759 31.0552 39.8162 30.8797 39.4821C30.7043 39.1481 30.4997 38.8398 30.295 38.6856C29.7395 38.1974 29.4764 37.9405 29.3595 37.7349C29.2425 37.5294 29.2718 37.3752 29.2718 37.0669C28.3947 36.6815 28.1023 36.219 28.1023 35.7565C28.1023 35.3197 28.3654 34.9086 28.5993 34.6003C28.8332 34.3176 29.0086 33.9579 29.1548 33.6239C29.301 33.2899 29.3595 33.0072 29.3887 32.8274C29.4179 32.6475 29.301 32.3135 29.1548 31.9795C28.9794 31.6454 28.7748 31.2857 28.5116 31.0288C28.4532 31.0031 28.307 30.9774 28.1316 31.0031C27.9561 31.0288 27.7807 31.1059 27.6638 31.3371C27.5468 31.5684 27.3714 31.6968 27.2253 31.7482C27.0498 31.7996 26.8744 31.8253 26.699 31.7996C26.5236 31.7739 26.2897 31.7739 26.0851 31.7996C25.8804 31.8253 25.6757 31.9281 25.5296 32.1079C25.3834 32.2878 25.208 32.2878 25.0033 32.2364C24.8279 32.185 24.6233 32.0822 24.4771 32.0052C24.3309 31.9538 24.2432 31.8767 24.1262 31.8253C24.0093 31.7739 23.8631 31.7482 23.5415 31.7739C23.2199 31.7996 23.103 31.9795 23.0153 32.2107C22.8983 32.4163 22.8106 32.6475 22.5475 32.6989C22.2844 32.776 22.0797 32.6475 21.9628 32.3906C21.8458 32.1336 21.8166 31.7739 21.8166 31.3885C21.7289 30.9003 21.9336 30.1295 22.1967 29.4101C22.4598 28.6906 22.7814 28.0226 22.9568 27.6885C23.103 27.3545 23.3661 26.7379 23.6 26.0184C23.8631 25.3247 24.097 24.5539 24.2724 23.9629C24.4478 23.3719 24.8279 22.9351 25.3249 22.524C25.8219 22.1129 26.3482 21.7532 26.8452 21.3164C27.3422 20.8796 27.9269 20.4942 28.5116 20.2116C29.0963 19.9289 29.6811 19.7491 30.1196 19.7491C30.5581 19.7491 31.0259 19.9803 31.406 20.2116C31.786 20.4685 32.1076 20.7254 32.2538 20.8796C32.4 21.0338 32.5462 21.3678 32.6924 21.7275C32.8385 22.0872 32.9847 22.4726 33.1601 22.7039C33.3355 22.9351 33.4817 23.2692 33.5987 23.6803C33.7156 24.0914 33.8326 24.5539 33.9203 24.9907C34.008 25.4532 34.2126 25.7615 34.4173 26.0184C34.6219 26.2754 34.8558 26.4809 35.002 26.7122C35.1482 26.9434 35.3236 27.483 35.5282 28.074C35.7329 28.6649 35.996 29.333 36.3176 29.7698C36.6392 30.2066 37.1362 30.5149 37.6332 30.6948C38.1302 30.9003 38.598 30.9774 38.8319 31.0545C39.0658 31.1059 39.2412 31.1316 39.4166 31.2086C39.592 31.2857 39.7967 31.4399 40.089 31.7482C40.4983 32.1593 41.1123 32.519 41.697 32.776C42.2817 33.0329 42.808 33.1871 43.0419 33.2642C42.3694 33.6496 41.5216 33.6496 40.7615 33.5211ZM11.6425 7.92977L10.7947 8.13532L10.5316 11.5783L11.3209 11.3728L11.3502 10.6533L12.6658 10.3193L13.1043 10.9103L13.9229 10.7047L11.6425 7.92977ZM11.3794 10.0881L11.4379 8.72629L12.2857 9.85683L11.3794 10.0881ZM22.6937 8.52073C22.6645 8.2124 22.489 7.90408 22.0213 7.8013C22.1674 7.72422 22.4598 7.57005 22.3721 7.08186C22.3429 6.74784 22.0505 6.28535 21.1442 6.36243L19.3608 6.54229L19.7701 9.77975L21.3196 9.62558C22.0797 9.5485 22.2551 9.42003 22.4306 9.21448C22.6352 9.03462 22.7229 8.77768 22.6937 8.52073ZM20.1794 7.03048L21.0565 6.95339C21.4073 6.9277 21.6412 6.97909 21.6704 7.23603C21.6997 7.49297 21.4658 7.62144 21.1734 7.64713L20.2671 7.72422L20.1794 7.03048ZM21.3781 9.03462L20.4425 9.13739L20.3256 8.26379L21.2904 8.16102C21.5535 8.13532 21.8458 8.21241 21.9043 8.49504C21.9628 8.85476 21.7581 9.00892 21.3781 9.03462ZM25.5588 6.00271C25.0618 6.02841 23.8047 6.25965 23.8631 7.77561C23.9216 9.29156 25.2372 9.44572 25.705 9.42003C26.202 9.39433 27.4591 9.16309 27.4007 7.64713C27.3422 6.10549 26.0266 5.97702 25.5588 6.00271ZM25.6757 8.85476C25.2664 8.88045 24.6525 8.6749 24.6233 7.74991C24.594 6.85062 25.1495 6.59368 25.588 6.56798C25.9973 6.54229 26.6113 6.74784 26.6405 7.67283C26.6698 8.57212 26.0851 8.82906 25.6757 8.85476ZM31.6691 8.62351C31.6983 8.00685 31.5229 7.90408 31.2306 7.77561C31.6106 7.67283 31.8153 7.3645 31.8153 7.00478C31.8153 6.72215 31.6691 6.07979 30.6751 6.0541L28.804 6.00271L28.687 9.26586L29.4472 9.29156L29.5056 8.00685L30.295 8.03255C30.8797 8.05824 30.8797 8.21241 30.8797 8.6749C30.8797 9.00892 30.8797 9.18878 30.9382 9.34295L31.786 9.36864V9.29156C31.6399 9.21448 31.6399 9.08601 31.6691 8.62351ZM30.4412 7.49297L29.5349 7.46728L29.5641 6.59368L30.5289 6.61937C30.9674 6.61937 31.0551 6.87631 31.0551 7.05617C31.0259 7.39019 30.8213 7.51866 30.4412 7.49297Z" fill="white"/>
</svg>
