<svg width="67" height="47" fill="none" xmlns="http://www.w3.org/2000/svg"><path fill-rule="evenodd" clip-rule="evenodd" d="M2.084 14.124a1.88 1.88 0 00-1.368.56A2.102 2.102 0 000 16.197v13.848c.002.515.206 1.007.57 1.372a2.02 2.02 0 001.514.684h62.974a1.866 1.866 0 001.368-.684c.358-.2.573-.688.573-1.372V16.18a2.149 2.149 0 00-.573-1.515 1.92 1.92 0 00-1.368-.54H2.084zm14.267 3.854h2.865v10.27h-2.865v-10.27zm-12.64 0h4.68l3.137 7.807v-7.807h2.883v10.27H9.873l-3.28-8.075v8.075H3.728v-10.27H3.71zm19.925 0h5.908v2.31h-5.776v1.654h2.997c2.482 0 3.71 1.028 3.71 3.17a3.438 3.438 0 01-.827 2.31 3.191 3.191 0 01-2.055.826H21v-2.31h6.446v-1.654h-3.134c-1.17 0-2.055-.286-2.625-.827-.57-.54-.802-1.433-.802-2.597 0-1.163.2-1.854.66-2.198.482-.484 1.166-.684 2.08-.684h.01zm16.322 0v2.31h-5.773v1.654h2.994c2.482 0 3.71 1.028 3.71 3.17a3.14 3.14 0 01-.942 2.31 2.697 2.697 0 01-2.055.826h-6.306v-2.31h6.306v-1.654h-3.155c-1.286 0-2.256-.358-2.865-1.114a3.546 3.546 0 01-.716-2.31c0-1.027.286-1.79.827-2.198.484-.484 1.171-.684 2.056-.684h5.92zm4.251 0h4.25l3.71 10.27h-3.022l-.544-1.912h-4.405l-.54 1.912h-3.026l3.58-10.27h-.003zm8.505 0h4.82l2.987 7.807v-7.807h3.026v10.27H59.04l-3.456-8.075v8.075h-2.865v-10.27h-.004z" fill="#000"/><path fill-rule="evenodd" clip-rule="evenodd" d="M45.026 24.14h2.74l-1.369-3.852-1.371 3.853zM21.4 3.582a22.99 22.99 0 00-8.361 9.174h41.036A22.525 22.525 0 0033.641 0a22.321 22.321 0 00-12.24 3.582zM13.039 33.47a22.805 22.805 0 008.362 9.189 22.562 22.562 0 0012.24 3.452 22.461 22.461 0 0012.212-3.452c3.767-2.453 6.507-5.537 8.236-9.19H13.04z" fill="#000"/></svg>