<svg width="67" height="68" fill="none" xmlns="http://www.w3.org/2000/svg"><path d="M33.5 0C15.067 0 0 15.068 0 33.532c0 18.434 15.068 33.47 33.5 33.47 18.433 0 33.5-15.037 33.5-33.47C67 15.069 51.933.002 33.5 0zm0 4.75c2.517 0 5.001.315 7.36.944l-7.265 20.101-7.298-20.133a28.648 28.648 0 017.202-.912zM4.716 33.532c0-3.365.567-6.575 1.637-9.562l13.338 34.758C10.757 53.852 4.717 44.353 4.717 33.532zm28.782 28.75c-2.674 0-5.253-.344-7.706-1.038l.03-.598 7.425-19.25 7.425 19.25.093.723a29.145 29.145 0 01-7.267.912zm5.537-26.988H27.49L23.089 46.68 11.072 15.507a29.157 29.157 0 018.114-6.952l8.462 23.31H39.54L47.968 8.65a28.89 28.89 0 017.612 6.48L43.439 46.68l-4.402-11.386zm7.706 23.748l13.684-35.701c1.195 3.176 1.824 6.605 1.824 10.192 0 11.07-6.321 20.698-15.508 25.51z" fill="#000"/></svg>