<svg width="62" height="61" fill="none" xmlns="http://www.w3.org/2000/svg"><path d="M46.718.12c.066.065.897.659 1.833 1.332.95.673 1.914 1.359 2.15 1.543l.423.317-1.478 1.675c-.817.924-1.49 1.69-1.503 1.715-.014.026-.66-.382-1.452-.897-3.984-2.599-8.482-4.143-13.482-4.63-1.622-.158-4.09-.027-6.82.356-11.213 1.57-20.724 9.59-24.194 20.421C1.165 25.144.81 27.546.81 31.134c0 2.783.184 4.498.712 6.793 2.375 10.184 10.04 18.509 19.973 21.688C24.687 60.644 27.088 61 30.676 61c4.934 0 8.839-.897 13.166-3.021 8.97-4.406 14.934-12.598 16.464-22.625.29-1.86.33-6.226.078-7.98-.673-4.657-2.308-9.063-4.696-12.639l-.87-1.306 1.583-1.833 1.57-1.847 1.478 2.216c.804 1.214 1.517 2.269 1.583 2.348.065.066.118-2.98.118-7.097V0h-7.282c-4.195 0-7.23.054-7.15.12zM33.051 11.622c5.21.646 10.105 3.482 13.205 7.664.739 1.003 1.69 2.573 2.058 3.43l.158.37H12.88l.158-.37c.37-.857 1.32-2.427 2.058-3.43 3.06-4.115 8.008-7.018 13.074-7.664 1.266-.158 3.6-.171 4.88 0zm15.276 27.65c-.37.844-1.49 2.678-2.19 3.589-7.163 9.366-20.804 10.276-29.194 1.979-1.543-1.53-3.153-3.826-3.905-5.554l-.158-.37h35.606l-.16.356z" fill="#fff"/></svg>