<svg width="61" height="61" fill="none" xmlns="http://www.w3.org/2000/svg"><path d="M46.568.12c.066.065.897.659 1.833 1.332.95.673 1.913 1.359 2.15 1.543l.423.317-1.478 1.675c-.818.924-1.49 1.69-1.504 1.715-.013.026-.659-.382-1.45-.897-3.985-2.599-8.483-4.143-13.483-4.63-1.622-.158-4.09-.027-6.82.356-11.214 1.57-20.725 9.59-24.194 20.421-1.03 3.192-1.386 5.594-1.386 9.182 0 2.783.185 4.498.713 6.793C3.747 48.111 11.41 56.436 21.344 59.615 24.537 60.644 26.937 61 30.526 61c4.934 0 8.838-.897 13.166-3.021 8.97-4.406 14.933-12.598 16.463-22.625.29-1.86.33-6.226.08-7.98-.674-4.657-2.31-9.063-4.697-12.639l-.87-1.306 1.582-1.833 1.57-1.847 1.478 2.216c.805 1.214 1.517 2.269 1.583 2.348.066.066.119-2.98.119-7.097V0h-7.283c-4.194 0-7.229.054-7.15.12zM32.9 11.622c5.21.646 10.105 3.482 13.205 7.664.739 1.003 1.689 2.573 2.058 3.43l.158.37H12.73l.158-.37c.37-.857 1.32-2.427 2.058-3.43 3.06-4.115 8.008-7.018 13.073-7.664 1.267-.158 3.602-.171 4.882 0zm15.275 27.65c-.369.844-1.49 2.678-2.19 3.589-7.163 9.366-20.803 10.276-29.193 1.979-1.544-1.53-3.153-3.826-3.905-5.554l-.158-.37h35.606l-.159.356z" fill="#000"/></svg>