<svg id="Layer_1" data-name="Layer 1" xmlns="http://www.w3.org/2000/svg" xmlns:xlink="http://www.w3.org/1999/xlink" viewBox="0 0 24.81 31.5"><defs><style>.cls-1{fill:#fff;fill-rule:evenodd;}.cls-2{fill:none;stroke:#000;stroke-width:1.5px;}.cls-3{mask:url(#mask);}.cls-4{mask:url(#mask-2-2);}</style><mask id="mask" x="0.01" y="0" width="24.8" height="31.5" maskUnits="userSpaceOnUse"><g transform="translate(-0.99 0)"><g id="mask-2"><polygon id="path-1" class="cls-1" points="1 31.5 25.8 31.5 25.8 0 1 0 1 31.5"/></g></g></mask><mask id="mask-2-2" x="0.01" y="0" width="24.81" height="31.5" maskUnits="userSpaceOnUse"><g transform="translate(-0.99 0)"><g id="mask-2-3" data-name="mask-2"><polygon id="path-1-2" data-name="path-1" class="cls-1" points="1 31.5 25.8 31.5 25.8 0 1 0 1 31.5"/></g></g></mask></defs><g id="Output"><g id="VDP-V1"><g id="Group-22"><g id="Group-6"><g id="icon_fuel-type" data-name="icon/fuel-type"><g id="Group-10"><path id="Stroke-1" class="cls-2" d="M1.74,1.75a1,1,0,0,1,1-1H18.11a1,1,0,0,1,1,1v29H1.74Z" transform="translate(-0.99 0)"/><g class="cls-3"><polygon id="Stroke-3" class="cls-2" points="5.71 11.81 13.15 11.81 13.15 6.81 5.71 6.81 5.71 11.81"/></g><g class="cls-4"><path id="Stroke-5" class="cls-2" d="M22.08,26.75a1.49,1.49,0,1,0,3,0" transform="translate(-0.99 0)"/></g><g class="cls-3"><path id="Stroke-6" class="cls-2" d="M22.08,19.25a1.5,1.5,0,0,0-1.49-1.5H19.1" transform="translate(-0.99 0)"/></g><g class="cls-4"><polyline id="Stroke-7" class="cls-2" points="18.11 9.53 21.07 9.53 24.06 12.54 24.06 14.25 21.07 14.25 21.07 9.53"/></g><g class="cls-4"><line id="Stroke-8" class="cls-2" x1="24.06" y1="14.25" x2="24.06" y2="26.75"/></g><g class="cls-3"><line id="Stroke-9" class="cls-2" x1="21.09" y1="19.25" x2="21.09" y2="26.75"/></g></g></g></g></g></g></g></svg>