<svg width="41" height="41" viewBox="0 0 41 41" fill="none" xmlns="http://www.w3.org/2000/svg">
    <path d="M36 12H41V14H36V12Z" fill="#0472AF"/>
    <path d="M0 12H5V14H0V12Z" fill="#0472AF"/>
    <path d="M39 22.1436L37.6559 24L33 21.8564L34.3441 20L39 22.1436Z" fill="#0472AF"/>
    <path d="M6.65593 6L2 3.8564L3.34407 2L8 4.1436L6.65593 6Z" fill="#0472AF"/>
    <path d="M33 4.1436L37.6559 2L39 3.8564L34.3441 6L33 4.1436Z" fill="#0472AF"/>
    <path d="M3.34415 24L2 22.1436L6.65585 20L8 21.8564L3.34415 24Z" fill="#0472AF"/>
    <path d="M17.6032 0.294643C12.3052 1.3773 8.12672 5.63162 7.20499 10.8804C6.14424 16.9234 9.29998 22.4287 14.3637 24.9687V28.9878H11.9092V31.3902H14.3637V33.7927H11.9092V36.1951H16.8183V41H24.1819V36.1951H29.0909V33.7927H26.6364V31.3902H29.0909V28.9878H26.6364V24.9694C31.1354 22.7199 34 18.1881 34 13.2118C34 4.8843 26.2117 -1.46464 17.6032 0.294643ZM21.7273 38.5976H19.2728V36.1951H21.7273V38.5976ZM24.1819 33.7927H16.8183V31.3902H24.1819V33.7927ZM24.9169 23.1094L24.1819 23.4244V28.9878H16.8183V23.4244L16.0832 23.1097C11.4097 21.1076 8.75378 16.2461 9.62405 11.2874C10.3764 7.00207 13.7846 3.52949 18.105 2.6464C25.1707 1.20213 31.5455 6.39333 31.5455 13.2118C31.5455 17.4996 28.9436 21.3845 24.9169 23.1094Z" fill="#0472AF"/>
    <path d="M23.5667 7.55498L21.8443 6L16 14.2445H20.411L17.4333 18.445L19.1557 20L25 11.7555H20.589L23.5667 7.55498Z" fill="#0472AF"/>
</svg>
