<svg width="36" height="34" viewBox="0 0 36 34" fill="none" xmlns="http://www.w3.org/2000/svg">
    <path d="M18 3.95265V33L28.1794 30.0713L33.4358 30.0054L35 27.7595V2.67097L31.7504 1L18 3.95265Z" fill="#0472AF"/>
    <path d="M32.6551 0.00320204C28.1811 -0.0635804 23.3896 0.913871 18.0061 2.97198C12.6043 0.913871 7.80671 -0.045367 3.35707 0.00320204C2.46771 0.00640152 1.61569 0.359231 0.986814 0.984746C0.357937 1.61026 0.00321668 2.45772 0 3.34232V27.6268C0.00480977 28.511 0.360043 29.3575 0.988578 29.9827C1.61711 30.6078 2.4682 30.9612 3.35707 30.966C7.69074 30.9052 12.3723 31.8827 17.6582 33.9408C17.8749 34.0197 18.1129 34.0197 18.3296 33.9408C23.6094 31.8827 28.2787 30.9052 32.6429 30.966C33.5313 30.9596 34.3815 30.6058 35.0097 29.9809C35.6379 29.3561 35.9936 28.5105 36 27.6268V3.34232C35.9984 2.45933 35.6459 1.61276 35.0193 0.987253C34.3927 0.361738 33.5429 0.00801037 32.6551 0.00320204ZM3.35707 29.1446C2.95286 29.143 2.56566 28.9826 2.27984 28.6983C1.99402 28.414 1.83273 28.0289 1.83113 27.6268V3.34232C1.83273 2.94027 1.99402 2.55515 2.27984 2.27086C2.56566 1.98656 2.95286 1.82614 3.35707 1.82454C7.50763 1.7699 12.0061 2.6745 17.0783 4.5869V31.7856C12.8255 30.1326 8.31278 29.2385 3.74771 29.1446H3.35707ZM34.1811 27.6268C34.1779 28.0284 34.0161 28.4126 33.7306 28.6966C33.4451 28.9805 33.0588 29.1415 32.6551 29.1446C28.4191 29.0839 23.9084 29.9642 18.9095 31.7856V4.5869C23.9878 2.68057 28.4863 1.77597 32.6551 1.82454C33.0598 1.82454 33.448 1.98445 33.7342 2.26909C34.0203 2.55373 34.1811 2.93978 34.1811 3.34232V27.6268Z" fill="#0472AF"/>
</svg>
