<svg width="35" height="35" viewBox="0 0 35 35" fill="none" xmlns="http://www.w3.org/2000/svg">
<path d="M23.3973 22.4303C23.1303 22.1634 22.6974 22.1635 22.4305 22.4304C20.393 24.4679 17.3685 25.0444 14.7251 23.8989C14.3788 23.7489 13.9762 23.908 13.8261 24.2543C13.6759 24.6007 13.8351 25.0033 14.1815 25.1533C15.2343 25.6095 16.358 25.841 17.4929 25.841C17.994 25.841 18.4972 25.7958 18.9974 25.705C20.6697 25.4012 22.1912 24.6031 23.3973 23.397C23.6642 23.1301 23.6642 22.6972 23.3973 22.4303Z" fill="#0472AF"/>
<path d="M12.5931 22.4551C12.5858 22.4471 12.5772 22.4381 12.5696 22.4304C12.3026 22.1636 11.8698 22.1636 11.6028 22.4304C11.3387 22.6946 11.336 23.1211 11.5945 23.3887C11.7281 23.5279 11.9075 23.5985 12.0874 23.5985C12.2515 23.5985 12.4161 23.5398 12.5471 23.4207C12.8265 23.1667 12.8471 22.7344 12.5931 22.4551Z" fill="#0472AF"/>
<path d="M17.5 6.21893C11.2796 6.21893 6.21893 11.2796 6.21893 17.5C6.21893 23.7204 11.2796 28.7811 17.5 28.7811C23.7204 28.7811 28.7811 23.7204 28.7811 17.5C28.7811 11.2796 23.7204 6.21893 17.5 6.21893ZM17.5 27.4139C12.0334 27.4139 7.58612 22.9665 7.58612 17.5C7.58612 12.0335 12.0334 7.58612 17.5 7.58612C19.8839 7.58612 22.0738 8.43207 23.7857 9.83925L20.144 11.6214C20.0763 11.6545 20.0145 11.6986 19.9611 11.752L15.8565 15.8566C15.8465 15.8666 15.8375 15.8774 15.8283 15.8879C15.4248 16.306 15.1758 16.8743 15.1758 17.5C15.1758 18.7816 16.2184 19.8242 17.5 19.8242C18.1256 19.8242 18.6939 19.5753 19.1122 19.1718C19.1227 19.1625 19.1335 19.1536 19.1435 19.1435L23.2481 15.0389C23.3014 14.9855 23.3456 14.9237 23.3787 14.856L25.1608 11.2143C26.568 12.9262 27.414 15.1161 27.414 17.5C27.4139 22.9666 22.9666 27.4139 17.5 27.4139ZM18.3207 15.3259L20.8473 12.7993L23.4977 11.5022L22.2007 14.1527L19.6741 16.6794C19.4384 16.057 18.943 15.5616 18.3207 15.3259ZM18.457 17.5C18.457 18.0277 18.0277 18.457 17.5 18.457C16.9723 18.457 16.543 18.0277 16.543 17.5C16.543 16.9723 16.9723 16.543 17.5 16.543C18.0277 16.543 18.457 16.9723 18.457 17.5Z" fill="#0472AF"/>
<path d="M34.3164 13.8086H32.1287C31.7709 12.3845 31.2092 11.0293 30.4536 9.76691L32.0013 8.21919C32.2682 7.95225 32.2682 7.51939 32.0013 7.25238L27.7475 2.99865C27.4806 2.73171 27.0478 2.73171 26.7807 2.99865L25.233 4.54638C23.9707 3.7908 22.6155 3.22909 21.1914 2.8713V0.683594C21.1914 0.306045 20.8854 0 20.5078 0H14.4922C14.1146 0 13.8086 0.306045 13.8086 0.683594V2.8713C12.3845 3.22909 11.0293 3.79073 9.76691 4.54645L8.21919 2.99872C7.95225 2.73178 7.51939 2.73178 7.25238 2.99872L2.99865 7.25245C2.87048 7.38063 2.79843 7.55453 2.79843 7.73582C2.79843 7.91711 2.87048 8.09102 2.99865 8.21919L4.54638 9.76691C3.79094 11.0292 3.22916 12.3845 2.8713 13.8086H0.683594C0.306045 13.8086 0 14.1146 0 14.4922V20.5078C0 20.8854 0.306045 21.1914 0.683594 21.1914H2.8713C3.22909 22.6155 3.79087 23.9708 4.54651 25.2331L2.99879 26.7808C2.87062 26.909 2.79856 27.0829 2.79856 27.2642C2.79856 27.4455 2.87062 27.6194 2.99879 27.7475L7.25252 32.0013C7.38069 32.1295 7.5546 32.2015 7.73589 32.2015C7.91718 32.2015 8.09108 32.1295 8.21926 32.0013L9.76698 30.4536C11.0293 31.2093 12.3845 31.7709 13.8087 32.1288V34.3164C13.8087 34.694 14.1147 35 14.4923 35H20.5079C20.8854 35 21.1915 34.694 21.1915 34.3164V32.1287C22.6156 31.7709 23.9709 31.2091 25.2332 30.4535L26.7809 32.0012C26.9091 32.1294 27.083 32.2014 27.2642 32.2014C27.4455 32.2014 27.6194 32.1294 27.7476 32.0012L32.0013 27.7475C32.2683 27.4805 32.2683 27.0477 32.0013 26.7807L30.4536 25.233C31.2093 23.9706 31.771 22.6155 32.1288 21.1913H34.3164C34.694 21.1913 35 20.8852 35 20.5077V14.4921C35 14.1146 34.694 13.8086 34.3164 13.8086ZM33.6328 19.8242H31.5855C31.2627 19.8242 30.984 20.05 30.9168 20.3657C30.5685 22.0049 29.9279 23.5508 29.0127 24.96C28.8369 25.2307 28.8745 25.5875 29.1026 25.8156L30.5511 27.2641L27.2642 30.551L25.8158 29.1026C25.5876 28.8744 25.2308 28.8367 24.9601 29.0126C23.5509 29.9277 22.0052 30.5683 20.3658 30.9168C20.05 30.9839 19.8243 31.2627 19.8243 31.5854V33.6328H15.1758V31.5855C15.1758 31.2627 14.9501 30.984 14.6344 30.9168C12.995 30.5685 11.4493 29.9278 10.0401 29.0127C9.76937 28.8369 9.41261 28.8744 9.18436 29.1026L7.73596 30.5511L4.44903 27.2642L5.8975 25.8158C6.12575 25.5875 6.16321 25.2308 5.98746 24.9601C5.07233 23.5509 4.43174 22.0052 4.08331 20.3658C4.01618 20.05 3.73741 19.8243 3.41462 19.8243H1.36719V15.1758H3.41448C3.73728 15.1758 4.01604 14.9501 4.08317 14.6344C4.4316 12.995 5.0722 11.4492 5.98732 10.0401C6.16308 9.76937 6.12562 9.41261 5.89736 9.18436L4.4489 7.73596L7.73582 4.44903L9.18429 5.8975C9.41247 6.12568 9.76924 6.16328 10.0399 5.98739C11.4492 5.07227 12.995 4.4316 14.6342 4.08331C14.95 4.01625 15.1757 3.73741 15.1757 3.41462V1.36719H19.8242V3.41448C19.8242 3.73728 20.0499 4.01604 20.3656 4.08317C22.0049 4.43153 23.5507 5.07213 24.9599 5.98726C25.2306 6.16301 25.5873 6.12555 25.8156 5.89736L27.264 4.4489L30.551 7.73582L29.1025 9.18429C28.8743 9.41247 28.8368 9.76924 29.0126 10.0399C29.9277 11.4492 30.5684 12.995 30.9167 14.6342C30.9837 14.95 31.2626 15.1757 31.5854 15.1757H33.6328V19.8242Z" fill="#0472AF"/>
<path d="M9.91279 16.8164H9.36523C8.98769 16.8164 8.68164 17.1225 8.68164 17.5C8.68164 17.8775 8.98769 18.1836 9.36523 18.1836H9.91279C10.2903 18.1836 10.5964 17.8775 10.5964 17.5C10.5964 17.1225 10.2903 16.8164 9.91279 16.8164Z" fill="#0472AF"/>
<path d="M12.632 11.6653L12.2313 11.2645C11.9643 10.9975 11.5315 10.9975 11.2644 11.2645C10.9975 11.5314 10.9975 11.9643 11.2644 12.2313L11.6653 12.6321C11.7988 12.7656 11.9737 12.8324 12.1487 12.8324C12.3236 12.8324 12.4986 12.7656 12.632 12.6321C12.899 12.3652 12.899 11.9323 12.632 11.6653Z" fill="#0472AF"/>
<path d="M17.5 8.68164C17.1225 8.68164 16.8164 8.98769 16.8164 9.36523V9.75673C16.8164 10.1343 17.1225 10.4403 17.5 10.4403C17.8775 10.4403 18.1836 10.1343 18.1836 9.75673V9.36523C18.1836 8.98769 17.8775 8.68164 17.5 8.68164Z" fill="#0472AF"/>
<path d="M25.6348 16.8164H25.2433C24.8657 16.8164 24.5597 17.1225 24.5597 17.5C24.5597 17.8775 24.8657 18.1836 25.2433 18.1836H25.6348C26.0123 18.1836 26.3184 17.8775 26.3184 17.5C26.3184 17.1225 26.0123 16.8164 25.6348 16.8164Z" fill="#0472AF"/>
</svg>
