<svg width="43" height="43" viewBox="0 0 43 43" fill="none" xmlns="http://www.w3.org/2000/svg">
<path d="M21.5 1.26526C17.498 1.26526 13.5858 2.45201 10.2582 4.67543C6.9306 6.89885 4.33707 10.0591 2.80555 13.7565C1.27403 17.4539 0.873311 21.5224 1.65407 25.4476C2.43483 29.3728 4.36201 32.9782 7.19189 35.8081C10.0218 38.638 13.6273 40.5652 17.5524 41.3459C21.4776 42.1267 25.5461 41.726 29.2435 40.1945C32.9409 38.6629 36.1012 36.0694 38.3246 32.7418C40.548 29.4142 41.7347 25.5021 41.7347 21.5C41.7288 16.1352 39.595 10.9919 35.8016 7.19842C32.0081 3.40495 26.8648 1.27118 21.5 1.26526ZM21.5 37.7663C18.2828 37.7663 15.1379 36.8123 12.4629 35.0249C9.78797 33.2376 7.70307 30.6971 6.47192 27.7248C5.24076 24.7526 4.91863 21.482 5.54627 18.3266C6.17391 15.1713 7.72312 12.2729 9.99801 9.998C12.2729 7.72312 15.1713 6.1739 18.3266 5.54626C21.482 4.91863 24.7526 5.24075 27.7248 6.47191C30.6971 7.70307 33.2376 9.78796 35.0249 12.4629C36.8123 15.1379 37.7663 18.2828 37.7663 21.5C37.7615 25.8126 36.0462 29.9472 32.9967 32.9967C29.9473 36.0462 25.8126 37.7615 21.5 37.7663Z" fill="#0472AF"/>
<path d="M21.8442 12.593C22.0316 12.6154 22.2177 12.6439 22.4023 12.6785L23.8841 9.89522V9.89318C23.8546 9.88707 23.8251 9.88095 23.7955 9.87587C23.7568 9.86772 23.7171 9.85957 23.6774 9.85244C23.6672 9.8504 23.656 9.84837 23.6458 9.84735C23.5908 9.83615 23.5358 9.82699 23.4808 9.81884C23.4391 9.81069 23.3973 9.80356 23.3545 9.79745C23.3179 9.79134 23.2812 9.78523 23.2446 9.78115C23.1865 9.77199 23.1274 9.76384 23.0684 9.75569C23.0307 9.7506 22.992 9.74551 22.9533 9.74143C22.8912 9.73329 22.8301 9.72616 22.7679 9.72005C22.7323 9.71597 22.6956 9.7119 22.659 9.70986C22.6019 9.70375 22.5449 9.69764 22.4879 9.69459C22.4533 9.69051 22.4176 9.68746 22.383 9.68542C22.3015 9.67931 22.22 9.67422 22.1386 9.67015C22.1263 9.66914 22.1141 9.66811 22.1029 9.66811C22.0041 9.66302 21.9043 9.65894 21.8055 9.65691C21.7037 9.65385 21.6019 9.65283 21.5 9.65283C19.0865 9.65194 16.7303 10.3885 14.747 11.7638C12.7637 13.1392 11.2479 15.0877 10.4027 17.3484C9.5575 19.6091 9.42319 22.074 10.0178 24.4132C10.6123 26.7523 11.9074 28.854 13.7295 30.4367L13.7305 30.4357L14.4658 29.5904C14.3945 29.518 14.3253 29.4457 14.256 29.3714C13.9242 29.0178 13.615 28.6437 13.3303 28.2511C12.9934 27.7801 12.6954 27.2825 12.4392 26.7632C12.1844 26.2507 11.9745 25.7171 11.8118 25.1684C11.6456 24.6283 11.5281 24.0745 11.4605 23.5135C11.4462 23.374 11.4197 23.2365 11.4146 23.0959L11.3861 22.6773C11.38 22.5378 11.3831 22.3973 11.38 22.2587C11.38 22.1885 11.377 22.1192 11.378 22.05L11.3882 21.8412C11.3963 21.7017 11.3963 21.5632 11.4106 21.4247L11.4513 21.0112C11.491 20.7372 11.5267 20.4643 11.5868 20.1965C11.6953 19.662 11.849 19.1377 12.0461 18.6291C12.2432 18.1279 12.4796 17.643 12.7528 17.1789C13.2959 16.2665 13.9842 15.4488 14.7907 14.7582C15.5792 14.0872 16.4719 13.5492 17.4335 13.1653C18.8341 12.614 20.3493 12.4174 21.8443 12.593L21.8442 12.593Z" fill="#0472AF"/>
<path d="M26.4555 10.8288C26.2779 10.7452 26.0799 10.7149 25.8854 10.7414C25.7263 10.7636 25.5746 10.8225 25.4422 10.9134C25.3098 11.0043 25.2004 11.1248 25.1224 11.2652L21.0025 18.3928L20.8228 18.4318C20.346 18.532 19.8996 18.7429 19.5195 19.0477C19.1394 19.3524 18.8364 19.7423 18.635 20.1858C18.4083 20.6732 18.3099 21.2105 18.3493 21.7465C18.3886 22.2826 18.5643 22.7998 18.8597 23.2488C19.1551 23.6979 19.5604 24.064 20.0371 24.3124C20.5138 24.5608 21.0461 24.6832 21.5834 24.668C22.1207 24.6528 22.6452 24.5006 23.1071 24.2256C23.569 23.9507 23.953 23.5623 24.2225 23.0973C24.4921 22.6322 24.6383 22.106 24.6473 21.5685C24.6563 21.0311 24.5278 20.5003 24.2739 20.0265L24.187 19.8646L26.9973 12.1279C27.083 11.8827 27.0752 11.6144 26.9752 11.3746C26.8752 11.1348 26.6901 10.9404 26.4555 10.8288Z" fill="#0472AF"/>
<path d="M31.1318 17.4574C31.2562 17.396 31.3686 17.313 31.4638 17.2122C31.6643 17.0105 31.8005 16.7539 31.8551 16.4748C31.9097 16.1957 31.8804 15.9067 31.7708 15.6443C31.6612 15.3819 31.4762 15.1578 31.2393 15.0006C31.0023 14.8433 30.7241 14.7598 30.4397 14.7606C30.1553 14.7615 29.8775 14.8466 29.6416 15.0054C29.4056 15.1641 29.2219 15.3892 29.1139 15.6523C29.0059 15.9153 28.9783 16.2045 29.0346 16.4833C29.0909 16.762 29.2286 17.0178 29.4303 17.2183C29.6491 17.4382 29.9338 17.5805 30.2409 17.6237C30.5481 17.6668 30.8609 17.6084 31.1318 17.4574Z" fill="#0472AF"/>
<path d="M33.2263 21.946C33.1714 21.6646 33.0203 21.4112 32.7989 21.2291C32.5775 21.047 32.2996 20.9477 32.0129 20.9482C31.9344 20.9483 31.8561 20.9557 31.7789 20.9704C31.6199 21.0003 31.4685 21.0617 31.3336 21.151C31.1987 21.2402 31.083 21.3556 30.9932 21.4902C30.8095 21.762 30.7412 22.0956 30.8034 22.4178L30.8035 22.4182C30.8535 22.679 30.987 22.9166 31.1838 23.0949C31.3806 23.2732 31.6301 23.3827 31.8946 23.4068L31.9087 23.4086C32.0222 23.4239 32.1375 23.4189 32.2491 23.3937C32.5706 23.331 32.854 23.1434 33.0372 22.872C33.2204 22.6005 33.2884 22.2675 33.2263 21.946Z" fill="#0472AF"/>
<path d="M30.2816 27.2825C30.1546 27.2273 30.0177 27.1988 29.8792 27.1989C29.677 27.1994 29.4794 27.259 29.3107 27.3704C29.1419 27.4818 29.0094 27.64 28.9293 27.8257L28.9289 27.8264C28.8414 28.0296 28.8223 28.2557 28.8745 28.4708C28.9267 28.6858 29.0474 28.878 29.2184 29.0184L29.2397 29.0372C29.3074 29.0969 29.3851 29.1441 29.4693 29.1767C29.5937 29.2303 29.7274 29.2588 29.8629 29.2606C29.9983 29.2624 30.1328 29.2375 30.2586 29.1874C30.3844 29.1372 30.4991 29.0627 30.5961 28.9681C30.6931 28.8736 30.7705 28.7608 30.8239 28.6363C30.8773 28.5119 30.9056 28.3781 30.9072 28.2426C30.9089 28.1072 30.8838 27.9728 30.8334 27.847C30.7831 27.7213 30.7084 27.6067 30.6137 27.5098C30.519 27.413 30.4062 27.3357 30.2816 27.2825L30.2816 27.2825Z" fill="#0472AF"/>
</svg>
