<svg id="Layer_1" data-name="Layer 1" xmlns="http://www.w3.org/2000/svg" viewBox="0 0 32.28 32.29"><defs><style>.cls-1{fill:none;stroke:#000;stroke-width:1.5px;}.cls-2{fill-rule:evenodd;}</style></defs><g id="Output"><g id="VDP-V1"><g id="Group-22"><g id="Group-2"><g id="icon_transmission" data-name="icon/transmission"><g id="Group-21"><path id="Stroke-1" class="cls-1" d="M31.85,16.46A15.39,15.39,0,1,1,16.46,1.07,15.39,15.39,0,0,1,31.85,16.46Z" transform="translate(-0.32 -0.32)"/><path id="Fill-3" class="cls-2" d="M18.44,16.19a2.25,2.25,0,1,1-2.25-2.25,2.25,2.25,0,0,1,2.25,2.25" transform="translate(-0.32 -0.32)"/><line id="Stroke-5" class="cls-1" x1="15.84" y1="0.48" x2="15.84" y2="5.61"/><line id="Stroke-7" class="cls-1" x1="4.92" y1="5.04" x2="8.55" y2="8.66"/><line id="Stroke-9" class="cls-1" x1="0.42" y1="15.98" x2="5.55" y2="15.98"/><line id="Stroke-11" class="cls-1" x1="4.97" y1="26.9" x2="8.6" y2="23.27"/><line id="Stroke-13" class="cls-1" x1="26.83" y1="26.85" x2="23.2" y2="23.22"/><line id="Stroke-15" class="cls-1" x1="31.33" y1="15.91" x2="26.2" y2="15.91"/><line id="Stroke-17" class="cls-1" x1="26.78" y1="4.99" x2="23.15" y2="8.61"/><line id="Stroke-19" class="cls-1" x1="15.84" y1="15.84" x2="19.69" y2="9.18"/></g></g></g></g></g></g></svg>