<svg width="44" height="44" viewBox="0 0 44 44" fill="none" xmlns="http://www.w3.org/2000/svg">
<path d="M43.4373 26.9957C43.7723 25.5527 43.9651 24.0558 44 22.5192H43.0782V21.2731H43.9953C43.9451 19.7402 43.7398 18.2467 43.3916 16.8085L42.5212 17.0416L42.1994 15.8384L43.0677 15.6056C42.6269 14.1531 42.0429 12.7636 41.3274 11.4555L40.5665 11.8949L39.9431 10.8161L40.6966 10.3811C39.9011 9.10372 38.9776 7.91514 37.9457 6.82991L37.3454 7.42995L36.4642 6.54936L37.0622 5.95169C35.972 4.92744 34.7795 4.01127 33.4986 3.22454L33.0792 3.95062L32.0002 3.32821L32.4186 2.6028C31.1106 1.8984 29.7212 1.32614 28.2716 0.895497L28.0575 1.69443L26.8531 1.37222L27.0669 0.57633C25.6346 0.239545 24.1487 0.0420135 22.6228 0V0.815197H21.3768V0C19.8513 0.0420135 18.3654 0.239545 16.9327 0.577008L17.1465 1.37222L15.9422 1.69511L15.7294 0.895836C14.2788 1.32647 12.8901 1.89874 11.5828 2.60314L12.0002 3.32788L10.9211 3.95096L10.5024 3.22488C9.22083 4.01127 8.02901 4.92778 6.93883 5.95203L7.53575 6.54869L6.65493 7.42995L6.05564 6.82991C5.02271 7.9148 4.09954 9.10372 3.30375 10.3807L4.05719 10.8154L3.43384 11.8946L2.67261 11.4551C1.95847 12.7633 1.3734 14.1528 0.933669 15.605L1.8006 15.8374L1.47876 17.0412L0.608443 16.8081C0.260181 18.2467 0.0548819 19.7399 0.00542043 21.2727H0.921134V22.5189H0C0.0352328 24.0554 0.228674 25.5523 0.563386 26.9957L1.47876 26.7504L1.8006 27.9539L0.87811 28.2009C1.30734 29.6642 1.88055 31.0653 2.58826 32.385L3.4335 31.8967L4.05685 32.9762L3.20618 33.4671C3.99723 34.7611 4.92073 35.9636 5.95299 37.0634L6.65392 36.3623L7.53541 37.2436L6.83144 37.947C7.92568 38.9882 9.12462 39.9189 10.4137 40.7189L10.9208 39.8417L11.9998 40.4648L11.4896 41.3487C12.8085 42.067 14.211 42.6505 15.6762 43.0893L15.9418 42.0979L17.1462 42.4201L16.8799 43.4108C18.3292 43.756 19.8327 43.957 21.3765 44V42.9774H22.6225V44C24.1673 43.957 25.6701 43.756 27.1191 43.4108L26.8538 42.4201L28.0572 42.0975L28.3231 43.0893C29.788 42.6505 31.1905 42.067 32.5094 41.3487L31.9992 40.4644L33.0782 39.8417L33.5853 40.7192C34.875 39.9193 36.073 38.9885 37.1672 37.947L36.4642 37.2433L37.3451 36.3623L38.0463 37.0634C39.0789 35.9636 40.0018 34.7611 40.7931 33.4671L39.9425 32.9762L40.5658 31.8971L41.4117 32.3853C42.1194 31.0656 42.693 29.6646 43.1209 28.2012L42.1987 27.9539L42.5206 26.7504L43.4373 26.9957ZM21.9998 34.0465C15.3476 34.0465 9.95462 28.6532 9.95462 22.0002C9.95462 15.3471 15.3476 9.95381 21.9998 9.95381C28.6527 9.95381 34.045 15.3471 34.045 22.0002C34.045 28.6532 28.6527 34.0465 21.9998 34.0465Z" fill="#0472AF"/>
<path d="M21.9999 12.0304C16.4944 12.0304 12.0313 16.494 12.0313 21.9998C12.0313 27.5056 16.4944 31.9692 21.9999 31.9692C27.5053 31.9692 31.968 27.5056 31.968 21.9998C31.968 16.494 27.5053 12.0304 21.9999 12.0304ZM17.0473 26.2988C16.4517 26.6427 15.6901 26.4387 15.3459 25.8427C15.0014 25.2464 15.2064 24.4841 15.8016 24.1405C16.3975 23.7963 17.1601 24.0002 17.5036 24.5962C17.8478 25.1925 17.6435 25.9549 17.0473 26.2988ZM17.5036 19.4042C17.1597 20.0001 16.3972 20.2041 15.8016 19.8602C15.2064 19.516 15.0017 18.754 15.3459 18.158C15.6905 17.562 16.452 17.3577 17.0473 17.7016C17.6435 18.0455 17.8478 18.8078 17.5036 19.4042ZM21.9999 29.6846C21.3115 29.6846 20.7538 29.1266 20.7538 28.4384C20.7538 27.7506 21.3115 27.1922 21.9999 27.1922C22.6882 27.1922 23.2459 27.7503 23.2459 28.4384C23.2459 29.1266 22.6886 29.6846 21.9999 29.6846ZM21.9999 16.8074C21.3115 16.8074 20.7538 16.2494 20.7538 15.5613C20.7538 14.8731 21.3115 14.3151 21.9999 14.3151C22.6882 14.3151 23.2459 14.8731 23.2459 15.5613C23.2459 16.2494 22.6886 16.8074 21.9999 16.8074ZM28.6541 25.8424C28.3102 26.4384 27.5477 26.6427 26.9521 26.2984C26.3565 25.9545 26.1522 25.1922 26.4958 24.5962C26.8403 24.0002 27.6025 23.7963 28.1978 24.1402C28.794 24.4844 28.9986 25.2464 28.6541 25.8424ZM28.1981 19.8599C27.6025 20.2038 26.8403 19.9998 26.4961 19.4042C26.1522 18.8078 26.3569 18.0458 26.9524 17.7016C27.548 17.3577 28.3106 17.5617 28.6544 18.158C28.9986 18.7536 28.794 19.516 28.1981 19.8599Z" fill="#0472AF"/>
</svg>
