<svg width="67" height="65" viewBox="0 0 67 65" fill="none" xmlns="http://www.w3.org/2000/svg">
<path d="M41.7472 0.394039H35.0031L34.8565 0V0.394039H31.9345L31.9318 0.0525389L31.8102 0.394039H25.2284C13.4773 1.98169 2.68862 9.63041 0 25.4385L0.206823 39.5637C0.825103 51.7603 8.87304 58.4578 17.4302 61.8767L17.4144 62.0293L17.4736 61.8942C23.3671 64.2409 29.4967 65.0344 33.6042 64.9989C40.4075 64.8631 45.9628 63.8178 50.466 61.9347L50.7315 62.4962L50.6436 61.8619C60.567 57.6391 65.3232 49.2997 67 37.5825V28.4616C66.3676 16.2098 59.4449 4.47179 41.7472 0.394039ZM34.8571 2.89618V26.2725H32.1413L31.9551 2.89618H34.8571ZM3.72379 38.2869V25.4385C6.78533 11.6203 15.6046 5.52858 25.8771 2.89618H30.9275L20.6524 31.9593L17.6701 59.6629C11.388 56.5867 5.94938 50.5141 3.72379 38.2869ZM33.3985 62.9143C28.6569 62.6981 23.2617 62.2105 18.3275 59.9749L31.5143 30.2742H35.484L49.2165 59.2913C45.1561 61.325 39.9884 62.6045 33.3985 62.9143ZM63.2534 37.218C61.7634 46.3482 58.4 54.1973 50.2142 58.7588L46.346 30.9058L35.9335 2.89564H41.1262C56.5017 7.04946 62.5711 17.5353 63.2529 28.7998L63.2534 37.218Z" fill="black"/>
</svg>
