<svg width="56" height="28" viewBox="0 0 56 28" fill="none" xmlns="http://www.w3.org/2000/svg">
<path d="M27.6592 0C12.5134 0 0.231445 6.11342 0.231445 13.6588C0.231445 21.2042 12.5134 27.3176 27.6592 27.3176C42.8051 27.3176 55.087 21.2042 55.087 13.6588C55.087 6.11342 42.8051 0 27.6592 0ZM27.6592 26.161C13.1743 26.161 1.49819 20.5984 1.49819 13.6588C1.49819 6.71926 13.1743 1.15659 27.6592 1.15659C42.1442 1.15659 53.8203 6.77433 53.8203 13.6588C53.8203 20.5433 42.1442 26.161 27.6592 26.161Z" fill="black"/>
<path d="M27.6593 1.65228C13.4497 1.65228 1.93884 7.04972 1.93884 13.6588C1.93884 20.2679 13.4497 25.6654 27.6593 25.6654C41.8689 25.6654 53.3797 20.2679 53.3797 13.6588C53.3797 7.04972 41.8689 1.65228 27.6593 1.65228ZM38.5643 10.905L41.2079 9.74844H38.8948L39.5006 8.04109H43.9617L43.411 9.74844L38.3991 11.4558L38.5643 10.905ZM34.9293 5.39744C35.5351 5.39744 36.196 5.56267 36.7468 5.83805C37.2425 6.16851 37.628 6.71926 37.6831 7.3251C37.7382 8.15124 37.628 8.97738 37.2976 9.74844C36.9671 10.5195 36.4163 11.1804 35.7554 11.6761C35.1496 12.1167 34.4336 12.337 33.6626 12.337H30.4682L32.6161 6.05835C32.6712 5.83805 32.6712 5.61775 32.6161 5.34237L34.9293 5.39744ZM25.7867 6.11343C25.8969 5.89313 25.8969 5.61775 25.7867 5.39744H27.8796L28.4854 8.53677L29.5869 5.39744H31.5697L29.0362 12.337H27.1085L26.5578 9.30783L25.3461 12.337H23.5837L25.7867 6.11343ZM20.6646 5.39744H22.8126L23.1981 12.337H21.2154L21.1052 11.4558H19.1225L18.4616 12.337H16.4789L20.5545 6.05835C20.6646 5.89313 20.7197 5.61775 20.6646 5.39744ZM13.9454 6.11343C14.0005 5.89313 14.0005 5.61775 13.9454 5.39744H16.3136L14.4961 10.7949H16.534L15.873 12.3921H11.7424L13.9454 6.11343ZM13.67 16.1923L13.0091 17.8997H8.49287L9.15378 16.1923L14.1657 14.485L13.9454 15.0357L11.3017 16.1372L13.67 16.1923ZM21.0502 16.5228C20.8849 16.9634 20.6096 17.2938 20.224 17.5692C19.8936 17.8446 19.453 18.0098 19.0124 18.0649L20.3893 20.6535H18.3515L17.0296 18.175L16.1484 20.6535H14.1106L16.3687 14.3748C16.4789 14.1545 16.4789 13.8791 16.3687 13.6588H19.1776C19.6182 13.6588 20.0588 13.769 20.4994 13.9893C20.7748 14.0994 20.9951 14.3197 21.1603 14.5951C21.3806 15.256 21.3806 15.972 21.0502 16.5228ZM27.1636 19.1664C26.723 19.7172 26.1722 20.1578 25.5113 20.4882C24.9055 20.7636 24.2446 20.8187 23.5837 20.7636C22.5923 20.5433 21.8212 19.7723 21.6009 18.7809C21.4357 18.0649 21.4357 17.3489 21.656 16.688C22.0966 15.3111 23.1431 14.2096 24.4649 13.7139C25.291 13.4385 26.1722 13.6038 26.8882 14.0444C27.439 14.4299 27.8245 14.9806 27.9347 15.6416C28.2651 16.8532 27.9897 18.175 27.1636 19.1664ZM28.8159 20.7085L28.7057 14.4299C28.7057 14.2096 28.6506 13.9342 28.5405 13.7139H30.6885V17.4591L33.2219 13.7139H35.5351L30.358 20.7636L28.8159 20.7085ZM37.9585 20.7085H33.5524L35.7004 14.5951C35.8105 14.3197 35.8105 13.9893 35.7004 13.7139H40.3818L39.8861 15.256H37.5729L37.1874 16.4677H38.9498L38.3991 18.0098H36.6917C36.5265 18.3954 36.4163 18.7809 36.3062 19.2215H38.6194L37.9585 20.7085ZM45.8343 16.5228C45.6691 16.9634 45.3937 17.3489 45.0082 17.5692C44.6777 17.8446 44.2371 18.0098 43.7965 18.0649L45.1734 20.6535H43.1356L41.8138 18.175L40.9326 20.6535H38.8948L41.1529 14.3748C41.263 14.1545 41.263 13.8791 41.1529 13.6588H43.9617C44.4023 13.6588 44.843 13.769 45.2285 13.9893C45.5039 14.0994 45.7242 14.3197 45.8894 14.5951C46.1097 15.256 46.1097 15.9169 45.8343 16.5228Z" fill="black"/>
<path d="M33.9929 10.6296C34.2132 10.5195 34.3784 10.4093 34.5436 10.2441C34.819 9.96872 35.0393 9.63827 35.1495 9.25273C35.4249 8.53675 35.8104 7.15985 34.9292 7.15985H34.4335L33.1668 10.7398H33.6624C33.7726 10.7398 33.8827 10.6847 33.9929 10.6296ZM43.3007 15.4212H42.8601L42.4746 16.5778H43.0253C43.7413 16.5778 44.4573 15.4212 43.3007 15.4212ZM18.5166 15.4212H18.076L17.6904 16.5778H18.2412C19.0673 16.5778 19.6732 15.4212 18.5166 15.4212ZM21.1051 9.91365L20.995 8.4266L20.1138 9.91365H21.1051ZM24.4097 15.7517C23.9691 16.2474 23.6937 16.9083 23.6386 17.5692C23.5835 17.9547 23.6386 18.3403 23.7488 18.6707C23.914 19.0562 24.4097 19.2215 24.7952 19.0012C24.9054 18.9461 25.0155 18.891 25.0706 18.7809C25.7315 18.0649 26.062 17.0735 25.8967 16.0821C25.8417 15.6415 25.4011 15.3111 24.9604 15.4212C24.6851 15.4763 24.5198 15.5865 24.4097 15.7517Z" fill="black"/>
</svg>
