<svg width="55" height="28" viewBox="0 0 55 28" fill="none" xmlns="http://www.w3.org/2000/svg">
<path d="M27.4278 0C12.2819 0 0 6.11342 0 13.6588C0 21.2042 12.2819 27.3176 27.4278 27.3176C42.5737 27.3176 54.8556 21.2042 54.8556 13.6588C54.8556 6.11342 42.5737 0 27.4278 0ZM27.4278 26.161C12.9428 26.161 1.26675 20.5984 1.26675 13.6588C1.26675 6.71926 12.9428 1.15659 27.4278 1.15659C41.9128 1.15659 53.5888 6.77433 53.5888 13.6588C53.5888 20.5433 41.9128 26.161 27.4278 26.161Z" fill="white"/>
<path d="M27.4278 1.65228C13.2183 1.65228 1.7074 7.04972 1.7074 13.6588C1.7074 20.2679 13.2183 25.6654 27.4278 25.6654C41.6374 25.6654 53.1483 20.2679 53.1483 13.6588C53.1483 7.04972 41.6374 1.65228 27.4278 1.65228ZM38.3329 10.905L40.9765 9.74844H38.6633L39.2691 8.04109H43.7303L43.1795 9.74844L38.1676 11.4558L38.3329 10.905ZM34.6979 5.39744C35.3037 5.39744 35.9646 5.56267 36.5154 5.83805C37.011 6.16851 37.3966 6.71926 37.4516 7.3251C37.5067 8.15124 37.3966 8.97738 37.0661 9.74844C36.7357 10.5195 36.1849 11.1804 35.524 11.6761C34.9182 12.1167 34.2022 12.337 33.4311 12.337H30.2367L32.3847 6.05835C32.4397 5.83805 32.4397 5.61775 32.3847 5.34237L34.6979 5.39744ZM25.5553 6.11343C25.6654 5.89313 25.6654 5.61775 25.5553 5.39744H27.6481L28.254 8.53677L29.3555 5.39744H31.3382L28.8047 12.337H26.8771L26.3263 9.30783L25.1146 12.337H23.3522L25.5553 6.11343ZM20.4332 5.39744H22.5812L22.9667 12.337H20.984L20.8738 11.4558H18.8911L18.2302 12.337H16.2474L20.323 6.05835C20.4332 5.89313 20.4883 5.61775 20.4332 5.39744ZM13.7139 6.11343C13.769 5.89313 13.769 5.61775 13.7139 5.39744H16.0822L14.2647 10.7949H16.3025L15.6416 12.3921H11.5109L13.7139 6.11343ZM13.4386 16.1923L12.7776 17.8997H8.26143L8.92234 16.1923L13.9342 14.485L13.7139 15.0357L11.0703 16.1372L13.4386 16.1923ZM20.8187 16.5228C20.6535 16.9634 20.3781 17.2938 19.9926 17.5692C19.6621 17.8446 19.2215 18.0098 18.7809 18.0649L20.1578 20.6535H18.12L16.7982 18.175L15.917 20.6535H13.8792L16.1373 14.3748C16.2474 14.1545 16.2474 13.8791 16.1373 13.6588H18.9461C19.3868 13.6588 19.8274 13.769 20.268 13.9893C20.5434 14.0994 20.7637 14.3197 20.9289 14.5951C21.1492 15.256 21.1492 15.972 20.8187 16.5228ZM26.9322 19.1664C26.4915 19.7172 25.9408 20.1578 25.2799 20.4882C24.674 20.7636 24.0131 20.8187 23.3522 20.7636C22.3609 20.5433 21.5898 19.7723 21.3695 18.7809C21.2043 18.0649 21.2043 17.3489 21.4246 16.688C21.8652 15.3111 22.9116 14.2096 24.2334 13.7139C25.0596 13.4385 25.9408 13.6038 26.6568 14.0444C27.2075 14.4299 27.5931 14.9806 27.7032 15.6416C28.0337 16.8532 27.7583 18.175 26.9322 19.1664ZM28.5844 20.7085L28.4743 14.4299C28.4743 14.2096 28.4192 13.9342 28.309 13.7139H30.457V17.4591L32.9905 13.7139H35.3037L30.1266 20.7636L28.5844 20.7085ZM37.727 20.7085H33.321L35.4689 14.5951C35.5791 14.3197 35.5791 13.9893 35.4689 13.7139H40.1504L39.6547 15.256H37.3415L36.956 16.4677H38.7184L38.1676 18.0098H36.4603C36.2951 18.3954 36.1849 18.7809 36.0747 19.2215H38.3879L37.727 20.7085ZM45.6029 16.5228C45.4376 16.9634 45.1623 17.3489 44.7767 17.5692C44.4463 17.8446 44.0057 18.0098 43.5651 18.0649L44.942 20.6535H42.9042L41.5823 18.175L40.7011 20.6535H38.6633L40.9214 14.3748C41.0316 14.1545 41.0316 13.8791 40.9214 13.6588H43.7303C44.1709 13.6588 44.6115 13.769 44.997 13.9893C45.2724 14.0994 45.4927 14.3197 45.658 14.5951C45.8783 15.256 45.8783 15.9169 45.6029 16.5228Z" fill="white"/>
<path d="M33.7616 10.6296C33.9819 10.5195 34.1471 10.4093 34.3123 10.2441C34.5877 9.96872 34.808 9.63827 34.9182 9.25273C35.1935 8.53675 35.5791 7.15985 34.6979 7.15985H34.2022L32.9354 10.7398H33.4311C33.5413 10.7398 33.6514 10.6847 33.7616 10.6296ZM43.0694 15.4212H42.6288L42.2433 16.5778H42.794C43.51 16.5778 44.226 15.4212 43.0694 15.4212ZM18.2852 15.4212H17.8446L17.4591 16.5778H18.0099C18.836 16.5778 19.4418 15.4212 18.2852 15.4212ZM20.8738 9.91365L20.7637 8.4266L19.8824 9.91365H20.8738ZM24.1784 15.7517C23.7378 16.2474 23.4624 16.9083 23.4073 17.5692C23.3522 17.9547 23.4073 18.3403 23.5175 18.6707C23.6827 19.0562 24.1784 19.2215 24.5639 19.0012C24.674 18.9461 24.7842 18.891 24.8393 18.7809C25.5002 18.0649 25.8306 17.0735 25.6654 16.0821C25.6103 15.6415 25.1697 15.3111 24.7291 15.4212C24.4537 15.4763 24.2885 15.5865 24.1784 15.7517Z" fill="white"/>
</svg>
