<svg width="60" height="43" viewBox="0 0 60 43" fill="none" xmlns="http://www.w3.org/2000/svg">
<path d="M30.0049 43C39.9379 43 48.753 39.5373 54.2147 34.2063L49.2923 34.2259C44.6445 38.1288 37.8395 40.5839 30.1323 40.5839C15.7477 40.5839 4.53015 32.0348 4.53015 21.4902C4.53015 9.32189 15.7575 2.3965 30.1323 2.3965C31.0443 2.3965 31.7797 2.81711 31.2306 3.60942C28.2399 7.19928 19.7287 18.7514 18.1794 21.2555C15.1201 26.1854 15.1887 32.2598 22.69 32.6902H54.2245C55.8326 32.6902 56.2444 31.937 56.8229 31.1545C58.9311 28.308 60.0097 24.9725 59.9999 21.5C59.9901 12.4324 53.5969 5.644 44.1934 2.29869L42.7422 4.47021C50.5572 7.346 55.7247 13.1661 55.7247 21.5C55.7247 22.9477 55.509 24.3562 55.107 25.7159C54.754 26.8897 54.0774 27.8874 52.7831 27.8874H27.6221C24.3961 27.8874 25.6414 24.5714 26.8377 22.9575C28.5733 19.8567 38.0552 6.96452 40.3399 4.55824C40.9184 3.6779 42.5559 1.84873 40.3007 1.15424C37.0943 0.391273 33.6231 8.44289e-06 30.0049 8.44289e-06C13.4336 -0.00977318 0.00981087 8.48067 5.36066e-06 21.4902C-0.00980015 34.6269 13.4336 43 30.0049 43Z" fill="black"/>
</svg>
