<svg width="62" height="27" viewBox="0 0 62 27" fill="none" xmlns="http://www.w3.org/2000/svg">
<path d="M31.0423 25.1366C37.4733 25.1366 42.6866 19.9233 42.6866 13.4923C42.6866 7.06136 37.4733 1.84802 31.0423 1.84802C24.6113 1.84802 19.398 7.06136 19.398 13.4923C19.398 19.9233 24.6113 25.1366 31.0423 25.1366Z" fill="white"/>
<path d="M2.61176 9.37758C3.08214 9.94827 3.64937 10.617 4.31114 11.3502C4.92333 12.0339 5.61737 12.7786 6.38636 13.5615C7.01239 14.1921 7.68568 14.8573 8.40509 15.5295C9.1833 16.2535 10.0099 16.9925 10.8919 17.7373C11.6759 18.4006 12.4998 19.0581 13.3637 19.7099C14.3322 20.4401 15.3479 21.1495 16.4108 21.8382H21.4133C22.5846 23.1475 24.0191 24.195 25.6229 24.9122C27.2267 25.6293 28.9638 26 30.7207 26C32.4775 26 34.2146 25.6293 35.8184 24.9122C37.4222 24.195 38.8567 23.1475 40.028 21.8382H44.9602C54.3782 15.7347 60.3606 7.32196 60.3606 7.32196H41.5891C40.4964 5.40208 38.9147 3.80579 37.0051 2.69537C35.0954 1.58495 32.9257 1 30.7166 1C28.5076 1 26.3379 1.58495 24.4282 2.69537C22.5185 3.80579 20.9369 5.40208 19.8442 7.32196H1C1 7.32196 1.56031 8.10824 2.60715 9.37758H2.61176ZM8.87317 15.5295C8.18143 14.8885 7.50198 14.2325 6.83484 13.5615H18.2151C18.2178 14.2207 18.2721 14.8787 18.3777 15.5295H8.87317ZM52.4898 15.5295H43.0533C43.1596 14.8788 43.2147 14.2208 43.2181 13.5615H54.5293C53.859 14.2325 53.178 14.8885 52.4863 15.5295H52.4898ZM58.335 9.37758C57.8531 9.95403 57.2801 10.6239 56.6218 11.3502H43.0325C42.9167 10.68 42.7467 10.0203 42.5241 9.37758H58.335ZM42.4814 17.7373H49.9753C49.1452 18.4233 48.3082 19.0839 47.4654 19.7099H41.5683C41.9276 19.0792 42.233 18.4193 42.4814 17.7373ZM30.7161 2.67692C32.8553 2.67714 34.9465 3.31167 36.7252 4.50026C38.5039 5.68886 39.8903 7.37816 40.709 9.35458C41.5277 11.331 41.7421 13.5058 41.3249 15.604C40.9078 17.7023 39.8778 19.6297 38.3654 21.1426C36.8529 22.6556 34.9258 23.6861 32.8277 24.1039C30.7296 24.5218 28.5548 24.3081 26.5781 23.49C24.6014 22.672 22.9117 21.2861 21.7225 19.5078C20.5333 17.7295 19.8981 15.6385 19.8972 13.4992C19.8969 12.0782 20.1765 10.6711 20.7201 9.35814C21.2636 8.0452 22.0605 6.8522 23.0651 5.84724C24.0697 4.84228 25.2625 4.04506 26.5752 3.50109C27.888 2.95712 29.2951 2.67707 30.7161 2.67692ZM19.8649 19.7076H13.8987C13.0559 19.0816 12.2189 18.4209 11.3888 17.735H18.9518C19.1988 18.4176 19.5043 19.0776 19.8649 19.7076ZM18.9092 9.37528C18.6847 10.0176 18.5139 10.6774 18.3984 11.3479H4.74117C4.08286 10.6216 3.50987 9.95519 3.02911 9.37528H18.9092Z" fill="url(#paint0_linear_1073_30)"/>
<path d="M2.61176 9.37758C3.08214 9.94827 3.64937 10.617 4.31114 11.3502C4.92333 12.0339 5.61737 12.7786 6.38636 13.5615C7.01239 14.1921 7.68568 14.8573 8.40509 15.5295C9.1833 16.2535 10.0099 16.9925 10.8919 17.7373C11.6759 18.4006 12.4998 19.0581 13.3637 19.7099C14.3322 20.4401 15.3479 21.1495 16.4108 21.8382H21.4133C22.5846 23.1475 24.0191 24.195 25.6229 24.9122C27.2267 25.6293 28.9638 26 30.7207 26C32.4775 26 34.2146 25.6293 35.8184 24.9122C37.4222 24.195 38.8567 23.1475 40.028 21.8382H44.9602C54.3782 15.7347 60.3606 7.32196 60.3606 7.32196H41.5891C40.4964 5.40208 38.9147 3.80579 37.0051 2.69537C35.0954 1.58495 32.9257 1 30.7166 1C28.5076 1 26.3379 1.58495 24.4282 2.69537C22.5185 3.80579 20.9369 5.40208 19.8442 7.32196H1C1 7.32196 1.56031 8.10824 2.60715 9.37758H2.61176ZM8.87317 15.5295C8.18143 14.8885 7.50198 14.2325 6.83484 13.5615H18.2151C18.2178 14.2207 18.2721 14.8787 18.3777 15.5295H8.87317ZM52.4898 15.5295H43.0533C43.1596 14.8788 43.2147 14.2208 43.2181 13.5615H54.5292C53.859 14.2325 53.178 14.8885 52.4863 15.5295H52.4898ZM58.335 9.37758C57.8531 9.95403 57.2801 10.6239 56.6218 11.3502H43.0325C42.9167 10.68 42.7467 10.0203 42.5241 9.37758H58.335ZM42.4814 17.7373H49.9753C49.1452 18.4233 48.3082 19.0839 47.4654 19.7099H41.5683C41.9276 19.0792 42.233 18.4193 42.4814 17.7373V17.7373ZM30.7161 2.67692C32.8553 2.67714 34.9465 3.31167 36.7252 4.50026C38.5039 5.68886 39.8903 7.37816 40.709 9.35458C41.5277 11.331 41.7421 13.5058 41.3249 15.604C40.9078 17.7023 39.8778 19.6297 38.3654 21.1426C36.8529 22.6556 34.9258 23.6861 32.8277 24.1039C30.7296 24.5218 28.5548 24.3081 26.5781 23.49C24.6014 22.672 22.9117 21.2861 21.7225 19.5078C20.5333 17.7295 19.8981 15.6385 19.8972 13.4992C19.8969 12.0782 20.1765 10.6711 20.7201 9.35814C21.2636 8.0452 22.0605 6.8522 23.0651 5.84724C24.0697 4.84228 25.2625 4.04506 26.5752 3.50109C27.888 2.95712 29.2951 2.67707 30.7161 2.67692V2.67692ZM19.8649 19.7076H13.8987C13.0559 19.0816 12.2189 18.421 11.3888 17.735H18.9518C19.1988 18.4176 19.5043 19.0776 19.8649 19.7076V19.7076ZM18.9092 9.37528C18.6847 10.0176 18.5139 10.6774 18.3984 11.3479H4.74117C4.08286 10.6216 3.50987 9.95519 3.02911 9.37528H18.9092Z" stroke="white" stroke-miterlimit="10"/>
<path d="M30.7161 23.8339C32.7609 23.8339 34.7598 23.2275 36.4599 22.0913C38.1601 20.9552 39.4852 19.3404 40.2675 17.4512C41.0499 15.562 41.2544 13.4831 40.8552 11.4777C40.456 9.47218 39.4711 7.63012 38.0249 6.18445C36.5788 4.73878 34.7364 3.75445 32.7308 3.35594C30.7252 2.95744 28.6464 3.16266 26.7574 3.94565C24.8685 4.72865 23.2541 6.05424 22.1186 7.75479C20.983 9.45533 20.3773 11.4544 20.378 13.4993C20.3781 14.8567 20.6457 16.2007 21.1653 17.4548C21.6849 18.7088 22.4465 19.8481 23.4065 20.8078C24.3665 21.7675 25.5061 22.5287 26.7603 23.0479C28.0145 23.5671 29.3586 23.8342 30.7161 23.8339ZM30.7161 3.92786C32.6086 3.92786 34.4587 4.48908 36.0323 5.54054C37.606 6.59201 38.8325 8.08649 39.5567 9.83502C40.281 11.5835 40.4705 13.5076 40.1013 15.3638C39.732 17.22 38.8207 18.9251 37.4824 20.2633C36.1442 21.6016 34.4391 22.5129 32.5829 22.8822C30.7267 23.2514 28.8026 23.0619 27.0541 22.3376C25.3056 21.6134 23.8111 20.3869 22.7596 18.8132C21.7082 17.2396 21.147 15.3895 21.147 13.4969C21.147 10.9591 22.1551 8.52513 23.9497 6.73058C25.7442 4.93603 28.1782 3.92786 30.7161 3.92786Z" fill="url(#paint1_linear_1073_30)"/>
<path d="M30.7161 10.8499H29.4087V16.2039H30.7161V10.8499Z" fill="black"/>
<path d="M25.5741 16.2039L26.9184 13.0554V16.2039H28.2373V10.8499H26.787L25.2686 14.38L23.877 10.8499H22.3956V16.2039H23.5185V12.9758L24.7994 16.2039H25.5741Z" fill="black"/>
<path d="M32.993 12.9747L35.481 16.2039H36.4909V10.8499H35.3542V14.1045V14.1068L32.8501 10.8499H31.8713V16.2039H32.993V12.9747Z" fill="black"/>
<path d="M38.972 10.8499H37.6646V16.2039H38.972V10.8499Z" fill="black"/>
<defs>
<linearGradient id="paint0_linear_1073_30" x1="30.7702" y1="24.0921" x2="30.5696" y2="-13.0348" gradientUnits="userSpaceOnUse">
<stop offset="0.72" stop-color="white"/>
</linearGradient>
<linearGradient id="paint1_linear_1073_30" x1="30.6515" y1="-10.1675" x2="30.7426" y2="23.3969" gradientUnits="userSpaceOnUse">
<stop offset="0.98" stop-color="white"/>
</linearGradient>
</defs>
</svg>
