<svg width="53" height="52" viewBox="0 0 53 52" fill="none" xmlns="http://www.w3.org/2000/svg">
<path d="M31.512 5.04395L26.104 11.6479L20.696 5.04395C14.3208 5.31735 8.0636 6.85515 2.28796 9.56795C4.06657 11.953 6.50811 13.7616 9.30796 14.7679C9.41196 12.0986 11.7173 11.3879 14.1613 11.1279C15.6818 10.9786 17.2099 10.9207 18.7373 10.9546L26.104 51.9999L33.4706 10.9719C34.9981 10.938 36.5261 10.9959 38.0466 11.1453C40.4906 11.4053 42.796 12.1159 42.9 14.7853C45.6998 13.7789 48.1414 11.9703 49.92 9.58528C44.1456 6.86649 37.8883 5.3228 31.512 5.04395Z" fill="black"/>
<path d="M26.104 0C17.1712 0.108522 8.33017 1.81685 0 5.044C0.381394 6.10989 0.86311 7.13716 1.43867 8.112C9.22204 4.75602 17.629 3.08999 26.104 3.224C34.579 3.08999 42.986 4.75602 50.7693 8.112C51.3449 7.13716 51.8266 6.10989 52.208 5.044C43.8778 1.81685 35.0368 0.108522 26.104 0Z" fill="black"/>
</svg>
