<svg width="67" height="68" viewBox="0 0 67 68" fill="none" xmlns="http://www.w3.org/2000/svg">
<path d="M33.5002 0C15.0671 0.000621438 0 15.0677 0 33.5325C0 51.9656 15.0677 67.0016 33.4992 67.0016C51.9326 67.0016 67 51.9652 67 33.5325C67 15.0677 51.9329 0.000621438 33.5002 0ZM33.4992 4.75027C36.0173 4.75027 38.5012 5.06472 40.8608 5.69392L33.5949 25.795L26.2968 5.66161C28.5933 5.06472 31.0156 4.75027 33.4992 4.75027ZM4.71702 33.5325C4.71702 30.1671 5.2844 26.9567 6.35358 23.9695L19.6918 58.728C10.7571 53.8522 4.71702 44.3533 4.71702 33.5325ZM33.4992 62.2811C30.8249 62.2811 28.2456 61.9375 25.7931 61.2439L25.8235 60.6464L33.2485 41.3955L40.6725 60.6464L40.766 61.3692C38.4372 61.9664 36.0148 62.2811 33.4992 62.2811ZM39.0359 35.2936H27.4909L23.0889 46.6802L11.0718 15.5074C13.3364 12.7072 16.0735 10.3485 19.186 8.55533L27.6481 31.8645H39.5396L47.9678 8.65072C50.8619 10.3482 53.4409 12.5499 55.5805 15.1311L43.4382 46.6799L39.0359 35.2936ZM46.7421 59.0425L60.4264 23.3409C61.6215 26.5174 62.2497 29.9462 62.2497 33.5328C62.2497 44.6037 55.9288 54.231 46.7421 59.0425Z" fill="white"/>
</svg>
